{
.appVersion = "3134";
.formatVersion = 3;
DisplayStrings = (
"/ka_ka-oriya/ka_tta-oriya/ka_ta-oriya/ka_ssa-oriya/ka_sa-oriya/ga_ga-oriya/ga_da-oriya/ga_dha-oriya/nga_ka-oriya/nga_kha-oriya/nga_ga-oriya/nga_gha-oriya/ca_ca-oriya/ca_cha-oriya/ca_nya-oriya/ja_ja-oriya/ja_jha-oriya/ja_nya-oriya/nya_ca-oriya/nya_cha-oriya/nya_ja-oriya/nya_jha-oriya/tta_tta-oriya/nna_tta-oriya/nna_ttha-oriya/nna_dda-oriya/nna_nna-oriya/ta_ka-oriya  /ta_tha-oriya/ta_pa-oriya/ta_sa-oriya/da_ga-oriya/da_gha-oriya/da_da-oriya/da_dha-oriya/da_ba-oriya/da_bha-oriya/da_ya-oriya/na_ta-oriya/na_tha-oriya/na_da-oriya/na_dha-oriya/pa_ta-oriya/pa_pa-oriya/pa_sa-oriya/ba_ja-oriya/ba_da-oriya/ba_dha-oriya/ba_ba-oriya/ma_pa-oriya/ma_pha-oriya/ma_ba-oriya/ma_bha-oriya ଡହ",
"/ka_ka-oriya",
"ସ",
"ୁୂ/uMatra-oriya.002/uuMatra-oriya.002",
"/na_iMatra-oriya"
);
axes = (
{
name = Weight;
tag = wght;
}
);
classes = (
{
automatic = 1;

glyphs = (
{
glyphname = "ka_iMatra-oriya";
layers = (
{
anchors = (
{
name = am;
pos = (780,659);
},
{
name = below;
pos = (596,-20);
},
{
name = bindu;
pos = (451,-96);
},
{
name = bottom;
pos = (593,17);
},
{
name = bottomtwo;
pos = (442,-258);
},
{
name = chanBin;
pos = (648,702);
},
{
name = nukta;
pos = (451,-50);
},
{
name = reph2;
pos = (713,4);
},
{
name = ru;
pos = (451,-7);
}
);
layerId = m01;
shapes = (
{
closed = 1;
nodes = (
(433,0,o),
(520,87,o),
(520,194,cs),
(520,302,o),
(433,389,o),
(325,389,cs),
(218,389,o),
(131,302,o),
(131,194,cs),
(131,87,o),
(218,0,o),
(325,0,cs)
);
},
{
closed = 1;
nodes = (
(261,78,o),
(209,130,o),
(209,194,cs),
(209,259,o),
(261,311,o),
(325,311,cs),
(390,311,o),
(442,259,o),
(442,194,cs),
(442,130,o),
(390,78,o),
(325,78,cs)
);
},
{
closed = 1;
nodes = (
(442,0,l),
(520,0,l),
(520,389,l),
(494,389,o),
(468,389,o),
(442,389,c)
);
},
{
closed = 1;
nodes = (
(673,0,l),
(751,0,l),
(751,389,l),
(673,389,l)
);
},
{
closed = 1;
nodes = (
(674,311,l),
(674,389,l),
(485,389,l),
(485,311,l)
);
},
{
closed = 1;
nodes = (
(751,505,l),
(751,505,o),
(751,505,o),
(751,505,cs),
(751,613,o),
(664,700,o),
(557,700,cs),
(249,700,o),
(240,700,o),
(240,700,cs),
(240,700,o),
(478,700,o),
(478,700,c),
(478,622,l),
(478,622,o),
(240,622,o),
(240,622,cs),
(240,622,o),
(492,622,o),
(557,622,cs),
(621,622,o),
(673,570,o),
(673,505,cs),
(673,505,o),
(673,505,o),
(673,505,c)
);
},
{
closed = 1;
nodes = (
(210,487,l),
(209,493,o),
(209,499,o),
(209,505,cs),
(209,570,o),
(261,622,o),
(325,622,cs),
(390,622,o),
(502,622,o),
(502,622,cs),
(502,622,o),
(495,622,o),
(495,622,c),
(495,700,l),
(495,700,o),
(502,700,o),
(502,700,cs),
(502,700,o),
(493,700,o),
(325,700,cs),
(218,700,o),
(131,613,o),
(131,505,cs),
(131,479,o),
(126,415,o),
(145,431,cs)
);
},
{
closed = 1;
nodes = (
(376,503,l),
(324,550,o),
(248,567,o),
(178,541,cs),
(77,505,o),
(25,393,o),
(62,292,cs),
(83,235,o),
(126,195,o),
(178,175,c),
(213,247,l),
(178,256,o),
(149,282,o),
(136,319,cs),
(113,380,o),
(144,446,o),
(205,468,cs),
(248,484,o),
(293,474,o),
(324,445,c)
);
}
);
width = 801;
}
);
},
{
glyphname = "ka_rVocalicMatra-oriya";
layers = (
{
anchors = (
{
name = am;
pos = (700,659);
},
{
name = below;
pos = (516,-20);
},
{
name = bindu;
pos = (371,-96);
},
{
name = bottom;
pos = (633,17);
},
{
name = bottomtwo;
pos = (362,-258);
},
{
name = chanBin;
pos = (568,702);
},
{
name = nukta;
pos = (371,-50);
},
{
name = reph2;
pos = (633,4);
},
{
name = ru;
pos = (371,-7);
},
{
name = top;
pos = (371,754);
}
);
layerId = m01;
shapes = (
{
closed = 1;
nodes = (
(352,0,o),
(439,87,o),
(439,194,cs),
(439,302,o),
(352,389,o),
(244,389,cs),
(137,389,o),
(50,302,o),
(50,194,cs),
(50,87,o),
(137,0,o),
(244,0,cs)
);
},
{
closed = 1;
nodes = (
(180,78,o),
(128,130,o),
(128,194,cs),
(128,259,o),
(180,311,o),
(244,311,cs),
(309,311,o),
(361,259,o),
(361,194,cs),
(361,130,o),
(309,78,o),
(244,78,cs)
);
},
{
closed = 1;
nodes = (
(514,700,l),
(514,700,o),
(521,700,o),
(521,700,cs),
(521,700,o),
(512,700,o),
(244,700,cs),
(137,700,o),
(50,613,o),
(50,505,cs),
(50,398,o),
(137,311,o),
(244,311,cs),
(352,311,o),
(245,311,o),
(245,311,c),
(245,389,l),
(245,389,o),
(309,389,o),
(244,389,cs),
(180,389,o),
(128,441,o),
(128,505,cs),
(128,570,o),
(180,622,o),
(244,622,cs),
(309,622,o),
(521,622,o),
(521,622,cs),
(521,622,o),
(514,622,o),
(514,622,c)
);
},
{
closed = 1;
nodes = (
(361,0,l),
(439,0,l),
(439,389,l),
(413,389,o),
(387,389,o),
(361,389,c)
);
},
{
closed = 1;
nodes = (
(592,0,l),
(670,0,l),
(670,389,l),
(592,389,l)
);
},
{
closed = 1;
nodes = (
(593,311,l),
(593,389,l),
(404,389,l),
(404,311,l)
);
},
{
closed = 1;
nodes = (
(683,-9,o),
(683,-8,o),
(682,-9,cs),
(624,-85,o),
(539,-141,o),
(554,-250,cs),
(569,-356,o),
(621,-400,o),
(703,-400,cs),
(785,-400,o),
(852,-333,o),
(852,-251,cs),
(852,-251,o),
(852,-250,o),
(852,-250,c),
(774,-250,l),
(774,-250,o),
(774,-251,o),
(774,-251,cs),
(774,-290,o),
(742,-322,o),
(703,-322,cs),
(664,-322,o),
(635,-281,o),
(632,-242,cs),
(625,-136,o),
(715,-117,o),
(772,-9,cs),
(773,-8,o),
(773,-9,o),
(774,-9,c),
(684,-9,l)
);
},
{
closed = 1;
nodes = (
(740,-190,l),
(761,-200,o),
(774,-219,o),
(774,-251,cs),
(774,-266,o),
(774,-251,o),
(774,-251,c),
(852,-251,l),
(852,-251,o),
(852,-309,o),
(852,-251,cs),
(852,-194,o),
(827,-154,o),
(788,-130,c)
);
},
{
closed = 1;
nodes = (
(772,-9,l),
(858,143,o),
(858,312,o),
(842,411,cs),
(842,411,o),
(842,412,o),
(842,412,cs),
(764,412,ls),
(764,412,o),
(764,411,o),
(764,411,cs),
(779,323,o),
(784,142,o),
(682,-9,c)
);
},
{
closed = 1;
nodes = (
(497,622,o),
(498,622,o),
(498,622,cs),
(650,622,o),
(770,502,o),
(770,350,c),
(848,351,l),
(848,546,o),
(693,700,o),
(498,700,cs),
(498,700,o),
(497,700,o),
(497,700,cs),
(497,622,ls)
);
}
);
width = 902;
}
);
},
{
glyphname = "kha_iMatra-oriya";
layers = (
{
anchors = (
{
name = am;
pos = (680,659);
},
{
name = below;
pos = (496,-20);
},
{
name = bindu;
pos = (351,-96);
},
{
name = bottom;
pos = (613,17);
},
{
name = bottomtwo;
pos = (342,-258);
},
{
name = chanBin;
pos = (548,702);
},
{
name = nukta;
pos = (351,-50);
},
{
name = reph2;
pos = (613,4);
},
{
name = ru;
pos = (351,-7);
},
{
name = top;
pos = (351,754);
}
);
layerId = m01;
shapes = (
{
ref = "kha-oriya";
},
{
closed = 1;
nodes = (
(303,-96,l),
(303,-174,l),
(693,-174,l),
(693,-96,l)
);
},
{
closed = 1;
nodes = (
(303,-96,l),
(358,-151,l),
(651,6,l),
(596,61,l)
);
}
);
width = 743;
}
);
},
{
glyphname = "nga_iMatra-oriya";
layers = (
{
anchors = (
{
name = am;
pos = (687,659);
},
{
name = below;
pos = (503,-20);
},
{
name = bindu;
pos = (358,-96);
},
{
name = bottom;
pos = (500,17);
},
{
name = bottomtwo;
pos = (722,-146);
},
{
name = chanBin;
pos = (610,730);
},
{
name = nukta;
pos = (358,-50);
},
{
name = reph2;
pos = (610,4);
},
{
name = ru;
pos = (358,-7);
},
{
name = top;
pos = (358,754);
}
);
hints = (
{
horizontal = 1;
place = (0, 78);
place = (0, 78);
type = Stem;
},
{
horizontal = 1;
origin = (5,13);
target = (5,0);
type = Stem;
},
{
horizontal = 1;
origin = (2,5);
target = (2,11);
type = Stem;
},
{
origin = (4,6);
target = (4,13);
type = Stem;
},
{
place = (124, 71);
place = (124, 71);
type = Stem;
},
{
place = (444, 62);
place = (444, 62);
type = Stem;
},
{
origin = (2,8);
target = (2,2);
type = Stem;
}
);
layerId = m01;
shapes = (
{
closed = 1;
nodes = (
(416,324,l),
(440,313,o),
(461,294,o),
(473,267,cs),
(500,209,o),
(456,116,o),
(397,89,cs),
(339,62,o),
(270,87,o),
(243,145,cs),
(215,203,o),
(240,272,o),
(298,299,c),
(265,370,l),
(168,325,o),
(127,209,o),
(172,112,cs),
(217,15,o),
(333,-27,o),
(430,18,cs),
(528,64,o),
(570,179,o),
(525,276,cs),
(504,320,o),
(470,352,o),
(430,371,c)
);
},
{
closed = 1;
nodes = (
(448,389,l),
(448,389,o),
(448,389,o),
(448,389,cs),
(379,320,o),
(360,300,o),
(325,265,c),
(380,210,l),
(408,238,o),
(465,296,o),
(503,334,cs),
(503,334,o),
(503,334,o),
(503,334,c)
);
},
{
closed = 1;
nodes = (
(612,490,o),
(659,537,o),
(659,595,cs),
(659,653,o),
(612,700,o),
(554,700,cs),
(496,700,o),
(449,653,o),
(449,595,cs),
(449,537,o),
(496,490,o),
(554,490,cs)
);
},
{
closed = 1;
nodes = (
(539,568,o),
(527,580,o),
(527,595,cs),
(527,610,o),
(539,622,o),
(554,622,cs),
(569,622,o),
(581,610,o),
(581,595,cs),
(581,580,o),
(569,568,o),
(554,568,cs)
);
},
{
closed = 1;
nodes = (
(376,503,l),
(324,550,o),
(248,567,o),
(178,541,cs),
(77,505,o),
(25,393,o),
(62,292,cs),
(83,235,o),
(126,195,o),
(178,175,c),
(213,247,l),
(178,256,o),
(149,282,o),
(136,319,cs),
(113,380,o),
(144,446,o),
(205,468,cs),
(248,484,o),
(293,474,o),
(324,445,c)
);
},
{
closed = 1;
nodes = (
(348,699,l),
(292,700,o),
(237,676,o),
(198,630,cs),
(160,583,o),
(146,526,o),
(155,471,c),
(235,477,l),
(225,511,o),
(234,548,o),
(260,578,cs),
(283,607,o),
(316,621,o),
(349,621,c)
);
},
{
closed = 1;
nodes = (
(348,621,l),
(404,621,o),
(454,601,o),
(494,569,c),
(503,657,l),
(457,684,o),
(405,699,o),
(348,699,c)
);
}
);
width = 689;
}
);
},
{
glyphname = "ca_aaMatra-oriya";
layers = (
{
anchors = (
{
name = am;
pos = (700,659);
},
{
name = below;
pos = (516,-20);
},
{
name = bindu;
pos = (371,-96);
},
{
name = bottom;
pos = (633,17);
},
{
name = bottomtwo;
pos = (362,-258);
},
{
name = chanBin;
pos = (568,702);
},
{
name = nukta;
pos = (371,-50);
},
{
name = reph2;
pos = (633,4);
},
{
name = ru;
pos = (371,-7);
},
{
name = top;
pos = (371,754);
}
);
layerId = m01;
shapes = (
{
pos = (20,0);
ref = "ca-oriya";
},
{
closed = 1;
nodes = (
(672,0,l),
(672,700,l),
(594,700,l),
(594,0,l)
);
},
{
closed = 1;
nodes = (
(593,6,o),
(593,6,o),
(593,6,cs),
(593,6,o),
(545,6,o),
(610,6,cs),
(674,6,o),
(726,-5,o),
(726,-40,cs),
(726,-95,o),
(674,-97,o),
(610,-97,cs),
(545,-97,o),
(593,-97,o),
(593,-97,c),
(593,-175,l),
(593,-175,o),
(602,-175,o),
(610,-175,cs),
(717,-175,o),
(804,-147,o),
(804,-40,cs),
(804,68,o),
(717,84,o),
(610,84,cs),
(602,84,o),
(593,84,o),
(593,84,cs),
(593,84,o),
(593,84,o),
(593,84,c),
(593,6,l)
);
},
{
closed = 1;
nodes = (
(822,-174,l),
(822,-96,l),
(592,-96,l),
(592,-174,l)
);
}
);
width = 842;
}
);
},
{
glyphname = "ca_oMatra-oriya";
layers = (
{
anchors = (
{
name = am;
pos = (1290,659);
},
{
name = below;
pos = (1106,-20);
},
{
name = bindu;
pos = (961,-96);
},
{
name = bottom;
pos = (1223,17);
},
{
name = bottomtwo;
pos = (952,-258);
},
{
name = chanBin;
pos = (1158,702);
},
{
name = nukta;
pos = (961,-50);
},
{
name = reph2;
pos = (1223,4);
},
{
name = ru;
pos = (961,-7);
},
{
name = top;
pos = (961,754);
}
);
layerId = m01;
shapes = (
{
pos = (620,0);
ref = "ca-oriya";
},
{
closed = 1;
nodes = (
(1272,0,l),
(1272,700,l),
(1194,700,l),
(1194,0,l)
);
},
{
closed = 1;
nodes = (
(1193,6,o),
(1193,6,o),
(1193,6,cs),
(1193,6,o),
(1145,6,o),
(1210,6,cs),
(1274,6,o),
(1326,-5,o),
(1326,-40,cs),
(1326,-95,o),
(1274,-97,o),
(1210,-97,cs),
(1145,-97,o),
(1193,-97,o),
(1193,-97,c),
(1193,-175,l),
(1193,-175,o),
(1202,-175,o),
(1210,-175,cs),
(1317,-175,o),
(1404,-147,o),
(1404,-40,cs),
(1404,68,o),
(1317,84,o),
(1210,84,cs),
(1202,84,o),
(1193,84,o),
(1193,84,cs),
(1193,84,o),
(1193,84,o),
(1193,84,c),
(1193,6,l)
);
},
{
closed = 1;
nodes = (
(1422,-174,l),
(1422,-96,l),
(1192,-96,l),
(1192,-174,l)
);
},
{
pos = (20,0);
ref = "eMatra-oriya";
}
);
width = 1442;
}
);
},
{
glyphname = "ca_iMatra-oriya";
layers = (
{
anchors = (
{
name = am;
pos = (686,659);
},
{
name = below;
pos = (502,-20);
},
{
name = bindu;
pos = (357,-96);
},
{
name = bottom;
pos = (499,17);
},
{
name = bottomtwo;
pos = (721,-146);
},
{
name = chanBin;
pos = (554,702);
},
{
name = nukta;
pos = (357,-50);
},
{
name = reph2;
pos = (619,4);
},
{
name = ru;
pos = (357,-7);
},
{
name = top;
pos = (357,754);
}
);
layerId = m01;
shapes = (
{
closed = 1;
nodes = (
(456,0,o),
(543,87,o),
(543,194,cs),
(543,302,o),
(456,389,o),
(348,389,cs),
(241,389,o),
(154,302,o),
(154,194,cs),
(154,87,o),
(241,0,o),
(348,0,cs)
);
},
{
closed = 1;
nodes = (
(284,78,o),
(232,130,o),
(232,194,cs),
(232,259,o),
(284,311,o),
(348,311,cs),
(413,311,o),
(465,259,o),
(465,194,cs),
(465,130,o),
(413,78,o),
(348,78,cs)
);
},
{
closed = 1;
nodes = (
(376,503,l),
(324,550,o),
(248,567,o),
(178,541,cs),
(77,505,o),
(25,393,o),
(62,292,cs),
(83,235,o),
(126,195,o),
(178,175,c),
(213,247,l),
(178,256,o),
(149,282,o),
(136,319,cs),
(113,380,o),
(144,446,o),
(205,468,cs),
(248,484,o),
(293,474,o),
(324,445,c)
);
},
{
closed = 1;
nodes = (
(348,699,l),
(292,700,o),
(237,676,o),
(198,630,cs),
(160,583,o),
(146,526,o),
(155,471,c),
(235,477,l),
(225,511,o),
(234,548,o),
(260,578,cs),
(283,607,o),
(316,621,o),
(349,621,c)
);
},
{
closed = 1;
nodes = (
(348,621,l),
(349,621,o),
(349,621,o),
(349,621,cs),
(478,621,o),
(582,517,o),
(583,389,c),
(661,389,l),
(660,560,o),
(521,699,o),
(349,699,cs),
(349,699,o),
(349,699,o),
(348,699,c)
);
}
);
width = 691;
}
);
},
{
glyphname = "ca_uMatra-oriya";
layers = (
{
anchors = (
{
name = am;
pos = (680,659);
},
{
name = below;
pos = (496,-20);
},
{
name = bindu;
pos = (351,-96);
},
{
name = bottom;
pos = (493,17);
},
{
name = bottomtwo;
pos = (715,-146);
},
{
name = chanBin;
pos = (548,702);
},
{
name = nukta;
pos = (351,-50);
},
{
name = reph2;
pos = (613,4);
},
{
name = ru;
pos = (351,-7);
},
{
name = top;
pos = (351,754);
}
);
layerId = m01;
shapes = (
{
closed = 1;
nodes = (
(450,0,o),
(537,87,o),
(537,194,cs),
(537,302,o),
(450,389,o),
(342,389,cs),
(235,389,o),
(148,302,o),
(148,194,cs),
(148,87,o),
(235,0,o),
(342,0,cs)
);
},
{
closed = 1;
nodes = (
(278,78,o),
(226,130,o),
(226,194,cs),
(226,259,o),
(278,311,o),
(342,311,cs),
(407,311,o),
(459,259,o),
(459,194,cs),
(459,130,o),
(407,78,o),
(342,78,cs)
);
},
{
closed = 1;
nodes = (
(342,699,l),
(341,699,o),
(341,699,o),
(340,699,cs),
(169,699,o),
(30,559,o),
(30,388,cs),
(30,273,o),
(92,173,o),
(184,119,c),
(197,205,l),
(143,247,o),
(108,314,o),
(108,388,cs),
(108,516,o),
(212,621,o),
(340,621,cs),
(341,621,o),
(341,621,o),
(342,621,c)
);
},
{
pos = (-68,-1);
ref = umatra.004;
}
);
width = 762;
}
);
},
{
glyphname = "cha_oMatra-oriya";
layers = (
{
anchors = (
{
name = am;
pos = (1310,659);
},
{
name = below;
pos = (1126,-20);
},
{
name = bindu;
pos = (981,-96);
},
{
name = bottom;
pos = (1013,-3);
},
{
name = bottomtwo;
pos = (1345,-146);
},
{
name = chanBin;
pos = (1178,702);
},
{
name = nukta;
pos = (981,-50);
},
{
name = reph2;
pos = (1243,4);
},
{
name = ru;
pos = (981,-7);
},
{
name = top;
pos = (981,754);
}
);
hints = (
{
origin = (7,15);
target = (7,16);
type = Stem;
},
{
origin = (7,17);
target = (7,2);
type = Stem;
},
{
origin = (7,3);
target = (7,4);
type = Stem;
},
{
origin = (7,14);
target = (7,18);
type = Stem;
},
{
origin = (7,0);
target = (7,5);
type = Stem;
},
{
origin = (7,13);
target = (7,19);
type = Stem;
},
{
origin = (7,6);
place = (404, 0);
type = Stem;
},
{
origin = (7,7);
target = (7,9);
type = Stem;
},
{
place = (1751, -1281);
place = (1751, -1281);
target = (6,10);
type = Stem;
},
{
origin = (7,8);
target = (7,10);
type = Stem;
},
{
origin = (7,10);
place = (600, 78);
type = Stem;
},
{
place = (1811, 0);
place = (1811, 0);
type = Stem;
}
);
layerId = m01;
shapes = (
{
closed = 1;
nodes = (
(1100,110,o),
(1187,197,o),
(1187,304,cs),
(1187,412,o),
(1100,499,o),
(992,499,cs),
(885,499,o),
(798,412,o),
(798,304,cs),
(798,197,o),
(885,110,o),
(992,110,cs)
);
},
{
closed = 1;
nodes = (
(928,188,o),
(876,240,o),
(876,304,cs),
(876,369,o),
(928,421,o),
(992,421,cs),
(1057,421,o),
(1109,369,o),
(1109,304,cs),
(1109,240,o),
(1057,188,o),
(992,188,cs)
);
},
{
closed = 1;
nodes = (
(908,222,l),
(854,264,o),
(758,284,o),
(758,388,cs),
(758,516,o),
(862,621,o),
(990,621,cs),
(1260,621,o),
(1312,417,o),
(1323,389,c),
(1401,389,l),
(1390,460,o),
(1303,699,o),
(990,699,cs),
(819,699,o),
(680,559,o),
(680,388,cs),
(680,243,o),
(803,190,o),
(895,136,c)
);
},
{
closed = 1;
nodes = (
(991,87,l),
(1014,35,o),
(1082,0,o),
(1175,0,cs),
(1244,0,o),
(1300,65,o),
(1300,143,c),
(1299,222,o),
(1239,311,o),
(1175,287,cs),
(1061,244,o),
(1155,235,o),
(1088,234,cs),
(1088,234,o),
(1088,234,o),
(1088,234,c),
(1088,166,l),
(1088,166,o),
(1088,166,o),
(1088,166,cs),
(1125,167,o),
(1150,209,o),
(1174,209,cs),
(1191,209,o),
(1222,191,o),
(1222,142,c),
(1222,97,o),
(1190,78,o),
(1175,78,cs),
(1150,78,o),
(1024,88,o),
(991,175,c)
);
},
{
closed = 1;
nodes = (
(958,88,o),
(832,78,o),
(807,78,cs),
(792,78,o),
(760,97,o),
(760,142,c),
(760,191,o),
(791,209,o),
(808,209,cs),
(832,209,o),
(857,167,o),
(894,166,cs),
(894,166,o),
(894,166,o),
(894,166,c),
(894,234,l),
(894,234,o),
(894,234,o),
(894,234,cs),
(827,235,o),
(921,244,o),
(807,287,cs),
(743,311,o),
(683,222,o),
(682,143,c),
(682,65,o),
(738,0,o),
(807,0,cs),
(900,0,o),
(968,35,o),
(991,87,c),
(991,175,l)
);
},
{
closed = 1;
nodes = (
(513,0,o),
(600,87,o),
(600,194,cs),
(600,302,o),
(513,389,o),
(405,389,cs),
(298,389,o),
(211,302,o),
(211,194,cs),
(211,87,o),
(298,0,o),
(405,0,cs)
);
},
{
closed = 1;
nodes = (
(341,78,o),
(289,130,o),
(289,194,cs),
(289,259,o),
(341,311,o),
(405,311,cs),
(470,311,o),
(522,259,o),
(522,194,cs),
(522,130,o),
(470,78,o),
(405,78,cs)
);
},
{
closed = 1;
nodes = (
(403,78,l),
(255,78,o),
(133,203,o),
(133,352,cs),
(133,500,o),
(255,622,o),
(404,622,c),
(459,622,o),
(509,605,o),
(552,577,c),
(600,638,l),
(544,677,o),
(476,700,o),
(402,700,c),
(209,700,o),
(52,543,o),
(52,350,cs),
(52,157,o),
(209,0,o),
(402,0,cs),
(402,0,o),
(403,0,o),
(403,0,c)
);
},
{
pos = (1273,0);
ref = "aaMatra-oriya";
}
);
width = 1451;
}
);
},
{
glyphname = "ja_iMatra-oriya";
layers = (
{
anchors = (
{
name = am;
pos = (761,659);
},
{
name = below;
pos = (577,-20);
},
{
name = bindu;
pos = (432,-96);
},
{
name = bottom;
pos = (714,17);
},
{
name = bottomtwo;
pos = (796,-146);
},
{
name = chanBin;
pos = (629,702);
},
{
name = nukta;
pos = (432,-50);
},
{
name = reph2;
pos = (715,4);
},
{
name = ru;
pos = (432,-7);
},
{
name = top;
pos = (432,754);
}
);
layerId = m01;
shapes = (
{
closed = 1;
nodes = (
(442,190,l),
(520,190,l),
(520,349,l),
(494,349,o),
(468,349,o),
(442,349,c)
);
},
{
closed = 1;
nodes = (
(673,0,l),
(751,0,l),
(751,389,l),
(673,389,l)
);
},
{
closed = 1;
nodes = (
(442,194,l),
(442,130,o),
(390,78,o),
(325,78,cs),
(261,78,o),
(209,130,o),
(209,194,cs),
(209,259,o),
(261,311,o),
(325,311,cs),
(325,311,o),
(325,311,o),
(325,311,c),
(325,389,l),
(325,389,o),
(325,389,o),
(325,389,cs),
(218,389,o),
(131,302,o),
(131,194,cs),
(131,87,o),
(218,0,o),
(325,0,cs),
(433,0,o),
(520,87,o),
(520,194,c)
);
},
{
closed = 1;
nodes = (
(673,311,l),
(673,389,l),
(442,349,l),
(442,271,l)
);
},
{
closed = 1;
nodes = (
(751,505,l),
(751,505,o),
(751,505,o),
(751,505,cs),
(751,613,o),
(664,700,o),
(557,700,cs),
(249,700,o),
(240,700,o),
(240,700,cs),
(240,700,o),
(478,700,o),
(478,700,c),
(478,622,l),
(478,622,o),
(240,622,o),
(240,622,cs),
(240,622,o),
(492,622,o),
(557,622,cs),
(621,622,o),
(673,570,o),
(673,505,cs),
(673,505,o),
(673,505,o),
(673,505,c)
);
},
{
closed = 1;
nodes = (
(210,487,l),
(209,493,o),
(209,499,o),
(209,505,cs),
(209,570,o),
(261,622,o),
(325,622,cs),
(390,622,o),
(502,622,o),
(502,622,cs),
(502,622,o),
(495,622,o),
(495,622,c),
(495,700,l),
(495,700,o),
(502,700,o),
(502,700,cs),
(502,700,o),
(493,700,o),
(325,700,cs),
(218,700,o),
(131,613,o),
(131,505,cs),
(131,479,o),
(136,454,o),
(145,431,c)
);
},
{
closed = 1;
nodes = (
(376,503,l),
(324,550,o),
(248,567,o),
(178,541,cs),
(77,505,o),
(25,393,o),
(62,292,cs),
(83,235,o),
(126,195,o),
(178,175,c),
(213,247,l),
(178,256,o),
(149,282,o),
(136,319,cs),
(113,380,o),
(144,446,o),
(205,468,cs),
(248,484,o),
(293,474,o),
(324,445,c)
);
}
);
width = 801;
}
);
},
{
glyphname = "dda_iMatra-oriya";
layers = (
{
anchors = (
{
name = am;
pos = (689,659);
},
{
name = below;
pos = (505,-20);
},
{
name = bindu;
pos = (360,-96);
},
{
name = bottom;
pos = (502,17);
},
{
name = bottomtwo;
pos = (724,-146);
},
{
name = chanBin;
pos = (557,702);
},
{
name = nukta;
pos = (360,-50);
},
{
name = reph2;
pos = (622,4);
},
{
name = ru;
pos = (360,-7);
},
{
name = top;
pos = (360,754);
}
);
layerId = m01;
shapes = (
{
closed = 1;
nodes = (
(418,324,l),
(442,313,o),
(463,294,o),
(475,267,cs),
(502,209,o),
(458,116,o),
(399,89,cs),
(341,62,o),
(272,87,o),
(245,145,cs),
(217,203,o),
(242,272,o),
(300,299,c),
(267,370,l),
(170,325,o),
(129,209,o),
(174,112,cs),
(219,15,o),
(335,-27,o),
(432,18,cs),
(530,64,o),
(572,179,o),
(527,276,cs),
(506,320,o),
(472,352,o),
(432,371,c)
);
},
{
closed = 1;
nodes = (
(450,389,l),
(450,389,o),
(450,389,o),
(450,389,cs),
(381,320,o),
(362,300,o),
(327,265,c),
(382,210,l),
(410,238,o),
(467,296,o),
(505,334,cs),
(505,334,o),
(505,334,o),
(505,334,c)
);
},
{
closed = 1;
nodes = (
(376,503,l),
(324,550,o),
(248,567,o),
(178,541,cs),
(77,505,o),
(25,393,o),
(62,292,cs),
(83,235,o),
(126,195,o),
(178,175,c),
(213,247,l),
(178,256,o),
(149,282,o),
(136,319,cs),
(113,380,o),
(144,446,o),
(205,468,cs),
(248,484,o),
(293,474,o),
(324,445,c)
);
},
{
closed = 1;
nodes = (
(348,699,l),
(292,700,o),
(237,676,o),
(198,630,cs),
(160,583,o),
(146,526,o),
(155,471,c),
(235,477,l),
(225,511,o),
(234,548,o),
(260,578,c),
(283,607,o),
(316,621,o),
(349,621,c)
);
},
{
closed = 1;
nodes = (
(348,621,l),
(349,621,o),
(349,621,o),
(349,621,cs),
(478,621,o),
(582,517,o),
(583,389,c),
(661,389,l),
(660,560,o),
(521,699,o),
(349,699,cs),
(349,699,o),
(349,699,o),
(348,699,c)
);
}
);
width = 691;
}
);
},
{
glyphname = "ta_iMatra-oriya";
layers = (
{
anchors = (
{
name = am;
pos = (669,659);
},
{
name = below;
pos = (485,-20);
},
{
name = bindu;
pos = (340,-96);
},
{
name = bottom;
pos = (602,17);
},
{
name = bottomtwo;
pos = (331,-258);
},
{
name = chanBin;
pos = (537,702);
},
{
name = nukta;
pos = (340,-50);
},
{
name = reph2;
pos = (602,4);
},
{
name = ru;
pos = (340,-7);
},
{
name = top;
pos = (340,754);
}
);
layerId = m01;
shapes = (
{
closed = 1;
nodes = (
(399,300,l),
(423,289,o),
(444,270,o),
(456,243,cs),
(483,185,o),
(458,116,o),
(399,89,cs),
(341,62,o),
(272,87,o),
(245,145,cs),
(217,203,o),
(242,272,o),
(300,299,c),
(267,370,l),
(170,325,o),
(129,209,o),
(174,112,cs),
(219,15,o),
(335,-27,o),
(432,18,cs),
(530,64,o),
(572,179,o),
(527,276,cs),
(506,320,o),
(472,352,o),
(432,371,c)
);
},
{
closed = 1;
nodes = (
(376,503,l),
(324,550,o),
(248,567,o),
(178,541,cs),
(77,505,o),
(25,393,o),
(62,292,cs),
(83,235,o),
(126,195,o),
(178,175,c),
(213,247,l),
(178,256,o),
(149,282,o),
(136,319,cs),
(113,380,o),
(144,446,o),
(205,468,cs),
(248,484,o),
(293,474,o),
(324,445,c)
);
},
{
closed = 1;
nodes = (
(348,699,l),
(292,700,o),
(237,676,o),
(198,630,cs),
(160,583,o),
(146,526,o),
(155,471,c),
(235,477,l),
(225,511,o),
(234,548,o),
(260,578,cs),
(283,607,o),
(316,621,o),
(349,621,c)
);
},
{
closed = 1;
nodes = (
(348,621,l),
(349,621,o),
(349,621,o),
(349,621,cs),
(478,621,o),
(582,517,o),
(583,389,c),
(661,389,l),
(660,560,o),
(521,699,o),
(349,699,cs),
(349,699,o),
(349,699,o),
(348,699,c)
);
}
);
width = 691;
}
);
},
{
glyphname = "ta_uMatra-oriya";
layers = (
{
anchors = (
{
name = am;
pos = (674,659);
},
{
name = below;
pos = (490,-20);
},
{
name = bindu;
pos = (345,-96);
},
{
name = bottom;
pos = (487,17);
},
{
name = bottomtwo;
pos = (709,-146);
},
{
name = chanBin;
pos = (542,702);
},
{
name = nukta;
pos = (345,-50);
},
{
name = reph2;
pos = (607,4);
},
{
name = ru;
pos = (345,-7);
},
{
name = top;
pos = (345,754);
}
);
layerId = m01;
shapes = (
{
closed = 1;
nodes = (
(404,300,l),
(428,289,o),
(449,270,o),
(461,243,cs),
(488,185,o),
(463,116,o),
(404,89,cs),
(346,62,o),
(277,87,o),
(250,145,cs),
(222,203,o),
(247,272,o),
(305,299,c),
(272,370,l),
(175,325,o),
(134,209,o),
(179,112,cs),
(224,15,o),
(340,-27,o),
(437,18,cs),
(535,64,o),
(577,179,o),
(532,276,cs),
(511,320,o),
(477,352,o),
(437,371,c)
);
},
{
closed = 1;
nodes = (
(362,699,l),
(361,699,o),
(361,699,o),
(360,699,cs),
(189,699,o),
(50,559,o),
(50,388,cs),
(50,273,o),
(112,173,o),
(204,119,c),
(217,205,l),
(163,247,o),
(128,314,o),
(128,388,cs),
(128,516,o),
(232,621,o),
(360,621,cs),
(361,621,o),
(361,621,o),
(362,621,c)
);
},
{
pos = (-55,-1);
ref = umatra.004;
}
);
width = 696;
}
);
},
{
glyphname = "ta_rVocalicMatra-oriya";
layers = (
{
anchors = (
{
name = am;
pos = (680,659);
},
{
name = below;
pos = (496,-20);
},
{
name = bindu;
pos = (351,-96);
},
{
name = bottom;
pos = (493,17);
},
{
name = bottomtwo;
pos = (715,-146);
},
{
name = chanBin;
pos = (548,702);
},
{
name = nukta;
pos = (351,-50);
},
{
name = reph2;
pos = (613,4);
},
{
name = ru;
pos = (351,-7);
},
{
name = top;
pos = (351,754);
}
);
layerId = m01;
shapes = (
{
closed = 1;
nodes = (
(362,699,l),
(361,699,o),
(361,699,o),
(360,699,cs),
(189,699,o),
(50,559,o),
(50,388,cs),
(50,273,o),
(112,173,o),
(204,119,c),
(217,205,l),
(163,247,o),
(128,314,o),
(128,388,cs),
(128,516,o),
(232,621,o),
(360,621,cs),
(361,621,o),
(361,621,o),
(362,621,c)
);
},
{
closed = 1;
nodes = (
(410,300,l),
(434,289,o),
(455,270,o),
(467,243,cs),
(494,185,o),
(469,116,o),
(410,89,cs),
(352,62,o),
(283,87,o),
(256,145,cs),
(228,203,o),
(253,272,o),
(311,299,c),
(278,370,l),
(181,325,o),
(140,209,o),
(185,112,cs),
(230,15,o),
(346,-27,o),
(443,18,cs),
(541,64,o),
(583,179,o),
(538,276,cs),
(517,320,o),
(483,352,o),
(443,371,c)
);
},
{
closed = 1;
nodes = (
(548,-9,o),
(548,-8,o),
(547,-9,cs),
(489,-85,o),
(404,-141,o),
(419,-250,cs),
(434,-356,o),
(486,-400,o),
(568,-400,cs),
(650,-400,o),
(717,-333,o),
(717,-251,cs),
(717,-251,o),
(717,-250,o),
(717,-250,c),
(639,-250,l),
(639,-250,o),
(639,-251,o),
(639,-251,cs),
(639,-290,o),
(607,-322,o),
(568,-322,cs),
(529,-322,o),
(500,-281,o),
(497,-242,cs),
(490,-136,o),
(580,-117,o),
(637,-9,cs),
(638,-8,o),
(638,-9,o),
(639,-9,c),
(549,-9,l)
);
},
{
closed = 1;
nodes = (
(605,-190,l),
(626,-200,o),
(639,-219,o),
(639,-251,cs),
(639,-266,o),
(639,-251,o),
(639,-251,c),
(717,-251,l),
(717,-251,o),
(717,-309,o),
(717,-251,cs),
(717,-194,o),
(692,-154,o),
(653,-130,c)
);
},
{
closed = 1;
nodes = (
(637,-9,l),
(723,143,o),
(723,312,o),
(707,411,cs),
(707,411,o),
(707,412,o),
(707,412,cs),
(629,412,ls),
(629,412,o),
(629,411,o),
(629,411,cs),
(644,323,o),
(649,142,o),
(547,-9,c)
);
},
{
closed = 1;
nodes = (
(362,622,o),
(363,622,o),
(363,622,cs),
(515,622,o),
(635,502,o),
(635,350,c),
(713,351,l),
(713,546,o),
(558,700,o),
(363,700,cs),
(363,700,o),
(362,700,o),
(362,700,cs),
(362,622,ls)
);
}
);
width = 767;
}
);
},
{
glyphname = "tha_iMatra-oriya";
layers = (
{
anchors = (
{
name = am;
pos = (680,659);
},
{
name = below;
pos = (496,-20);
},
{
name = bindu;
pos = (351,-96);
},
{
name = bottom;
pos = (613,17);
},
{
name = bottomtwo;
pos = (342,-258);
},
{
name = chanBin;
pos = (548,702);
},
{
name = nukta;
pos = (351,-50);
},
{
name = reph2;
pos = (613,4);
},
{
name = ru;
pos = (351,-7);
},
{
name = top;
pos = (351,754);
}
);
layerId = m01;
shapes = (
{
pos = (-2,0);
ref = "tha-oriya";
},
{
closed = 1;
nodes = (
(324,-101,l),
(324,-179,l),
(714,-179,l),
(714,-101,l)
);
},
{
closed = 1;
nodes = (
(324,-101,l),
(379,-156,l),
(672,1,l),
(617,56,l)
);
}
);
width = 764;
}
);
},
{
glyphname = "da_iMatra-oriya";
layers = (
{
anchors = (
{
name = am;
pos = (689,659);
},
{
name = below;
pos = (505,-20);
},
{
name = bindu;
pos = (360,-96);
},
{
name = bottom;
pos = (510,18);
},
{
name = bottomtwo;
pos = (724,-146);
},
{
name = chanBin;
pos = (557,702);
},
{
name = nukta;
pos = (360,-50);
},
{
name = reph2;
pos = (622,4);
},
{
name = ru;
pos = (360,-7);
},
{
name = top;
pos = (360,754);
}
);
layerId = m01;
shapes = (
{
closed = 1;
nodes = (
(468,0,l),
(546,0,l),
(546,314,l),
(468,388,l)
);
},
{
closed = 1;
nodes = (
(468,195,ls),
(468,195,o),
(468,194,o),
(468,194,cs),
(468,130,o),
(416,78,o),
(351,78,cs),
(287,78,o),
(235,130,o),
(235,194,cs),
(235,259,o),
(287,311,o),
(351,311,cs),
(351,311,o),
(351,311,o),
(351,311,c),
(351,389,l),
(351,389,o),
(351,389,o),
(351,389,cs),
(244,389,o),
(157,302,o),
(157,194,cs),
(157,87,o),
(244,0,o),
(351,0,cs),
(459,0,o),
(546,87,o),
(546,194,cs),
(546,194,o),
(546,195,o),
(546,195,cs)
);
},
{
closed = 1;
nodes = (
(376,503,l),
(324,550,o),
(248,567,o),
(178,541,cs),
(77,505,o),
(25,393,o),
(62,292,cs),
(83,235,o),
(126,195,o),
(178,175,c),
(213,247,l),
(178,256,o),
(149,282,o),
(136,319,cs),
(113,380,o),
(144,446,o),
(205,468,cs),
(248,484,o),
(293,474,o),
(324,445,c)
);
},
{
closed = 1;
nodes = (
(348,699,l),
(292,700,o),
(237,676,o),
(198,630,cs),
(160,583,o),
(146,526,o),
(155,471,c),
(235,477,l),
(225,511,o),
(234,548,o),
(260,578,c),
(283,607,o),
(316,621,o),
(349,621,c)
);
},
{
closed = 1;
nodes = (
(348,621,l),
(349,621,o),
(349,621,o),
(349,621,cs),
(478,621,o),
(582,517,o),
(583,389,c),
(661,389,l),
(660,560,o),
(521,699,o),
(349,699,cs),
(349,699,o),
(349,699,o),
(348,699,c)
);
}
);
width = 691;
}
);
},
{
glyphname = "dha_iMatra-oriya";
layers = (
{
anchors = (
{
name = am;
pos = (678,659);
},
{
name = below;
pos = (494,-20);
},
{
name = bindu;
pos = (349,-96);
},
{
name = bottom;
pos = (611,17);
},
{
name = bottomtwo;
pos = (340,-258);
},
{
name = chanBin;
pos = (546,702);
},
{
name = nukta;
pos = (349,-50);
},
{
name = reph2;
pos = (611,4);
},
{
name = ru;
pos = (349,-7);
},
{
name = top;
pos = (349,754);
}
);
layerId = m01;
shapes = (
{
pos = (-2,0);
ref = "dha-oriya";
},
{
closed = 1;
nodes = (
(322,-101,l),
(322,-179,l),
(712,-179,l),
(712,-101,l)
);
},
{
closed = 1;
nodes = (
(322,-101,l),
(377,-156,l),
(670,1,l),
(615,56,l)
);
}
);
width = 762;
}
);
},
{
glyphname = "na_iMatra-oriya";
layers = (
{
anchors = (
{
name = am;
pos = (665,659);
},
{
name = below;
pos = (481,-20);
},
{
name = bindu;
pos = (336,-96);
},
{
name = bottom;
pos = (472,17);
},
{
name = bottomtwo;
pos = (700,-146);
},
{
name = chanBin;
pos = (533,702);
},
{
name = nukta;
pos = (336,-50);
},
{
name = reph2;
pos = (598,4);
},
{
name = ru;
pos = (336,-7);
},
{
name = top;
pos = (336,754);
}
);
layerId = m01;
shapes = (
{
closed = 1;
nodes = (
(431,0,l),
(509,0,l),
(509,383,l),
(431,383,l)
);
},
{
closed = 1;
nodes = (
(497,305,l),
(497,383,l),
(268,383,l),
(268,305,l)
);
},
{
closed = 1;
nodes = (
(101,39,l),
(169,-1,l),
(328,328,l),
(268,383,l)
);
},
{
closed = 1;
nodes = (
(376,503,l),
(324,550,o),
(248,567,o),
(178,541,cs),
(77,505,o),
(25,393,o),
(62,292,cs),
(83,235,o),
(126,195,o),
(178,175,c),
(213,247,l),
(178,256,o),
(149,282,o),
(136,319,cs),
(113,380,o),
(144,446,o),
(205,468,cs),
(248,484,o),
(293,474,o),
(324,445,c)
);
},
{
closed = 1;
nodes = (
(348,699,l),
(292,700,o),
(237,676,o),
(198,630,cs),
(160,583,o),
(146,526,o),
(155,471,c),
(235,477,l),
(225,511,o),
(234,548,o),
(260,578,c),
(283,607,o),
(316,621,o),
(349,621,c)
);
},
{
closed = 1;
nodes = (
(348,621,l),
(349,621,o),
(349,621,o),
(349,621,cs),
(478,621,o),
(582,517,o),
(583,389,c),
(661,389,l),
(660,560,o),
(521,699,o),
(349,699,cs),
(349,699,o),
(349,699,o),
(348,699,c)
);
}
);
width = 691;
}
);
},
{
glyphname = "ba_iMatra-oriya";
layers = (
{
anchors = (
{
name = am;
pos = (689,659);
},
{
name = below;
pos = (505,-20);
},
{
name = bindu;
pos = (360,-96);
},
{
name = bottom;
pos = (509,18);
},
{
name = bottomtwo;
pos = (724,-146);
},
{
name = chanBin;
pos = (557,702);
},
{
name = nukta;
pos = (360,-50);
},
{
name = reph2;
pos = (614,4);
},
{
name = ru;
pos = (360,-7);
},
{
name = top;
pos = (360,754);
}
);
layerId = m01;
shapes = (
{
closed = 1;
nodes = (
(546,194,l),
(546,194,o),
(546,194,o),
(546,194,cs),
(546,302,o),
(459,389,o),
(351,389,cs),
(244,389,o),
(157,302,o),
(157,194,cs),
(157,87,o),
(244,0,o),
(351,0,cs),
(459,0,o),
(515,87,o),
(516,194,c),
(468,194,l),
(467,130,o),
(416,78,o),
(351,78,cs),
(287,78,o),
(235,130,o),
(235,194,cs),
(235,259,o),
(287,311,o),
(351,311,cs),
(416,311,o),
(468,259,o),
(468,194,cs),
(468,194,o),
(468,194,o),
(468,194,c)
);
},
{
closed = 1;
nodes = (
(468,0,l),
(546,0,l),
(546,194,l),
(468,194,l)
);
},
{
closed = 1;
nodes = (
(376,503,l),
(324,550,o),
(248,567,o),
(178,541,cs),
(77,505,o),
(25,393,o),
(62,292,cs),
(83,235,o),
(126,195,o),
(178,175,c),
(213,247,l),
(178,256,o),
(149,282,o),
(136,319,cs),
(113,380,o),
(144,446,o),
(205,468,cs),
(248,484,o),
(293,474,o),
(324,445,c)
);
},
{
closed = 1;
nodes = (
(348,699,l),
(292,700,o),
(237,676,o),
(198,630,cs),
(160,583,o),
(146,526,o),
(155,471,c),
(235,477,l),
(225,511,o),
(234,548,o),
(260,578,c),
(283,607,o),
(316,621,o),
(349,621,c)
);
},
{
closed = 1;
nodes = (
(348,621,l),
(349,621,o),
(349,621,o),
(349,621,cs),
(478,621,o),
(582,517,o),
(583,389,c),
(661,389,l),
(660,560,o),
(521,699,o),
(349,699,cs),
(349,699,o),
(349,699,o),
(348,699,c)
);
}
);
width = 691;
}
);
},
{
glyphname = "ba_uMatra-oriya";
layers = (
{
anchors = (
{
name = am;
pos = (654,659);
},
{
name = below;
pos = (470,-20);
},
{
name = bindu;
pos = (325,-96);
},
{
name = bottom;
pos = (474,18);
},
{
name = bottomtwo;
pos = (689,-146);
},
{
name = chanBin;
pos = (522,702);
},
{
name = nukta;
pos = (325,-50);
},
{
name = reph2;
pos = (579,4);
},
{
name = ru;
pos = (325,-7);
},
{
name = top;
pos = (325,754);
}
);
layerId = m01;
shapes = (
{
closed = 1;
nodes = (
(511,194,l),
(511,194,o),
(511,194,o),
(511,194,cs),
(511,302,o),
(424,389,o),
(316,389,cs),
(209,389,o),
(122,302,o),
(122,194,cs),
(122,87,o),
(209,0,o),
(316,0,cs),
(424,0,o),
(480,87,o),
(481,194,c),
(433,194,l),
(432,130,o),
(381,78,o),
(316,78,cs),
(252,78,o),
(200,130,o),
(200,194,cs),
(200,259,o),
(252,311,o),
(316,311,cs),
(381,311,o),
(433,259,o),
(433,194,cs),
(433,194,o),
(433,194,o),
(433,194,c)
);
},
{
closed = 1;
nodes = (
(433,0,l),
(511,0,l),
(511,194,l),
(433,194,l)
);
},
{
closed = 1;
nodes = (
(342,699,l),
(341,699,o),
(341,699,o),
(340,699,cs),
(169,699,o),
(30,559,o),
(30,388,cs),
(30,273,o),
(92,173,o),
(184,119,c),
(197,205,l),
(143,247,o),
(108,314,o),
(108,388,cs),
(108,516,o),
(212,621,o),
(340,621,cs),
(341,621,o),
(341,621,o),
(342,621,c)
);
},
{
pos = (-75,-1);
ref = umatra.004;
}
);
width = 762;
}
);
},
{
glyphname = "bha_aaMatra-oriya";
layers = (
{
anchors = (
{
name = am;
pos = (680,659);
},
{
name = below;
pos = (496,-20);
},
{
name = bindu;
pos = (351,-96);
},
{
name = bottom;
pos = (613,17);
},
{
name = bottomtwo;
pos = (715,-146);
},
{
name = chanBin;
pos = (548,702);
},
{
name = nukta;
pos = (351,-50);
},
{
name = reph2;
pos = (635,4);
},
{
name = ru;
pos = (351,-7);
},
{
name = top;
pos = (351,754);
}
);
layerId = m01;
shapes = (
{
closed = 1;
nodes = (
(57,88,o),
(144,8,o),
(252,1,cs),
(399,-9,o),
(487,80,o),
(519,187,cs),
(526,210,o),
(529,244,o),
(531,275,c),
(532,279,o),
(532,283,o),
(532,287,cs),
(532,291,ls),
(532,326,o),
(533,354,o),
(533,354,c),
(532,354,l),
(532,389,l),
(455,389,l),
(455,344,l),
(455,344,o),
(454,318,o),
(454,284,c),
(450,260,o),
(411,240,o),
(388,240,cs),
(361,241,o),
(322,261,o),
(322,288,cs),
(322,312,o),
(323,352,o),
(323,389,c),
(244,390,l),
(243,390,ls),
(179,390,o),
(128,441,o),
(128,505,cs),
(128,541,o),
(144,574,o),
(170,595,cs),
(190,612,o),
(216,622,o),
(244,622,cs),
(392,622,l),
(392,700,l),
(244,700,ls),
(194,700,o),
(148,681,o),
(113,649,cs),
(74,613,o),
(50,562,o),
(50,505,cs),
(50,441,o),
(81,385,o),
(128,350,c),
(84,314,o),
(57,258,o),
(57,195,cs)
);
},
{
closed = 1;
nodes = (
(135,257,o),
(183,312,o),
(244,312,c),
(244,287,ls),
(244,219,o),
(318,163,o),
(387,162,cs),
(407,162,o),
(429,167,o),
(448,176,c),
(430,119,o),
(355,70,o),
(252,79,cs),
(187,84,o),
(135,131,o),
(135,195,cs)
);
},
{
pos = (589,0);
ref = "aaMatra-oriya";
},
{
closed = 1;
nodes = (
(367,622,o),
(368,622,o),
(368,622,cs),
(520,622,o),
(640,502,o),
(640,350,c),
(718,351,l),
(718,546,o),
(563,700,o),
(368,700,cs),
(368,700,o),
(367,700,o),
(367,700,cs),
(367,622,ls)
);
},
{
closed = 1;
nodes = (
(270,2,l),
(435,-163,l),
(490,-108,l),
(325,57,l)
);
}
);
width = 790;
}
);
},
{
glyphname = "bha_iMatra-oriya";
layers = (
{
anchors = (
{
name = am;
pos = (700,659);
},
{
name = below;
pos = (516,-20);
},
{
name = bindu;
pos = (371,-96);
},
{
name = bottom;
pos = (633,17);
},
{
name = bottomtwo;
pos = (362,-258);
},
{
name = chanBin;
pos = (568,702);
},
{
name = nukta;
pos = (371,-50);
},
{
name = reph2;
pos = (633,4);
},
{
name = ru;
pos = (371,-7);
},
{
name = top;
pos = (371,754);
}
);
layerId = m01;
shapes = (
{
closed = 1;
nodes = (
(549,344,l),
(549,344,o),
(548,319,o),
(548,285,c),
(544,261,o),
(505,241,o),
(482,241,cs),
(455,242,o),
(415,262,o),
(416,289,c),
(414,313,o),
(418,353,o),
(417,390,c),
(337,390,ls),
(260,386,o),
(195,339,o),
(167,272,c),
(153,284,o),
(143,300,o),
(136,319,cs),
(113,380,o),
(144,446,o),
(205,468,cs),
(248,484,o),
(293,474,o),
(324,445,c),
(376,503,l),
(324,550,o),
(248,567,o),
(178,541,cs),
(77,505,o),
(25,393,o),
(62,292,cs),
(79,245,o),
(111,210,o),
(151,188,c),
(155,84,o),
(241,8,o),
(346,1,cs),
(493,-9,o),
(581,80,o),
(613,187,cs),
(620,210,o),
(623,245,o),
(625,277,c),
(626,280,o),
(626,284,o),
(626,288,cs),
(626,291,ls),
(627,326,o),
(627,354,o),
(627,354,c),
(626,354,l),
(626,390,l),
(549,390,l)
);
},
{
closed = 1;
nodes = (
(229,257,o),
(276,307,o),
(337,312,c),
(337,288,ls),
(337,220,o),
(412,164,o),
(481,163,cs),
(502,163,o),
(523,168,o),
(543,177,c),
(525,120,o),
(449,70,o),
(346,79,cs),
(281,84,o),
(229,131,o),
(229,195,cs)
);
},
{
pos = (20,0);
ref = rightfull;
}
);
width = 868;
}
);
},
{
glyphname = "bha_uMatra-oriya";
layers = (
{
anchors = (
{
name = am;
pos = (680,659);
},
{
name = below;
pos = (496,-20);
},
{
name = bindu;
pos = (351,-96);
},
{
name = bottom;
pos = (613,17);
},
{
name = bottomtwo;
pos = (342,-258);
},
{
name = chanBin;
pos = (548,702);
},
{
name = nukta;
pos = (351,-50);
},
{
name = reph2;
pos = (613,4);
},
{
name = ru;
pos = (351,-7);
},
{
name = top;
pos = (351,754);
}
);
layerId = m01;
shapes = (
{
closed = 1;
nodes = (
(57,88,o),
(144,8,o),
(252,1,cs),
(399,-9,o),
(487,80,o),
(519,187,cs),
(526,210,o),
(529,244,o),
(531,275,c),
(532,279,o),
(532,283,o),
(532,287,cs),
(532,291,ls),
(532,326,o),
(533,354,o),
(533,354,c),
(532,354,l),
(532,389,l),
(455,389,l),
(455,344,l),
(455,344,o),
(454,318,o),
(454,284,c),
(450,260,o),
(411,240,o),
(388,240,cs),
(361,241,o),
(322,261,o),
(322,288,cs),
(322,312,o),
(323,352,o),
(323,389,c),
(244,390,l),
(243,390,ls),
(179,390,o),
(128,441,o),
(128,505,cs),
(128,541,o),
(144,574,o),
(170,595,cs),
(190,612,o),
(216,622,o),
(244,622,cs),
(392,622,l),
(392,700,l),
(244,700,ls),
(194,700,o),
(148,681,o),
(113,649,cs),
(74,613,o),
(50,562,o),
(50,505,cs),
(50,441,o),
(81,385,o),
(128,350,c),
(84,314,o),
(57,258,o),
(57,195,cs)
);
},
{
closed = 1;
nodes = (
(135,257,o),
(183,312,o),
(244,312,c),
(244,287,ls),
(244,219,o),
(318,163,o),
(387,162,cs),
(407,162,o),
(429,167,o),
(448,176,c),
(430,119,o),
(355,70,o),
(252,79,cs),
(187,84,o),
(135,131,o),
(135,195,cs)
);
},
{
pos = (-36,0);
ref = umatra.004;
}
);
width = 781;
}
);
},
{
glyphname = "bha_rVocalicMatra-oriya";
layers = (
{
anchors = (
{
name = am;
pos = (680,659);
},
{
name = below;
pos = (496,-20);
},
{
name = bindu;
pos = (351,-96);
},
{
name = bottom;
pos = (613,17);
},
{
name = bottomtwo;
pos = (715,-146);
},
{
name = chanBin;
pos = (548,702);
},
{
name = nukta;
pos = (351,-50);
},
{
name = reph2;
pos = (635,4);
},
{
name = ru;
pos = (351,-7);
},
{
name = top;
pos = (351,754);
}
);
layerId = m01;
shapes = (
{
closed = 1;
nodes = (
(57,88,o),
(144,8,o),
(252,1,cs),
(399,-9,o),
(487,80,o),
(519,187,cs),
(526,210,o),
(529,244,o),
(531,275,c),
(532,279,o),
(532,283,o),
(532,287,cs),
(532,291,ls),
(532,326,o),
(533,354,o),
(533,354,c),
(532,354,l),
(532,389,l),
(455,389,l),
(455,344,l),
(455,344,o),
(454,318,o),
(454,284,c),
(450,260,o),
(411,240,o),
(388,240,cs),
(361,241,o),
(322,261,o),
(322,288,cs),
(322,312,o),
(323,352,o),
(323,389,c),
(244,390,l),
(243,390,ls),
(179,391,o),
(128,441,o),
(128,505,cs),
(128,541,o),
(144,574,o),
(170,595,cs),
(190,612,o),
(216,622,o),
(244,622,cs),
(392,622,l),
(392,700,l),
(244,700,ls),
(194,700,o),
(148,681,o),
(113,649,cs),
(74,613,o),
(50,562,o),
(50,505,cs),
(50,441,o),
(81,385,o),
(128,350,c),
(84,314,o),
(57,258,o),
(57,195,cs)
);
},
{
closed = 1;
nodes = (
(135,257,o),
(183,312,o),
(244,312,c),
(244,287,ls),
(244,219,o),
(318,163,o),
(387,162,cs),
(407,162,o),
(429,167,o),
(448,176,c),
(430,119,o),
(355,70,o),
(252,79,cs),
(187,84,o),
(135,131,o),
(135,195,cs)
);
},
{
closed = 1;
nodes = (
(548,-9,o),
(548,-8,o),
(547,-9,cs),
(489,-85,o),
(404,-141,o),
(419,-250,cs),
(434,-356,o),
(486,-400,o),
(568,-400,cs),
(650,-400,o),
(717,-333,o),
(717,-251,cs),
(717,-251,o),
(717,-250,o),
(717,-250,c),
(639,-250,l),
(639,-250,o),
(639,-251,o),
(639,-251,cs),
(639,-290,o),
(607,-322,o),
(568,-322,cs),
(529,-322,o),
(500,-281,o),
(497,-242,cs),
(490,-136,o),
(580,-117,o),
(637,-9,cs),
(638,-8,o),
(638,-9,o),
(639,-9,c),
(549,-9,l)
);
},
{
closed = 1;
nodes = (
(605,-190,l),
(626,-200,o),
(639,-219,o),
(639,-251,cs),
(639,-266,o),
(639,-251,o),
(639,-251,c),
(717,-251,l),
(717,-251,o),
(717,-309,o),
(717,-251,cs),
(717,-194,o),
(692,-154,o),
(653,-130,c)
);
},
{
closed = 1;
nodes = (
(637,-9,l),
(723,143,o),
(723,312,o),
(707,411,cs),
(707,411,o),
(707,412,o),
(707,412,cs),
(629,412,ls),
(629,412,o),
(629,411,o),
(629,411,cs),
(644,323,o),
(649,142,o),
(547,-9,c)
);
},
{
closed = 1;
nodes = (
(362,622,o),
(363,622,o),
(363,622,cs),
(515,622,o),
(635,502,o),
(635,350,c),
(713,351,l),
(713,546,o),
(558,700,o),
(363,700,cs),
(363,700,o),
(362,700,o),
(362,700,cs),
(362,622,ls)
);
}
);
width = 767;
}
);
},
{
glyphname = "ra_aaMatra-oriya";
layers = (
{
anchors = (
{
name = am;
pos = (680,659);
},
{
name = below;
pos = (496,-20);
},
{
name = bindu;
pos = (351,-96);
},
{
name = bottom;
pos = (613,17);
},
{
name = bottomtwo;
pos = (715,-146);
},
{
name = chanBin;
pos = (548,702);
},
{
name = nukta;
pos = (351,-50);
},
{
name = reph2;
pos = (575,4);
},
{
name = ru;
pos = (351,-7);
},
{
name = top;
pos = (351,754);
}
);
layerId = m01;
shapes = (
{
closed = 1;
nodes = (
(200,23,l),
(365,-142,l),
(420,-87,l),
(255,78,l)
);
},
{
closed = 1;
nodes = (
(352,0,o),
(439,87,o),
(439,194,cs),
(439,302,o),
(352,389,o),
(244,389,cs),
(137,389,o),
(50,302,o),
(50,194,cs),
(50,87,o),
(137,0,o),
(244,0,cs)
);
},
{
closed = 1;
nodes = (
(180,78,o),
(128,130,o),
(128,194,cs),
(128,259,o),
(180,311,o),
(244,311,cs),
(309,311,o),
(361,259,o),
(361,194,cs),
(361,130,o),
(309,78,o),
(244,78,cs)
);
},
{
closed = 1;
nodes = (
(327,700,l),
(327,700,o),
(277,700,o),
(277,700,cs),
(277,700,o),
(268,700,o),
(244,700,cs),
(137,700,o),
(50,613,o),
(50,505,cs),
(50,398,o),
(137,311,o),
(244,311,cs),
(352,311,o),
(245,311,o),
(245,311,c),
(245,389,l),
(245,389,o),
(309,389,o),
(244,389,cs),
(180,389,o),
(128,441,o),
(128,505,cs),
(128,570,o),
(180,622,o),
(244,622,cs),
(309,622,o),
(277,622,o),
(277,622,cs),
(277,622,o),
(327,622,o),
(327,622,c)
);
},
{
pos = (550,0);
ref = "aaMatra-oriya";
},
{
pos = (-107,0);
ref = topright;
}
);
width = 728;
}
);
},
{
glyphname = "ra_iiMatra-oriya";
layers = (
{
anchors = (
{
name = am;
pos = (680,659);
},
{
name = below;
pos = (496,-20);
},
{
name = bindu;
pos = (351,-96);
},
{
name = bottom;
pos = (613,17);
},
{
name = bottomtwo;
pos = (715,-146);
},
{
name = chanBin;
pos = (548,702);
},
{
name = nukta;
pos = (351,-50);
},
{
name = reph2;
pos = (575,4);
},
{
name = ru;
pos = (351,-7);
},
{
name = top;
pos = (351,754);
}
);
layerId = m01;
shapes = (
{
closed = 1;
nodes = (
(352,0,o),
(439,87,o),
(439,194,cs),
(439,302,o),
(352,389,o),
(244,389,cs),
(137,389,o),
(50,302,o),
(50,194,cs),
(50,87,o),
(137,0,o),
(244,0,cs)
);
},
{
closed = 1;
nodes = (
(180,78,o),
(128,130,o),
(128,194,cs),
(128,259,o),
(180,311,o),
(244,311,cs),
(309,311,o),
(361,259,o),
(361,194,cs),
(361,130,o),
(309,78,o),
(244,78,cs)
);
},
{
closed = 1;
nodes = (
(327,700,l),
(327,700,o),
(277,700,o),
(277,700,cs),
(277,700,o),
(268,700,o),
(244,700,cs),
(137,700,o),
(50,613,o),
(50,505,cs),
(50,398,o),
(137,311,o),
(244,311,cs),
(352,311,o),
(245,311,o),
(245,311,c),
(245,389,l),
(245,389,o),
(309,389,o),
(244,389,cs),
(180,389,o),
(128,441,o),
(128,505,cs),
(128,570,o),
(180,622,o),
(244,622,cs),
(309,622,o),
(277,622,o),
(277,622,cs),
(277,622,o),
(327,622,o),
(327,622,c)
);
},
{
pos = (566,0);
ref = "iiMatra-oriya";
},
{
pos = (-140,0);
ref = topright;
},
{
closed = 1;
nodes = (
(210,2,l),
(375,-163,l),
(430,-108,l),
(265,57,l)
);
}
);
width = 881;
}
);
},
{
glyphname = "ra_oMatra-oriya";
layers = (
{
anchors = (
{
name = am;
pos = (1320,659);
},
{
name = below;
pos = (1136,-20);
},
{
name = bindu;
pos = (991,-96);
},
{
name = bottom;
pos = (1253,17);
},
{
name = bottomtwo;
pos = (982,-258);
},
{
name = chanBin;
pos = (1188,702);
},
{
name = nukta;
pos = (991,-50);
},
{
name = reph2;
pos = (1253,4);
},
{
name = ru;
pos = (991,-7);
},
{
name = top;
pos = (991,754);
}
);
layerId = m01;
shapes = (
{
pos = (20,0);
ref = "eMatra-oriya";
},
{
closed = 1;
nodes = (
(972,0,o),
(1059,87,o),
(1059,194,cs),
(1059,302,o),
(972,389,o),
(864,389,cs),
(757,389,o),
(670,302,o),
(670,194,cs),
(670,87,o),
(757,0,o),
(864,0,cs)
);
},
{
closed = 1;
nodes = (
(800,78,o),
(748,130,o),
(748,194,cs),
(748,259,o),
(800,311,o),
(864,311,cs),
(929,311,o),
(981,259,o),
(981,194,cs),
(981,130,o),
(929,78,o),
(864,78,cs)
);
},
{
closed = 1;
nodes = (
(947,700,l),
(947,700,o),
(897,700,o),
(897,700,cs),
(897,700,o),
(888,700,o),
(864,700,cs),
(757,700,o),
(670,613,o),
(670,505,cs),
(670,398,o),
(757,311,o),
(864,311,cs),
(972,311,o),
(865,311,o),
(865,311,c),
(865,389,l),
(865,389,o),
(929,389,o),
(864,389,cs),
(800,389,o),
(748,441,o),
(748,505,cs),
(748,570,o),
(800,622,o),
(864,622,cs),
(929,622,o),
(897,622,o),
(897,622,cs),
(897,622,o),
(947,622,o),
(947,622,c)
);
},
{
pos = (1171,0);
ref = "aaMatra-oriya";
},
{
pos = (513,0);
ref = topright;
},
{
closed = 1;
nodes = (
(820,2,l),
(985,-163,l),
(1040,-108,l),
(875,57,l)
);
}
);
width = 1348;
}
);
},
{
glyphname = "ra_iMatra-oriya";
layers = (
{
anchors = (
{
name = am;
pos = (780,659);
},
{
name = below;
pos = (596,-20);
},
{
name = bindu;
pos = (451,-96);
},
{
name = bottom;
pos = (713,17);
},
{
name = bottomtwo;
pos = (815,-146);
},
{
name = chanBin;
pos = (648,702);
},
{
name = nukta;
pos = (451,-50);
},
{
name = reph2;
pos = (675,4);
},
{
name = ru;
pos = (451,-7);
},
{
name = top;
pos = (451,754);
}
);
layerId = m01;
shapes = (
{
closed = 1;
nodes = (
(452,0,o),
(539,87,o),
(539,194,cs),
(539,302,o),
(452,389,o),
(344,389,cs),
(237,389,o),
(150,302,o),
(150,194,cs),
(150,87,o),
(237,0,o),
(344,0,cs)
);
},
{
closed = 1;
nodes = (
(280,78,o),
(228,130,o),
(228,194,cs),
(228,259,o),
(280,311,o),
(344,311,cs),
(409,311,o),
(461,259,o),
(461,194,cs),
(461,130,o),
(409,78,o),
(344,78,cs)
);
},
{
pos = (-10,0);
ref = right;
},
{
closed = 1;
nodes = (
(210,487,l),
(209,493,o),
(209,499,o),
(209,505,cs),
(209,570,o),
(261,622,o),
(325,622,cs),
(390,622,o),
(452,622,o),
(452,622,cs),
(452,622,o),
(445,622,o),
(445,622,c),
(445,700,l),
(445,700,o),
(452,700,o),
(452,700,cs),
(452,700,o),
(443,700,o),
(325,700,cs),
(218,700,o),
(131,613,o),
(131,505,cs),
(131,479,o),
(126,415,o),
(145,431,cs)
);
},
{
closed = 1;
nodes = (
(376,503,l),
(324,550,o),
(248,567,o),
(178,541,cs),
(77,505,o),
(25,393,o),
(62,292,cs),
(83,235,o),
(126,195,o),
(178,175,c),
(213,247,l),
(178,256,o),
(149,282,o),
(136,319,cs),
(113,380,o),
(144,446,o),
(205,468,cs),
(248,484,o),
(293,474,o),
(324,445,c)
);
}
);
width = 825;
}
);
},
{
glyphname = "ra_uMatra-oriya";
layers = (
{
anchors = (
{
name = am;
pos = (680,659);
},
{
name = below;
pos = (496,-20);
},
{
name = bindu;
pos = (351,-96);
},
{
name = bottom;
pos = (613,17);
},
{
name = bottomtwo;
pos = (715,-146);
},
{
name = chanBin;
pos = (548,702);
},
{
name = nukta;
pos = (351,-50);
},
{
name = reph2;
pos = (575,4);
},
{
name = ru;
pos = (351,-7);
},
{
name = top;
pos = (351,754);
}
);
layerId = m01;
shapes = (
{
closed = 1;
nodes = (
(352,0,o),
(439,87,o),
(439,194,cs),
(439,302,o),
(352,389,o),
(244,389,cs),
(137,389,o),
(50,302,o),
(50,194,cs),
(50,87,o),
(137,0,o),
(244,0,cs)
);
},
{
closed = 1;
nodes = (
(180,78,o),
(128,130,o),
(128,194,cs),
(128,259,o),
(180,311,o),
(244,311,cs),
(309,311,o),
(361,259,o),
(361,194,cs),
(361,130,o),
(309,78,o),
(244,78,cs)
);
},
{
closed = 1;
nodes = (
(327,700,l),
(327,700,o),
(277,700,o),
(277,700,cs),
(277,700,o),
(268,700,o),
(244,700,cs),
(137,700,o),
(50,613,o),
(50,505,cs),
(50,398,o),
(137,311,o),
(244,311,cs),
(352,311,o),
(245,311,o),
(245,311,c),
(245,389,l),
(245,389,o),
(309,389,o),
(244,389,cs),
(180,389,o),
(128,441,o),
(128,505,cs),
(128,570,o),
(180,622,o),
(244,622,cs),
(309,622,o),
(277,622,o),
(277,622,cs),
(277,622,o),
(327,622,o),
(327,622,c)
);
},
{
pos = (-91,0);
ref = umatra.004;
}
);
width = 738;
}
);
},
{
glyphname = "la_aaMatra-oriya";
layers = (
{
anchors = (
{
name = am;
pos = (680,659);
},
{
name = below;
pos = (496,-20);
},
{
name = bindu;
pos = (351,-96);
},
{
name = bottom;
pos = (613,17);
},
{
name = bottomtwo;
pos = (715,-146);
},
{
name = chanBin;
pos = (548,702);
},
{
name = nukta;
pos = (351,-50);
},
{
name = reph2;
pos = (685,4);
},
{
name = ru;
pos = (351,-7);
},
{
name = top;
pos = (351,754);
}
);
hints = (
{
horizontal = 1;
place = (-700, 78);
place = (-700, 78);
type = Stem;
},
{
horizontal = 1;
place = (-389, 78);
place = (-389, 78);
type = Stem;
},
{
horizontal = 1;
place = (622, 78);
place = (622, 78);
type = Stem;
},
{
place = (-16, 46);
place = (-16, 46);
type = Stem;
},
{
place = (447, 50);
place = (447, 50);
type = Stem;
}
);
layerId = m01;
shapes = (
{
closed = 1;
nodes = (
(437,700,l),
(437,700,o),
(277,700,o),
(277,700,cs),
(277,700,o),
(268,700,o),
(244,700,cs),
(137,700,o),
(50,613,o),
(50,505,cs),
(50,398,o),
(137,311,o),
(244,311,cs),
(352,311,o),
(245,311,o),
(245,311,c),
(243,382,l),
(176,403,o),
(128,441,o),
(128,505,cs),
(128,570,o),
(180,622,o),
(244,622,cs),
(309,622,o),
(277,622,o),
(277,622,cs),
(277,622,o),
(437,622,o),
(437,622,c)
);
},
{
closed = 1;
nodes = (
(337,2,l),
(337,104,o),
(337,11,o),
(337,268,cs),
(337,337,o),
(272,393,o),
(194,393,c),
(115,392,o),
(50,336,o),
(50,268,cs),
(50,15,o),
(50,69,o),
(50,2,cs),
(50,2,o),
(50,2,o),
(50,2,c),
(128,2,l),
(128,2,o),
(128,2,o),
(128,2,cs),
(128,39,o),
(128,243,o),
(128,267,cs),
(128,284,o),
(146,315,o),
(195,315,c),
(240,315,o),
(259,283,o),
(259,268,cs),
(259,243,o),
(259,55,o),
(259,2,c)
);
},
{
closed = 1;
nodes = (
(546,2,l),
(546,104,o),
(546,11,o),
(546,268,cs),
(546,337,o),
(481,393,o),
(403,393,c),
(324,392,o),
(259,336,o),
(259,268,cs),
(259,15,o),
(259,69,o),
(259,2,cs),
(259,2,o),
(259,2,o),
(259,2,c),
(337,2,l),
(337,2,o),
(337,2,o),
(337,2,cs),
(337,39,o),
(337,243,o),
(337,267,cs),
(337,284,o),
(355,315,o),
(404,315,c),
(449,315,o),
(468,283,o),
(468,268,cs),
(468,243,o),
(468,55,o),
(468,2,c)
);
},
{
pos = (657,0);
ref = "aaMatra-oriya";
},
{
closed = 1;
nodes = (
(434,622,o),
(435,622,o),
(435,622,cs),
(587,622,o),
(707,502,o),
(707,350,c),
(785,351,l),
(785,546,o),
(630,700,o),
(435,700,cs),
(435,700,o),
(434,700,o),
(434,700,cs),
(434,622,ls)
);
},
{
closed = 1;
nodes = (
(260,2,l),
(425,-163,l),
(480,-108,l),
(315,57,l)
);
}
);
width = 849;
}
);
},
{
glyphname = "la_iiMatra-oriya";
layers = (
{
anchors = (
{
name = am;
pos = (680,659);
},
{
name = below;
pos = (496,-20);
},
{
name = bindu;
pos = (351,-96);
},
{
name = bottom;
pos = (613,17);
},
{
name = bottomtwo;
pos = (715,-146);
},
{
name = chanBin;
pos = (548,702);
},
{
name = nukta;
pos = (351,-50);
},
{
name = reph2;
pos = (685,4);
},
{
name = ru;
pos = (351,-7);
},
{
name = top;
pos = (351,754);
}
);
hints = (
{
horizontal = 1;
place = (-700, 78);
place = (-700, 78);
type = Stem;
},
{
horizontal = 1;
place = (-389, 78);
place = (-389, 78);
type = Stem;
},
{
horizontal = 1;
place = (622, 78);
place = (622, 78);
type = Stem;
},
{
place = (-16, 46);
place = (-16, 46);
type = Stem;
},
{
place = (447, 50);
place = (447, 50);
type = Stem;
}
);
layerId = m01;
shapes = (
{
closed = 1;
nodes = (
(387,700,l),
(387,700,o),
(277,700,o),
(277,700,cs),
(277,700,o),
(268,700,o),
(244,700,cs),
(137,700,o),
(50,613,o),
(50,505,cs),
(50,398,o),
(137,311,o),
(244,311,cs),
(352,311,o),
(245,311,o),
(245,311,c),
(243,382,l),
(176,403,o),
(128,441,o),
(128,505,cs),
(128,570,o),
(180,622,o),
(244,622,cs),
(309,622,o),
(277,622,o),
(277,622,cs),
(277,622,o),
(387,622,o),
(387,622,c)
);
},
{
closed = 1;
nodes = (
(337,2,l),
(337,104,o),
(337,11,o),
(337,268,cs),
(337,337,o),
(272,393,o),
(194,393,c),
(115,392,o),
(50,336,o),
(50,268,cs),
(50,15,o),
(50,69,o),
(50,2,cs),
(50,2,o),
(50,2,o),
(50,2,c),
(128,2,l),
(128,2,o),
(128,2,o),
(128,2,cs),
(128,39,o),
(128,243,o),
(128,267,cs),
(128,284,o),
(146,315,o),
(195,315,c),
(240,315,o),
(259,283,o),
(259,268,cs),
(259,243,o),
(259,55,o),
(259,2,c)
);
},
{
closed = 1;
nodes = (
(546,2,l),
(546,104,o),
(546,11,o),
(546,268,cs),
(546,337,o),
(481,393,o),
(403,393,c),
(324,392,o),
(259,336,o),
(259,268,cs),
(259,15,o),
(259,69,o),
(259,2,cs),
(259,2,o),
(259,2,o),
(259,2,c),
(337,2,l),
(337,2,o),
(337,2,o),
(337,2,cs),
(337,39,o),
(337,243,o),
(337,267,cs),
(337,284,o),
(355,315,o),
(404,315,c),
(449,315,o),
(468,283,o),
(468,268,cs),
(468,243,o),
(468,55,o),
(468,2,c)
);
},
{
pos = (641,0);
ref = "iiMatra-oriya";
},
{
pos = (-60,0);
ref = topright;
},
{
closed = 1;
nodes = (
(260,2,l),
(425,-163,l),
(480,-108,l),
(315,57,l)
);
}
);
width = 961;
}
);
},
{
glyphname = "la_oMatra-oriya";
layers = (
{
anchors = (
{
name = am;
pos = (1310,659);
},
{
name = below;
pos = (1126,-20);
},
{
name = bindu;
pos = (981,-96);
},
{
name = bottom;
pos = (1243,17);
},
{
name = bottomtwo;
pos = (972,-258);
},
{
name = chanBin;
pos = (1178,702);
},
{
name = nukta;
pos = (981,-50);
},
{
name = reph2;
pos = (1243,4);
},
{
name = ru;
pos = (981,-7);
},
{
name = top;
pos = (981,754);
}
);
layerId = m01;
shapes = (
{
pos = (20,0);
ref = "eMatra-oriya";
},
{
closed = 1;
nodes = (
(1077,700,l),
(1077,700,o),
(917,700,o),
(917,700,cs),
(917,700,o),
(908,700,o),
(884,700,cs),
(777,700,o),
(690,613,o),
(690,505,cs),
(690,398,o),
(777,311,o),
(884,311,cs),
(992,311,o),
(885,311,o),
(885,311,c),
(883,382,l),
(816,403,o),
(768,441,o),
(768,505,cs),
(768,570,o),
(820,622,o),
(884,622,cs),
(949,622,o),
(917,622,o),
(917,622,cs),
(917,622,o),
(1077,622,o),
(1077,622,c)
);
},
{
closed = 1;
nodes = (
(977,2,l),
(977,104,o),
(977,11,o),
(977,268,cs),
(977,337,o),
(912,393,o),
(834,393,c),
(755,392,o),
(690,336,o),
(690,268,cs),
(690,15,o),
(690,69,o),
(690,2,cs),
(690,2,o),
(690,2,o),
(690,2,c),
(768,2,l),
(768,2,o),
(768,2,o),
(768,2,cs),
(768,39,o),
(768,243,o),
(768,267,cs),
(768,284,o),
(786,315,o),
(835,315,c),
(880,315,o),
(899,283,o),
(899,268,cs),
(899,243,o),
(899,55,o),
(899,2,c)
);
},
{
closed = 1;
nodes = (
(1186,2,l),
(1186,104,o),
(1186,11,o),
(1186,268,cs),
(1186,337,o),
(1121,393,o),
(1043,393,c),
(964,392,o),
(899,336,o),
(899,268,cs),
(899,15,o),
(899,69,o),
(899,2,cs),
(899,2,o),
(899,2,o),
(899,2,c),
(977,2,l),
(977,2,o),
(977,2,o),
(977,2,cs),
(977,39,o),
(977,243,o),
(977,267,cs),
(977,284,o),
(995,315,o),
(1044,315,c),
(1089,315,o),
(1108,283,o),
(1108,268,cs),
(1108,243,o),
(1108,55,o),
(1108,2,c)
);
},
{
pos = (1297,0);
ref = "aaMatra-oriya";
},
{
closed = 1;
nodes = (
(1074,622,o),
(1075,622,o),
(1075,622,cs),
(1227,622,o),
(1347,502,o),
(1347,350,c),
(1425,351,l),
(1425,546,o),
(1270,700,o),
(1075,700,cs),
(1075,700,o),
(1074,700,o),
(1074,700,cs),
(1074,622,ls)
);
},
{
closed = 1;
nodes = (
(900,2,l),
(1065,-163,l),
(1120,-108,l),
(955,57,l)
);
}
);
width = 1494;
}
);
},
{
glyphname = "la_iMatra-oriya";
layers = (
{
anchors = (
{
name = am;
pos = (780,659);
},
{
name = below;
pos = (596,-20);
},
{
name = bindu;
pos = (451,-96);
},
{
name = bottom;
pos = (713,17);
},
{
name = bottomtwo;
pos = (815,-146);
},
{
name = chanBin;
pos = (648,702);
},
{
name = nukta;
pos = (451,-50);
},
{
name = reph2;
pos = (785,4);
},
{
name = ru;
pos = (451,-7);
},
{
name = top;
pos = (451,754);
}
);
hints = (
{
horizontal = 1;
place = (-700, 78);
place = (-700, 78);
type = Stem;
},
{
horizontal = 1;
place = (-389, 78);
place = (-389, 78);
type = Stem;
},
{
horizontal = 1;
place = (622, 78);
place = (622, 78);
type = Stem;
},
{
place = (-16, 46);
place = (-16, 46);
type = Stem;
},
{
place = (447, 50);
place = (447, 50);
type = Stem;
}
);
layerId = m01;
shapes = (
{
closed = 1;
nodes = (
(437,2,l),
(437,104,o),
(437,11,o),
(437,268,cs),
(437,337,o),
(372,393,o),
(294,393,c),
(215,392,o),
(150,336,o),
(150,268,cs),
(150,15,o),
(150,69,o),
(150,2,cs),
(150,2,o),
(150,2,o),
(150,2,c),
(228,2,l),
(228,2,o),
(228,2,o),
(228,2,cs),
(228,39,o),
(228,243,o),
(228,267,cs),
(228,284,o),
(246,315,o),
(295,315,c),
(340,315,o),
(359,283,o),
(359,268,cs),
(359,243,o),
(359,55,o),
(359,2,c)
);
},
{
closed = 1;
nodes = (
(646,2,l),
(646,104,o),
(646,11,o),
(646,268,cs),
(646,337,o),
(581,393,o),
(503,393,c),
(424,392,o),
(359,336,o),
(359,268,cs),
(359,15,o),
(359,69,o),
(359,2,cs),
(359,2,o),
(359,2,o),
(359,2,c),
(437,2,l),
(437,2,o),
(437,2,o),
(437,2,cs),
(437,39,o),
(437,243,o),
(437,267,cs),
(437,284,o),
(455,315,o),
(504,315,c),
(549,315,o),
(568,283,o),
(568,268,cs),
(568,243,o),
(568,55,o),
(568,2,c)
);
},
{
pos = (140,0);
ref = right;
},
{
closed = 1;
nodes = (
(210,487,l),
(209,493,o),
(209,499,o),
(209,505,cs),
(209,570,o),
(261,622,o),
(325,622,cs),
(390,622,o),
(602,622,o),
(602,622,cs),
(602,622,o),
(595,622,o),
(595,622,c),
(595,700,l),
(595,700,o),
(602,700,o),
(602,700,cs),
(602,700,o),
(593,700,o),
(325,700,cs),
(218,700,o),
(131,613,o),
(131,505,cs),
(131,479,o),
(126,415,o),
(145,431,cs)
);
},
{
closed = 1;
nodes = (
(376,503,l),
(324,550,o),
(248,567,o),
(178,541,cs),
(77,505,o),
(25,393,o),
(62,292,cs),
(83,235,o),
(126,195,o),
(178,175,c),
(213,247,l),
(178,256,o),
(149,282,o),
(136,319,cs),
(113,380,o),
(144,446,o),
(205,468,cs),
(248,484,o),
(293,474,o),
(324,445,c)
);
}
);
width = 975;
}
);
},
{
glyphname = "lla_iMatra-oriya";
layers = (
{
anchors = (
{
name = am;
pos = (649,659);
},
{
name = below;
pos = (465,-20);
},
{
name = bindu;
pos = (320,-96);
},
{
name = bottom;
pos = (542,19);
},
{
name = bottomtwo;
pos = (684,-146);
},
{
name = chanBin;
pos = (517,702);
},
{
name = nukta;
pos = (320,-50);
},
{
name = reph2;
pos = (544,4);
},
{
name = ru;
pos = (320,-7);
},
{
name = top;
pos = (320,754);
}
);
layerId = m01;
shapes = (
{
closed = 1;
nodes = (
(371,2,l),
(372,104,o),
(371,11,o),
(371,264,cs),
(371,333,o),
(294,389,o),
(226,389,c),
(157,388,o),
(82,332,o),
(82,264,cs),
(82,15,o),
(81,69,o),
(82,2,cs),
(82,2,o),
(82,2,o),
(82,2,c),
(162,2,l),
(162,2,o),
(162,2,o),
(162,2,cs),
(163,39,o),
(159,239,o),
(161,263,cs),
(160,290,o),
(200,310,o),
(227,311,cs),
(251,311,o),
(293,289,o),
(293,264,cs),
(293,239,o),
(295,55,o),
(294,2,c)
);
},
{
closed = 1;
nodes = (
(578,2,l),
(579,104,o),
(578,11,o),
(578,264,cs),
(578,333,o),
(501,389,o),
(433,389,c),
(364,388,o),
(289,332,o),
(289,264,cs),
(289,15,o),
(288,69,o),
(289,2,cs),
(289,2,o),
(289,2,o),
(289,2,c),
(369,2,l),
(369,2,o),
(369,2,o),
(369,2,cs),
(370,39,o),
(366,239,o),
(368,263,cs),
(367,290,o),
(407,310,o),
(434,311,cs),
(458,311,o),
(500,289,o),
(500,264,cs),
(500,239,o),
(502,55,o),
(501,2,c)
);
},
{
closed = 1;
nodes = (
(140,279,l),
(130,290,o),
(121,304,o),
(116,319,cs),
(93,380,o),
(124,446,o),
(185,468,cs),
(228,484,o),
(273,474,o),
(304,445,c),
(356,503,l),
(304,550,o),
(228,567,o),
(158,541,cs),
(57,505,o),
(5,393,o),
(42,292,cs),
(59,247,o),
(89,212,o),
(127,190,c)
);
},
{
closed = 1;
nodes = (
(328,699,l),
(272,700,o),
(217,676,o),
(178,630,cs),
(140,583,o),
(126,526,o),
(135,471,c),
(215,477,l),
(205,511,o),
(214,548,o),
(240,578,c),
(263,607,o),
(296,621,o),
(329,621,c)
);
},
{
closed = 1;
nodes = (
(328,621,l),
(329,621,o),
(329,621,o),
(329,621,cs),
(458,621,o),
(562,517,o),
(563,389,c),
(641,389,l),
(640,560,o),
(501,699,o),
(329,699,cs),
(329,699,o),
(329,699,o),
(328,699,c)
);
}
);
width = 681;
}
);
},
{
glyphname = "rra_iMatra-oriya";
layers = (
{
layerId = m01;
shapes = (
{
closed = 1;
nodes = (
(399,324,l),
(423,313,o),
(444,294,o),
(456,267,cs),
(483,209,o),
(439,116,o),
(380,89,cs),
(322,62,o),
(253,87,o),
(226,145,cs),
(198,203,o),
(223,272,o),
(281,299,c),
(248,370,l),
(151,325,o),
(110,209,o),
(155,112,cs),
(200,15,o),
(316,-27,o),
(413,18,cs),
(511,64,o),
(553,179,o),
(508,276,cs),
(487,320,o),
(453,352,o),
(413,371,c)
);
},
{
closed = 1;
nodes = (
(431,389,l),
(431,389,o),
(431,389,o),
(431,389,cs),
(362,320,o),
(343,300,o),
(308,265,c),
(363,210,l),
(391,238,o),
(448,296,o),
(486,334,cs),
(486,334,o),
(486,334,o),
(486,334,c)
);
},
{
closed = 1;
nodes = (
(285,-160,o),
(256,-131,o),
(256,-96,cs),
(256,-60,o),
(285,-31,o),
(320,-31,cs),
(356,-31,o),
(385,-60,o),
(385,-96,cs),
(385,-131,o),
(356,-160,o),
(320,-160,c)
);
},
{
closed = 1;
nodes = (
(356,503,l),
(304,550,o),
(228,567,o),
(158,541,cs),
(57,505,o),
(5,393,o),
(42,292,cs),
(63,235,o),
(106,195,o),
(158,175,c),
(193,247,l),
(158,256,o),
(129,282,o),
(116,319,cs),
(93,380,o),
(124,446,o),
(185,468,cs),
(228,484,o),
(273,474,o),
(304,445,c)
);
},
{
closed = 1;
nodes = (
(328,699,l),
(272,700,o),
(217,676,o),
(178,630,cs),
(140,583,o),
(126,526,o),
(135,471,c),
(215,477,l),
(205,511,o),
(214,548,o),
(240,578,c),
(263,607,o),
(296,621,o),
(329,621,c)
);
},
{
closed = 1;
nodes = (
(328,621,l),
(329,621,o),
(329,621,o),
(329,621,cs),
(458,621,o),
(562,517,o),
(563,389,c),
(641,389,l),
(640,560,o),
(501,699,o),
(329,699,cs),
(329,699,o),
(329,699,o),
(328,699,c)
);
}
);
width = 691;
}
);
},
{
glyphname = "bha_uMatra-oriya.001";
layers = (
{
anchors = (
{
name = am;
pos = (680,659);
},
{
name = below;
pos = (496,-20);
},
{
name = bindu;
pos = (351,-96);
},
{
name = bottom;
pos = (613,17);
},
{
name = bottomtwo;
pos = (342,-258);
},
{
name = chanBin;
pos = (548,702);
},
{
name = nukta;
pos = (351,-50);
},
{
name = reph2;
pos = (613,4);
},
{
name = ru;
pos = (351,-7);
},
{
name = top;
pos = (351,754);
}
);
layerId = m01;
shapes = (
{
closed = 1;
nodes = (
(57,88,o),
(144,8,o),
(252,1,cs),
(399,-9,o),
(487,80,o),
(519,187,cs),
(526,210,o),
(529,244,o),
(531,275,c),
(532,279,o),
(532,283,o),
(532,287,cs),
(532,291,ls),
(532,326,o),
(533,354,o),
(533,354,c),
(532,354,l),
(532,389,l),
(455,389,l),
(455,344,l),
(455,344,o),
(454,318,o),
(454,284,c),
(450,260,o),
(411,240,o),
(388,240,cs),
(361,241,o),
(322,261,o),
(322,288,cs),
(322,312,o),
(323,352,o),
(323,389,c),
(244,390,l),
(243,390,ls),
(179,390,o),
(128,441,o),
(128,505,cs),
(128,541,o),
(144,574,o),
(170,595,cs),
(190,612,o),
(216,622,o),
(244,622,cs),
(392,622,l),
(392,700,l),
(244,700,ls),
(194,700,o),
(148,681,o),
(113,649,cs),
(74,613,o),
(50,562,o),
(50,505,cs),
(50,441,o),
(81,385,o),
(128,350,c),
(84,314,o),
(57,258,o),
(57,195,cs)
);
},
{
closed = 1;
nodes = (
(135,257,o),
(183,312,o),
(244,312,c),
(244,287,ls),
(244,219,o),
(318,163,o),
(387,162,cs),
(407,162,o),
(429,167,o),
(448,176,c),
(430,119,o),
(355,70,o),
(252,79,cs),
(187,84,o),
(135,131,o),
(135,195,cs)
);
},
{
closed = 1;
nodes = (
(779,-149,l),
(692,91,o),
(481,61,o),
(481,61,c),
(481,35,o),
(481,11,o),
(481,-15,c),
(481,-15,o),
(642,26,o),
(729,-205,c)
);
},
{
closed = 1;
nodes = (
(481,61,l),
(481,61,o),
(481,61,o),
(481,61,cs),
(394,46,o),
(362,5,o),
(377,-52,cs),
(398,-133,o),
(505,-108,o),
(516,-103,c),
(497,-32,l),
(471,-46,o),
(435,-30,o),
(481,-15,cs),
(481,-15,o),
(481,-15,o),
(481,-15,c)
);
},
{
closed = 1;
nodes = (
(389,622,o),
(390,622,o),
(390,622,cs),
(542,622,o),
(662,502,o),
(662,350,c),
(740,350,l),
(740,545,o),
(585,700,o),
(390,700,cs),
(390,700,o),
(389,700,o),
(389,700,cs),
(389,622,ls)
);
},
{
closed = 1;
nodes = (
(662,350,l),
(671,181,o),
(609,-6,o),
(497,-32,c),
(516,-103,l),
(674,-55,o),
(751,159,o),
(740,350,c)
);
}
);
width = 829;
}
);
},
{
glyphname = "a-oriya";
layers = (
{
anchors = (
{
name = chanBin;
pos = (548,702);
}
);
layerId = m01;
shapes = (
{
closed = 1;
nodes = (
(337,79,o),
(361,79,o),
(361,79,cs),
(361,79,o),
(309,79,o),
(244,79,cs),
(180,79,o),
(128,131,o),
(128,196,cs),
(128,260,o),
(180,312,o),
(244,312,cs),
(309,312,o),
(327,312,o),
(327,312,c),
(327,390,l),
(327,390,o),
(352,390,o),
(244,390,cs),
(137,390,o),
(50,303,o),
(50,196,cs),
(50,88,o),
(137,1,o),
(244,1,cs),
(352,1,o),
(361,1,o),
(361,1,cs),
(361,1,o),
(337,1,o),
(337,1,c),
(337,79,l)
);
},
{
closed = 1;
nodes = (
(469,496,l),
(470,412,o),
(387,390,o),
(382,390,cs),
(357,390,o),
(311,390,o),
(258,390,c),
(258,312,l),
(360,311,o),
(227,312,o),
(382,312,cs),
(431,312,o),
(546,368,o),
(547,496,c)
);
},
{
closed = 1;
nodes = (
(679,0,l),
(679,700,l),
(601,700,l),
(601,0,l)
);
},
{
closed = 1;
nodes = (
(338,439,l),
(338,541,o),
(338,448,o),
(338,575,cs),
(338,644,o),
(273,700,o),
(195,700,c),
(116,699,o),
(51,643,o),
(51,575,cs),
(51,452,o),
(51,506,o),
(51,439,cs),
(51,439,o),
(51,439,o),
(51,439,c),
(129,439,l),
(129,439,o),
(129,439,o),
(129,439,cs),
(129,476,o),
(129,550,o),
(129,574,cs),
(129,591,o),
(147,622,o),
(196,622,c),
(241,622,o),
(260,590,o),
(260,575,cs),
(260,550,o),
(260,492,o),
(260,439,c)
);
},
{
closed = 1;
nodes = (
(547,493,l),
(547,595,o),
(547,358,o),
(547,575,cs),
(547,644,o),
(482,700,o),
(404,700,c),
(325,699,o),
(260,643,o),
(260,575,cs),
(260,452,o),
(260,506,o),
(260,439,cs),
(260,439,o),
(260,439,o),
(260,439,c),
(338,439,l),
(338,439,o),
(338,439,o),
(338,439,cs),
(338,476,o),
(338,550,o),
(338,574,cs),
(338,591,o),
(356,622,o),
(405,622,c),
(450,622,o),
(469,590,o),
(469,575,cs),
(469,550,o),
(469,546,o),
(469,493,c)
);
},
{
angle = -90;
pos = (-21,786);
ref = topright;
}
);
width = 729;
}
);
unicode = 2821;
},
{
glyphname = "i-oriya";
layers = (
{
anchors = (
{
name = chanBin;
pos = (548,702);
}
);
guides = (
{
angle = 45;
pos = (384,350);
},
{
angle = 90;
pos = (382,295);
},
{
pos = (833,352);
},
{
angle = 99.9811;
pos = (834,353);
}
);
layerId = m01;
shapes = (
{
closed = 1;
nodes = (
(437,700,l),
(244,700,ls),
(137,700,o),
(50,613,o),
(50,505,cs),
(50,398,o),
(137,311,o),
(244,311,cs),
(245,311,l),
(243,382,l),
(176,403,o),
(128,441,o),
(128,505,cs),
(128,570,o),
(180,622,o),
(244,622,cs),
(437,622,l)
);
},
{
ref = right;
},
{
pos = (-64,0);
ref = circles.oriya;
}
);
width = 815;
}
);
unicode = 2823;
},
{
glyphname = "ii-oriya";
layers = (
{
anchors = (
{
name = chanBin;
pos = (748,702);
}
);
layerId = m01;
shapes = (
{
closed = 1;
nodes = (
(259,503,l),
(259,505,ls),
(259,570,o),
(311,622,o),
(375,622,cs),
(578,622,l),
(578,700,l),
(568,700,l),
(375,700,ls),
(268,700,o),
(181,613,o),
(181,505,cs),
(181,499,o),
(181,493,o),
(182,487,c)
);
},
{
pos = (52,0);
ref = circles.oriya;
},
{
pos = (50,0);
ref = matrai;
},
{
pos = (140,0);
ref = right;
}
);
width = 975;
}
);
unicode = 2824;
},
{
glyphname = "u-oriya";
layers = (
{
anchors = (
{
name = chanBin;
pos = (548,702);
}
);
layerId = m01;
shapes = (
{
closed = 1;
nodes = (
(377,390,l),
(377,390,o),
(377,390,o),
(377,390,cs),
(309,321,o),
(290,301,o),
(255,266,c),
(310,211,l),
(338,239,o),
(394,297,o),
(432,335,cs),
(432,335,o),
(432,335,o),
(432,335,c)
);
},
{
closed = 1;
nodes = (
(312,700,l),
(312,700,o),
(262,700,o),
(262,700,cs),
(262,700,o),
(253,700,o),
(229,700,cs),
(122,700,o),
(35,613,o),
(35,505,cs),
(35,398,o),
(122,311,o),
(229,311,cs),
(337,311,o),
(230,311,o),
(230,311,c),
(230,389,l),
(230,389,o),
(294,389,o),
(229,389,cs),
(165,389,o),
(113,441,o),
(113,505,cs),
(113,570,o),
(165,622,o),
(229,622,cs),
(294,622,o),
(262,622,o),
(262,622,cs),
(262,622,o),
(312,622,o),
(312,622,c)
);
},
{
closed = 1;
nodes = (
(347,283,l),
(364,262,o),
(374,236,o),
(374,207,cs),
(374,123,o),
(295,78,o),
(230,78,cs),
(166,78,o),
(114,130,o),
(115,193,cs),
(113,258,o),
(166,310,o),
(229,310,c),
(229,388,l),
(123,389,o),
(36,301,o),
(36,194,cs),
(36,87,o),
(124,0,o),
(230,0,cs),
(338,0,o),
(425,86,o),
(425,194,cs),
(425,242,o),
(408,285,o),
(380,319,c)
);
},
{
pos = (-123,0);
ref = right;
}
);
width = 691;
}
);
unicode = 2825;
},
{
glyphname = "uu-oriya";
layers = (
{
anchors = (
{
name = chanBin;
pos = (548,702);
}
);
layerId = m01;
shapes = (
{
closed = 1;
nodes = (
(347,283,l),
(364,262,o),
(374,236,o),
(374,207,cs),
(374,123,o),
(295,78,o),
(230,78,cs),
(166,78,o),
(114,130,o),
(115,193,cs),
(113,258,o),
(166,310,o),
(229,310,c),
(229,388,l),
(123,389,o),
(36,301,o),
(36,194,cs),
(36,87,o),
(124,0,o),
(230,0,cs),
(338,0,o),
(425,86,o),
(425,194,cs),
(425,242,o),
(408,285,o),
(380,319,c)
);
},
{
closed = 1;
nodes = (
(377,390,l),
(377,390,o),
(377,390,o),
(377,390,cs),
(309,321,o),
(290,301,o),
(255,266,c),
(310,211,l),
(338,239,o),
(394,297,o),
(432,335,cs),
(432,335,o),
(432,335,o),
(432,335,c)
);
},
{
closed = 1;
nodes = (
(312,700,l),
(312,700,o),
(262,700,o),
(262,700,cs),
(262,700,o),
(253,700,o),
(229,700,cs),
(122,700,o),
(35,613,o),
(35,505,cs),
(35,398,o),
(122,311,o),
(229,311,cs),
(337,311,o),
(230,311,o),
(230,311,c),
(230,389,l),
(230,389,o),
(294,389,o),
(229,389,cs),
(165,389,o),
(113,441,o),
(113,505,cs),
(113,570,o),
(165,622,o),
(229,622,cs),
(294,622,o),
(262,622,o),
(262,622,cs),
(262,622,o),
(312,622,o),
(312,622,c)
);
},
{
closed = 1;
nodes = (
(584,351,o),
(584,351,o),
(584,351,cs),
(577,279,o),
(520,288,o),
(481,288,c),
(461,210,l),
(526,210,o),
(662,226,o),
(662,351,cs),
(662,351,o),
(662,351,o),
(662,351,cs),
(584,351,ls)
);
},
{
closed = 1;
nodes = (
(470,-1,l),
(640,-1,l),
(620,77,l),
(470,77,l)
);
},
{
closed = 1;
nodes = (
(311,622,o),
(312,622,o),
(312,622,cs),
(464,622,o),
(584,502,o),
(584,350,c),
(662,351,l),
(662,546,o),
(507,700,o),
(312,700,cs),
(312,700,o),
(311,700,o),
(311,700,cs),
(311,622,ls)
);
},
{
closed = 1;
nodes = (
(434,212,o),
(504,210,o),
(529,210,cs),
(554,210,o),
(576,168,o),
(576,144,c),
(575,117,o),
(555,77,o),
(528,76,cs),
(504,76,o),
(480,78,o),
(443,77,cs),
(443,77,o),
(469,77,o),
(469,77,c),
(453,-1,l),
(453,-1,o),
(427,-1,o),
(427,-1,cs),
(494,-2,o),
(440,-1,o),
(529,-1,cs),
(597,-1,o),
(653,74,o),
(654,143,c),
(654,211,o),
(598,289,o),
(529,288,c),
(481,288,l),
(461,211,l)
);
}
);
width = 600;
}
);
unicode = 2826;
},
{
glyphname = "rVocalic-oriya";
layers = (
{
anchors = (
{
name = chanBin;
pos = (548,702);
}
);
layerId = m01;
shapes = (
{
closed = 1;
nodes = (
(337,0,o),
(424,87,o),
(424,194,cs),
(424,302,o),
(337,389,o),
(229,389,cs),
(122,389,o),
(35,302,o),
(35,194,cs),
(35,87,o),
(122,0,o),
(229,0,cs)
);
},
{
closed = 1;
nodes = (
(165,78,o),
(113,130,o),
(113,194,cs),
(113,259,o),
(165,311,o),
(229,311,cs),
(294,311,o),
(346,259,o),
(346,194,cs),
(346,130,o),
(294,78,o),
(229,78,cs)
);
},
{
closed = 1;
nodes = (
(312,700,l),
(312,700,o),
(262,700,o),
(262,700,cs),
(262,700,o),
(253,700,o),
(229,700,cs),
(122,700,o),
(35,613,o),
(35,505,cs),
(35,398,o),
(122,311,o),
(229,311,cs),
(337,311,o),
(230,311,o),
(230,311,c),
(230,389,l),
(230,389,o),
(294,389,o),
(229,389,cs),
(165,389,o),
(113,441,o),
(113,505,cs),
(113,570,o),
(165,622,o),
(229,622,cs),
(294,622,o),
(262,622,o),
(262,622,cs),
(262,622,o),
(312,622,o),
(312,622,c)
);
},
{
closed = 1;
nodes = (
(470,-1,l),
(640,-1,l),
(620,77,l),
(470,77,l)
);
},
{
closed = 1;
nodes = (
(311,622,o),
(312,622,o),
(312,622,cs),
(464,622,o),
(584,502,o),
(584,350,c),
(662,351,l),
(662,546,o),
(507,700,o),
(312,700,cs),
(312,700,o),
(311,700,o),
(311,700,cs),
(311,622,ls)
);
},
{
closed = 1;
nodes = (
(434,212,o),
(504,210,o),
(529,210,cs),
(554,210,o),
(576,168,o),
(576,144,c),
(575,117,o),
(555,77,o),
(528,76,cs),
(504,76,o),
(480,78,o),
(443,77,cs),
(443,77,o),
(469,77,o),
(469,77,c),
(453,-1,l),
(453,-1,o),
(427,-1,o),
(427,-1,cs),
(494,-2,o),
(440,-1,o),
(529,-1,cs),
(597,-1,o),
(653,74,o),
(654,143,c),
(654,211,o),
(598,289,o),
(529,288,c),
(481,288,l),
(461,211,l)
);
},
{
closed = 1;
nodes = (
(584,351,o),
(584,351,o),
(584,351,cs),
(577,279,o),
(520,288,o),
(481,288,c),
(461,210,l),
(526,210,o),
(662,226,o),
(662,351,cs),
(662,351,o),
(662,351,o),
(662,351,cs),
(584,351,ls)
);
},
{
closed = 1;
nodes = (
(470,-1,l),
(640,-1,l),
(620,77,l),
(470,77,l)
);
},
{
closed = 1;
nodes = (
(311,622,o),
(312,622,o),
(312,622,cs),
(464,622,o),
(584,502,o),
(584,350,c),
(662,351,l),
(662,546,o),
(507,700,o),
(312,700,cs),
(312,700,o),
(311,700,o),
(311,700,cs),
(311,622,ls)
);
},
{
closed = 1;
nodes = (
(434,212,o),
(504,210,o),
(529,210,cs),
(554,210,o),
(576,168,o),
(576,144,c),
(575,117,o),
(555,77,o),
(528,76,cs),
(504,76,o),
(480,78,o),
(443,77,cs),
(443,77,o),
(469,77,o),
(469,77,c),
(453,-1,l),
(453,-1,o),
(427,-1,o),
(427,-1,cs),
(494,-2,o),
(440,-1,o),
(529,-1,cs),
(597,-1,o),
(653,74,o),
(654,143,c),
(654,211,o),
(598,289,o),
(529,288,c),
(481,288,l),
(461,211,l)
);
}
);
width = 692;
}
);
unicode = 2827;
},
{
glyphname = "rrVocalic-oriya";
layers = (
{
anchors = (
{
name = chanBin;
pos = (548,702);
}
);
layerId = m01;
shapes = (
{
closed = 1;
nodes = (
(337,0,o),
(424,87,o),
(424,194,cs),
(424,302,o),
(337,389,o),
(229,389,cs),
(122,389,o),
(35,302,o),
(35,194,cs),
(35,87,o),
(122,0,o),
(229,0,cs)
);
},
{
closed = 1;
nodes = (
(165,78,o),
(113,130,o),
(113,194,cs),
(113,259,o),
(165,311,o),
(229,311,cs),
(294,311,o),
(346,259,o),
(346,194,cs),
(346,130,o),
(294,78,o),
(229,78,cs)
);
},
{
closed = 1;
nodes = (
(312,700,l),
(312,700,o),
(262,700,o),
(262,700,cs),
(262,700,o),
(253,700,o),
(229,700,cs),
(122,700,o),
(35,613,o),
(35,505,cs),
(35,398,o),
(122,311,o),
(229,311,cs),
(337,311,o),
(230,311,o),
(230,311,c),
(230,389,l),
(230,389,o),
(294,389,o),
(229,389,cs),
(165,389,o),
(113,441,o),
(113,505,cs),
(113,570,o),
(165,622,o),
(229,622,cs),
(294,622,o),
(262,622,o),
(262,622,cs),
(262,622,o),
(312,622,o),
(312,622,c)
);
},
{
closed = 1;
nodes = (
(311,622,o),
(312,622,o),
(312,622,cs),
(464,622,o),
(584,502,o),
(584,350,c),
(662,351,l),
(662,546,o),
(507,700,o),
(312,700,cs),
(312,700,o),
(311,700,o),
(311,700,cs),
(311,622,ls)
);
},
{
closed = 1;
nodes = (
(434,212,o),
(504,210,o),
(529,210,cs),
(554,210,o),
(576,202,o),
(576,178,c),
(575,151,o),
(555,137,o),
(528,136,cs),
(504,136,o),
(480,138,o),
(443,137,cs),
(443,137,o),
(469,137,o),
(469,137,c),
(453,59,l),
(453,59,o),
(453,59,o),
(453,59,cs),
(520,58,o),
(440,59,o),
(529,59,cs),
(597,59,o),
(653,108,o),
(654,177,c),
(654,245,o),
(598,289,o),
(529,288,c),
(481,288,l),
(461,211,l)
);
},
{
closed = 1;
nodes = (
(584,351,o),
(584,351,o),
(584,351,cs),
(577,279,o),
(520,288,o),
(481,288,c),
(461,210,l),
(526,210,o),
(662,226,o),
(662,351,cs),
(662,351,o),
(662,351,o),
(662,351,cs),
(584,351,ls)
);
},
{
closed = 1;
nodes = (
(479,-91,l),
(649,-91,l),
(629,-13,l),
(479,-13,l)
);
},
{
closed = 1;
nodes = (
(311,622,o),
(312,622,o),
(312,622,cs),
(464,622,o),
(584,502,o),
(584,350,c),
(662,351,l),
(662,546,o),
(507,700,o),
(312,700,cs),
(312,700,o),
(311,700,o),
(311,700,cs),
(311,622,ls)
);
},
{
closed = 1;
nodes = (
(434,212,o),
(504,210,o),
(529,210,cs),
(554,210,o),
(576,202,o),
(576,178,c),
(575,151,o),
(555,137,o),
(528,136,cs),
(504,136,o),
(480,138,o),
(443,137,cs),
(443,137,o),
(469,137,o),
(469,137,c),
(453,59,l),
(453,59,o),
(453,59,o),
(453,59,cs),
(520,58,o),
(440,59,o),
(529,59,cs),
(597,59,o),
(653,108,o),
(654,177,c),
(654,245,o),
(598,289,o),
(529,288,c),
(481,288,l),
(461,211,l)
);
},
{
closed = 1;
nodes = (
(434,62,o),
(504,60,o),
(529,60,cs),
(554,60,o),
(576,52,o),
(576,28,c),
(575,1,o),
(555,-13,o),
(528,-14,cs),
(504,-14,o),
(480,-12,o),
(443,-13,cs),
(443,-13,o),
(469,-13,o),
(469,-13,c),
(453,-91,l),
(453,-91,o),
(453,-91,o),
(453,-91,cs),
(520,-92,o),
(440,-91,o),
(529,-91,cs),
(597,-91,o),
(653,-42,o),
(654,27,c),
(654,95,o),
(598,139,o),
(529,138,c),
(481,138,l),
(461,61,l)
);
}
);
width = 600;
}
);
unicode = 2912;
},
{
glyphname = "lVocalic-oriya";
layers = (
{
anchors = (
{
name = chanBin;
pos = (548,702);
}
);
layerId = m01;
shapes = (
{
closed = 1;
nodes = (
(196,78,l),
(195,78,o),
(195,78,o),
(195,78,cs),
(131,78,o),
(79,130,o),
(79,194,cs),
(79,259,o),
(131,311,o),
(195,311,c),
(195,389,l),
(88,389,o),
(1,302,o),
(1,194,cs),
(1,87,o),
(88,0,o),
(195,0,cs),
(195,0,o),
(195,0,o),
(196,0,c)
);
},
{
closed = 1;
nodes = (
(274,700,l),
(274,700,o),
(274,700,o),
(274,700,cs),
(167,700,o),
(80,613,o),
(80,506,cs),
(80,448,o),
(80,439,o),
(80,439,c),
(158,439,l),
(158,439,o),
(158,491,o),
(158,506,cs),
(158,570,o),
(210,622,o),
(274,622,cs),
(274,622,o),
(274,622,o),
(274,622,c)
);
},
{
closed = 1;
nodes = (
(136,700,o),
(157,700,o),
(194,700,c)
);
},
{
closed = 1;
nodes = (
(271,622,l),
(271,622,o),
(206,622,o),
(271,622,cs),
(335,622,o),
(387,570,o),
(387,506,cs),
(387,441,o),
(335,389,o),
(271,389,cs),
(271,389,o),
(271,389,o),
(271,389,c),
(271,311,l),
(271,311,o),
(271,311,o),
(271,311,cs),
(378,311,o),
(465,398,o),
(465,506,cs),
(465,613,o),
(378,700,o),
(271,700,c)
);
},
{
closed = 1;
nodes = (
(196,0,l),
(263,0,o),
(414,0,o),
(414,0,c),
(414,26,o),
(414,52,o),
(414,78,c),
(414,78,o),
(260,78,o),
(196,78,c)
);
},
{
closed = 1;
nodes = (
(195,311,l),
(262,311,o),
(271,311,o),
(271,311,c),
(271,337,o),
(271,363,o),
(271,389,c),
(271,389,o),
(259,389,o),
(195,389,c)
);
},
{
closed = 1;
nodes = (
(414,0,l),
(414,0,o),
(414,0,o),
(414,0,cs),
(521,0,o),
(608,87,o),
(608,194,cs),
(608,252,o),
(608,194,o),
(608,194,c),
(530,194,l),
(530,194,o),
(530,209,o),
(530,194,cs),
(530,130,o),
(478,78,o),
(414,78,cs),
(414,78,o),
(414,78,o),
(414,78,c)
);
},
{
closed = 1;
nodes = (
(461,85,l),
(460,85,o),
(460,85,o),
(459,85,cs),
(420,85,o),
(388,143,o),
(388,182,cs),
(388,221,o),
(420,262,o),
(459,262,cs),
(498,262,o),
(530,230,o),
(530,191,cs),
(530,191,o),
(530,190,o),
(530,190,c),
(608,190,l),
(608,190,o),
(608,191,o),
(608,191,cs),
(608,273,o),
(541,340,o),
(459,340,cs),
(377,340,o),
(310,273,o),
(310,191,cs),
(310,109,o),
(377,62,o),
(459,62,cs),
(460,62,o),
(460,62,o),
(461,62,c)
);
}
);
width = 600;
}
);
unicode = 2828;
},
{
glyphname = "llVocalic-oriya";
layers = (
{
anchors = (
{
name = chanBin;
pos = (548,702);
}
);
layerId = m01;
shapes = (
{
closed = 1;
nodes = (
(196,78,l),
(195,78,o),
(195,78,o),
(195,78,cs),
(131,78,o),
(79,130,o),
(79,194,cs),
(79,259,o),
(131,311,o),
(195,311,c),
(195,389,l),
(88,389,o),
(1,302,o),
(1,194,cs),
(1,87,o),
(88,0,o),
(195,0,cs),
(195,0,o),
(195,0,o),
(196,0,c)
);
},
{
closed = 1;
nodes = (
(274,700,l),
(274,700,o),
(274,700,o),
(274,700,cs),
(167,700,o),
(80,613,o),
(80,506,cs),
(80,448,o),
(80,439,o),
(80,439,c),
(158,439,l),
(158,439,o),
(158,491,o),
(158,506,cs),
(158,570,o),
(210,622,o),
(274,622,cs),
(274,622,o),
(274,622,o),
(274,622,c)
);
},
{
closed = 1;
nodes = (
(136,700,o),
(157,700,o),
(194,700,c)
);
},
{
closed = 1;
nodes = (
(271,622,l),
(271,622,o),
(206,622,o),
(271,622,cs),
(335,622,o),
(387,570,o),
(387,506,cs),
(387,441,o),
(335,389,o),
(271,389,cs),
(271,389,o),
(271,389,o),
(271,389,c),
(271,311,l),
(271,311,o),
(271,311,o),
(271,311,cs),
(378,311,o),
(465,398,o),
(465,506,cs),
(465,613,o),
(378,700,o),
(271,700,c)
);
},
{
closed = 1;
nodes = (
(196,0,l),
(263,0,o),
(414,0,o),
(414,0,c),
(414,26,o),
(414,52,o),
(414,78,c),
(414,78,o),
(260,78,o),
(196,78,c)
);
},
{
closed = 1;
nodes = (
(195,311,l),
(262,311,o),
(271,311,o),
(271,311,c),
(271,337,o),
(271,363,o),
(271,389,c),
(271,389,o),
(259,389,o),
(195,389,c)
);
},
{
closed = 1;
nodes = (
(414,0,l),
(414,0,o),
(414,0,o),
(414,0,cs),
(521,0,o),
(608,87,o),
(608,194,cs),
(608,252,o),
(608,194,o),
(608,194,c),
(530,194,l),
(530,194,o),
(530,209,o),
(530,194,cs),
(530,130,o),
(478,78,o),
(414,78,cs),
(414,78,o),
(414,78,o),
(414,78,c)
);
},
{
closed = 1;
nodes = (
(571,0,l),
(570,0,o),
(570,0,o),
(569,0,cs),
(512,0,o),
(368,0,o),
(388,182,cs),
(392,221,o),
(420,262,o),
(459,262,cs),
(498,262,o),
(530,230,o),
(530,191,cs),
(530,191,o),
(530,190,o),
(530,190,c),
(608,190,l),
(608,190,o),
(608,191,o),
(608,191,cs),
(608,273,o),
(541,340,o),
(459,340,cs),
(377,340,o),
(325,271,o),
(310,190,cs),
(290,81,o),
(343,-75,o),
(569,-75,cs),
(570,-75,o),
(570,-75,o),
(571,-75,c)
);
}
);
width = 600;
}
);
unicode = 2913;
},
{
glyphname = "e-oriya";
layers = (
{
anchors = (
{
name = chanBin;
pos = (548,702);
}
);
layerId = m01;
shapes = (
{
closed = 1;
nodes = (
(430,631,l),
(430,631,o),
(426,630,o),
(430,630,cs),
(515,633,o),
(500,400,o),
(574,246,c),
(651,232,l),
(567,400,o),
(583,680,o),
(479,700,c)
);
},
{
closed = 1;
nodes = (
(479,700,l),
(476,700,o),
(479,700,o),
(479,700,cs),
(326,606,o),
(421,381,o),
(231,343,c),
(280,283,l),
(500,311,o),
(391,576,o),
(531,639,cs),
(531,639,o),
(531,639,o),
(531,639,c)
);
},
{
closed = 1;
nodes = (
(34,141,o),
(175,2,o),
(347,2,cs),
(497,2,o),
(690,107,o),
(651,233,c),
(574,246,l),
(616,168,o),
(458,80,o),
(347,80,cs),
(218,80,o),
(130,180,o),
(113,310,cs),
(102,393,o),
(116,540,o),
(201,700,c),
(201,700,l),
(116,700,l),
(7,459,o),
(33,331,o),
(33,312,cs)
);
}
);
width = 686;
}
);
unicode = 2831;
},
{
glyphname = "ai-oriya";
layers = (
{
anchors = (
{
name = chanBin;
pos = (948,702);
}
);
layerId = m01;
shapes = (
{
closed = 1;
nodes = (
(450,631,l),
(450,631,o),
(446,630,o),
(450,630,cs),
(535,633,o),
(520,400,o),
(594,246,c),
(671,232,l),
(587,400,o),
(603,680,o),
(499,700,c)
);
},
{
closed = 1;
nodes = (
(499,700,l),
(496,700,o),
(499,700,o),
(499,700,cs),
(346,606,o),
(441,381,o),
(251,343,c),
(300,283,l),
(520,311,o),
(411,576,o),
(551,639,cs),
(551,639,o),
(551,639,o),
(551,639,c)
);
},
{
closed = 1;
nodes = (
(54,141,o),
(195,2,o),
(367,2,cs),
(517,2,o),
(710,107,o),
(671,233,c),
(594,246,l),
(636,168,o),
(478,80,o),
(367,80,cs),
(238,80,o),
(150,180,o),
(133,310,cs),
(122,393,o),
(136,540,o),
(221,700,c),
(221,700,l),
(136,700,l),
(27,459,o),
(53,331,o),
(53,312,cs)
);
},
{
pos = (600,0);
ref = "ya-oriya.below";
},
{
pos = (1082,0);
ref = "aiLength-oriya";
}
);
width = 1032;
}
);
unicode = 2832;
},
{
glyphname = "o-oriya";
layers = (
{
anchors = (
{
name = chanBin;
pos = (548,702);
}
);
guides = (
{
angle = -10;
pos = (740,241);
}
);
layerId = m01;
shapes = (
{
closed = 1;
nodes = (
(510,421,l),
(514,420,o),
(517,420,o),
(521,419,cs),
(584,408,o),
(626,310,o),
(614,246,c),
(691,232,l),
(709,338,o),
(641,476,o),
(537,496,c)
);
},
{
closed = 1;
nodes = (
(302,473,l),
(295,499,o),
(296,527,o),
(309,553,cs),
(336,611,o),
(405,637,o),
(464,609,cs),
(522,582,o),
(547,513,o),
(520,455,cs),
(494,396,o),
(425,371,o),
(367,398,c),
(334,327,l),
(430,282,o),
(546,325,o),
(591,422,cs),
(636,518,o),
(594,634,o),
(497,680,cs),
(399,725,o),
(284,683,o),
(238,587,cs),
(218,542,o),
(216,496,o),
(227,453,c)
);
},
{
closed = 1;
nodes = (
(74,141,o),
(215,2,o),
(387,2,cs),
(537,2,o),
(662,86,o),
(691,233,c),
(614,246,l),
(598,158,o),
(498,80,o),
(387,80,cs),
(258,80,o),
(170,180,o),
(153,310,cs),
(142,393,o),
(156,540,o),
(241,700,c),
(241,700,l),
(156,700,l),
(47,459,o),
(73,331,o),
(73,312,cs)
);
}
);
width = 724;
}
);
unicode = 2835;
},
{
glyphname = "au-oriya";
layers = (
{
anchors = (
{
name = chanBin;
pos = (968,702);
}
);
layerId = m01;
shapes = (
{
closed = 1;
nodes = (
(490,421,l),
(494,420,o),
(497,420,o),
(501,419,cs),
(564,408,o),
(606,310,o),
(594,246,c),
(671,232,l),
(689,338,o),
(621,476,o),
(517,496,c)
);
},
{
closed = 1;
nodes = (
(282,473,l),
(275,499,o),
(276,527,o),
(289,553,cs),
(316,611,o),
(385,637,o),
(444,609,cs),
(502,582,o),
(527,513,o),
(500,455,cs),
(474,396,o),
(405,371,o),
(347,398,c),
(314,327,l),
(410,282,o),
(526,325,o),
(571,422,cs),
(616,518,o),
(574,634,o),
(477,680,cs),
(379,725,o),
(264,683,o),
(218,587,cs),
(198,542,o),
(196,496,o),
(207,453,c)
);
},
{
closed = 1;
nodes = (
(54,141,o),
(195,2,o),
(367,2,cs),
(517,2,o),
(642,86,o),
(671,233,c),
(594,246,l),
(578,158,o),
(478,80,o),
(367,80,cs),
(238,80,o),
(150,180,o),
(133,310,cs),
(122,393,o),
(136,540,o),
(221,700,c),
(221,700,l),
(136,700,l),
(27,459,o),
(53,331,o),
(53,312,cs)
);
},
{
pos = (627,0);
ref = "ya-oriya.below";
},
{
pos = (1111,0);
ref = "aiLength-oriya";
}
);
width = 1059;
}
);
unicode = 2836;
},
{
glyphname = "ka-oriya";
layers = (
{
anchors = (
{
name = am;
pos = (680,659);
},
{
name = below;
pos = (496,-20);
},
{
name = bindu;
pos = (351,-96);
},
{
name = bottom;
pos = (613,17);
},
{
name = bottomtwo;
pos = (342,-258);
},
{
name = chanBin;
pos = (548,702);
},
{
name = hal;
pos = (686,703);
},
{
name = nukta;
pos = (351,-50);
},
{
name = reph2;
pos = (613,4);
},
{
name = reph3;
pos = (611,-258);
},
{
name = ru;
pos = (351,-7);
},
{
name = top;
pos = (351,754);
}
);
guides = (
{
angle = 45;
pos = (412,350);
},
{
angle = 90;
pos = (410,295);
},
{
pos = (861,352);
},
{
angle = 90;
pos = (30,295);
},
{
angle = 90;
pos = (650,295);
}
);
layerId = m01;
shapes = (
{
closed = 1;
nodes = (
(332,0,o),
(419,87,o),
(419,194,cs),
(419,302,o),
(332,389,o),
(224,389,cs),
(117,389,o),
(30,302,o),
(30,194,cs),
(30,87,o),
(117,0,o),
(224,0,cs)
);
},
{
closed = 1;
nodes = (
(160,78,o),
(108,130,o),
(108,194,cs),
(108,259,o),
(160,311,o),
(224,311,cs),
(289,311,o),
(341,259,o),
(341,194,cs),
(341,130,o),
(289,78,o),
(224,78,cs)
);
},
{
closed = 1;
nodes = (
(394,700,l),
(394,700,o),
(401,700,o),
(401,700,cs),
(401,700,o),
(392,700,o),
(224,700,cs),
(117,700,o),
(30,613,o),
(30,505,cs),
(30,398,o),
(117,311,o),
(224,311,cs),
(332,311,o),
(225,311,o),
(225,311,c),
(225,389,l),
(225,389,o),
(289,389,o),
(224,389,cs),
(160,389,o),
(108,441,o),
(108,505,cs),
(108,570,o),
(160,622,o),
(224,622,cs),
(289,622,o),
(401,622,o),
(401,622,cs),
(401,622,o),
(394,622,o),
(394,622,c)
);
},
{
closed = 1;
nodes = (
(341,0,l),
(419,0,l),
(419,389,l),
(393,389,o),
(367,389,o),
(341,389,c)
);
},
{
closed = 1;
nodes = (
(572,0,l),
(650,0,l),
(650,389,l),
(572,389,l)
);
},
{
closed = 1;
nodes = (
(573,311,l),
(573,389,l),
(384,389,l),
(384,311,l)
);
},
{
closed = 1;
nodes = (
(650,505,l),
(650,505,o),
(650,505,o),
(650,505,cs),
(650,613,o),
(563,700,o),
(456,700,cs),
(328,700,o),
(319,700,o),
(319,700,cs),
(319,700,o),
(276,700,o),
(276,700,c),
(276,622,l),
(276,622,o),
(319,622,o),
(319,622,cs),
(319,622,o),
(391,622,o),
(456,622,cs),
(520,622,o),
(572,570,o),
(572,505,cs),
(572,505,o),
(572,505,o),
(572,505,c)
);
}
);
width = 700;
}
);
unicode = 2837;
},
{
glyphname = "ka-oriya.base";
layers = (
{
layerId = m01;
shapes = (
{
closed = 1;
nodes = (
(542,125,l),
(542,125,o),
(546,125,o),
(546,125,cs),
(546,125,o),
(541,125,o),
(447,125,cs),
(388,125,o),
(339,77,o),
(339,16,cs),
(339,-43,o),
(388,-92,o),
(447,-92,cs),
(508,-92,o),
(448,-92,o),
(448,-92,c),
(448,-48,l),
(448,-48,o),
(448,-41,o),
(447,-41,cs),
(416,-41,o),
(398,-15,o),
(398,16,cs),
(398,49,o),
(423,71,o),
(454,71,cs),
(487,71,o),
(542,71,o),
(542,71,cs),
(542,71,o),
(542,82,o),
(542,82,c)
);
},
{
closed = 1;
nodes = (
(498,-258,l),
(558,-258,l),
(558,-42,l),
(544,-42,o),
(512,-42,o),
(498,-42,c)
);
},
{
closed = 1;
nodes = (
(626,-258,l),
(686,-258,l),
(686,-42,l),
(626,-42,l)
);
},
{
closed = 1;
nodes = (
(685,16,l),
(685,16,o),
(685,16,o),
(685,16,cs),
(685,77,o),
(636,125,o),
(577,125,cs),
(405,125,o),
(400,125,o),
(400,125,cs),
(400,125,o),
(476,125,o),
(476,125,c),
(476,82,l),
(476,82,o),
(476,72,o),
(476,72,cs),
(476,72,o),
(533,71,o),
(570,71,cs),
(601,71,o),
(626,49,o),
(626,16,cs),
(626,16,o),
(641,16,o),
(641,16,c)
);
},
{
closed = 1;
nodes = (
(507,-258,o),
(558,-209,o),
(558,-149,cs),
(558,-88,o),
(507,-41,o),
(447,-41,cs),
(388,-41,o),
(339,-88,o),
(339,-149,cs),
(339,-209,o),
(388,-258,o),
(447,-258,cs)
);
},
{
closed = 1;
nodes = (
(420,-200,o),
(397,-176,o),
(397,-149,cs),
(397,-121,o),
(420,-97,o),
(447,-97,cs),
(476,-97,o),
(498,-121,o),
(498,-149,cs),
(498,-176,o),
(476,-200,o),
(447,-200,cs)
);
},
{
closed = 1;
nodes = (
(543,-42,l),
(543,-102,l),
(660,-102,l),
(660,-42,l)
);
}
);
width = 680;
}
);
},
{
glyphname = "kha-oriya";
layers = (
{
anchors = (
{
name = am;
pos = (680,659);
},
{
name = below;
pos = (496,-20);
},
{
name = bindu;
pos = (351,-96);
},
{
name = bottom;
pos = (614,17);
},
{
name = bottomtwo;
pos = (715,-146);
},
{
name = chanBin;
pos = (603,730);
},
{
name = nukta;
pos = (351,-50);
},
{
name = reph2;
pos = (614,4);
},
{
name = reph3;
pos = (611,-258);
},
{
name = ru;
pos = (351,-7);
},
{
name = top;
pos = (351,754);
}
);
layerId = m01;
shapes = (
{
closed = 1;
nodes = (
(352,0,o),
(439,87,o),
(439,194,cs),
(439,302,o),
(352,389,o),
(244,389,cs),
(137,389,o),
(50,302,o),
(50,194,cs),
(50,87,o),
(137,0,o),
(244,0,cs)
);
},
{
closed = 1;
nodes = (
(180,78,o),
(128,130,o),
(128,194,cs),
(128,259,o),
(180,311,o),
(244,311,cs),
(309,311,o),
(361,259,o),
(361,194,cs),
(361,130,o),
(309,78,o),
(244,78,cs)
);
},
{
closed = 1;
nodes = (
(404,700,l),
(404,700,o),
(361,700,o),
(361,700,cs),
(361,700,o),
(352,700,o),
(244,700,cs),
(137,700,o),
(50,613,o),
(50,505,cs),
(50,398,o),
(137,311,o),
(244,311,cs),
(352,311,o),
(245,311,o),
(245,311,c),
(245,389,l),
(245,389,o),
(309,389,o),
(244,389,cs),
(180,389,o),
(128,441,o),
(128,505,cs),
(128,570,o),
(180,622,o),
(244,622,cs),
(309,622,o),
(361,622,o),
(361,622,cs),
(361,622,o),
(404,622,o),
(404,622,c)
);
},
{
closed = 1;
nodes = (
(422,-22,o)
);
},
{
closed = 1;
nodes = (
(651,0,l),
(651,700,l),
(573,700,l),
(573,0,l)
);
},
{
closed = 1;
nodes = (
(575,647,o),
(573,539,o),
(573,514,cs),
(573,489,o),
(531,467,o),
(507,467,c),
(480,468,o),
(440,488,o),
(441,515,cs),
(439,539,o),
(443,579,o),
(442,616,cs),
(442,616,o),
(442,700,o),
(442,700,c),
(362,700,l),
(362,700,o),
(362,616,o),
(362,616,cs),
(361,549,o),
(362,603,o),
(362,514,cs),
(362,446,o),
(437,390,o),
(506,389,c),
(574,389,o),
(651,445,o),
(651,514,cs),
(651,607,o),
(652,598,o),
(651,700,c),
(574,700,l)
);
}
);
width = 701;
}
);
unicode = 2838;
},
{
glyphname = "kha-oriya.base";
layers = (
{
layerId = m01;
shapes = (
{
closed = 1;
nodes = (
(507,-258,o),
(558,-209,o),
(558,-149,cs),
(558,-88,o),
(507,-41,o),
(447,-41,cs),
(388,-41,o),
(339,-88,o),
(339,-149,cs),
(339,-209,o),
(388,-258,o),
(447,-258,cs)
);
},
{
closed = 1;
nodes = (
(420,-200,o),
(397,-176,o),
(397,-149,cs),
(397,-121,o),
(420,-97,o),
(447,-97,cs),
(476,-97,o),
(498,-121,o),
(498,-149,cs),
(498,-176,o),
(476,-200,o),
(447,-200,cs)
);
},
{
closed = 1;
nodes = (
(505,125,l),
(505,125,o),
(507,125,o),
(507,125,cs),
(507,125,o),
(502,125,o),
(447,125,cs),
(388,125,o),
(339,77,o),
(339,16,cs),
(339,-43,o),
(388,-92,o),
(447,-92,cs),
(508,-92,o),
(448,-92,o),
(448,-92,c),
(448,-48,l),
(448,-48,o),
(448,-41,o),
(447,-41,cs),
(416,-41,o),
(398,-15,o),
(398,16,cs),
(398,49,o),
(423,75,o),
(454,75,cs),
(487,75,o),
(503,75,o),
(503,75,cs),
(503,75,o),
(505,82,o),
(505,82,c)
);
},
{
closed = 1;
nodes = (
(521,125,l),
(518,125,o),
(506,125,o),
(503,125,c),
(503,75,l),
(506,75,o),
(518,75,o),
(521,75,c)
);
},
{
closed = 1;
nodes = (
(623,-258,l),
(683,-258,l),
(683,125,l),
(623,125,l)
);
},
{
closed = 1;
nodes = (
(624,78,o),
(624,35,o),
(624,25,cs),
(624,16,o),
(607,7,o),
(598,7,c),
(587,8,o),
(572,16,o),
(572,26,cs),
(571,35,o),
(572,52,o),
(572,66,cs),
(572,66,o),
(573,125,o),
(573,125,c),
(517,125,l),
(517,125,o),
(517,78,o),
(517,78,cs),
(517,41,o),
(517,71,o),
(517,21,cs),
(517,-17,o),
(559,-48,o),
(597,-48,c),
(635,-48,o),
(678,-17,o),
(678,21,cs),
(678,73,o),
(679,68,o),
(678,125,c),
(624,125,l)
);
}
);
width = 600;
}
);
},
{
glyphname = "ga-oriya";
layers = (
{
anchors = (
{
name = am;
pos = (680,659);
},
{
name = below;
pos = (496,-20);
},
{
name = bindu;
pos = (351,-96);
},
{
name = bottom;
pos = (635,17);
},
{
name = bottomtwo;
pos = (715,-146);
},
{
name = chanBin;
pos = (603,730);
},
{
name = hal;
pos = (686,703);
},
{
name = nukta;
pos = (351,-50);
},
{
name = reph2;
pos = (636,4);
},
{
name = reph3;
pos = (611,-258);
},
{
name = ru;
pos = (351,-7);
},
{
name = top;
pos = (351,754);
}
);
layerId = m01;
shapes = (
{
closed = 1;
nodes = (
(352,-1,o),
(439,86,o),
(439,193,cs),
(439,301,o),
(352,388,o),
(244,388,cs),
(137,388,o),
(50,301,o),
(50,193,cs),
(50,86,o),
(137,-1,o),
(244,-1,cs)
);
},
{
closed = 1;
nodes = (
(180,77,o),
(128,129,o),
(128,193,cs),
(128,258,o),
(180,310,o),
(244,310,cs),
(309,310,o),
(361,258,o),
(361,193,cs),
(361,129,o),
(309,77,o),
(244,77,cs)
);
},
{
closed = 1;
nodes = (
(672,0,l),
(672,700,l),
(594,700,l),
(594,0,l)
);
},
{
closed = 1;
nodes = (
(244,388,o),
(241,388,o),
(241,388,cs),
(241,388,o),
(249,388,o),
(244,388,cs),
(180,388,o),
(128,440,o),
(128,505,cs),
(128,569,o),
(180,621,o),
(244,621,cs),
(309,621,o),
(327,621,o),
(327,621,c),
(327,699,l),
(327,699,o),
(352,699,o),
(244,699,cs),
(137,699,o),
(50,612,o),
(50,505,cs),
(50,397,o),
(137,310,o),
(244,310,cs),
(249,310,o),
(241,310,o),
(241,310,cs),
(241,310,o),
(244,310,o),
(244,310,c),
(244,388,l)
);
},
{
pos = (-114,-1);
ref = topright;
}
);
width = 722;
}
);
unicode = 2839;
},
{
glyphname = "ga-oriya.base";
layers = (
{
layerId = m01;
shapes = (
{
closed = 1;
nodes = (
(507,-258,o),
(558,-209,o),
(558,-149,cs),
(558,-88,o),
(507,-41,o),
(447,-41,cs),
(388,-41,o),
(339,-88,o),
(339,-149,cs),
(339,-209,o),
(388,-258,o),
(447,-258,cs)
);
},
{
closed = 1;
nodes = (
(420,-200,o),
(397,-176,o),
(397,-149,cs),
(397,-121,o),
(420,-97,o),
(447,-97,cs),
(476,-97,o),
(498,-121,o),
(498,-149,cs),
(498,-176,o),
(476,-200,o),
(447,-200,cs)
);
},
{
closed = 1;
nodes = (
(619,-258,l),
(679,-258,l),
(679,125,l),
(619,125,l)
);
},
{
closed = 1;
nodes = (
(505,125,l),
(505,125,o),
(507,125,o),
(507,125,cs),
(507,125,o),
(502,125,o),
(447,125,cs),
(388,125,o),
(339,77,o),
(339,16,cs),
(339,-43,o),
(388,-92,o),
(447,-92,cs),
(508,-92,o),
(448,-92,o),
(448,-92,c),
(448,-48,l),
(448,-48,o),
(450,-42,o),
(449,-42,cs),
(419,-42,o),
(401,-16,o),
(401,14,cs),
(401,46,o),
(425,68,o),
(456,68,cs),
(488,68,o),
(505,68,o),
(505,68,cs),
(505,68,o),
(505,79,o),
(505,79,c)
);
},
{
closed = 1;
nodes = (
(505,68,l),
(571,68,o),
(619,18,o),
(620,-49,c),
(677,-48,l),
(676,46,o),
(599,125,o),
(503,125,c)
);
}
);
width = 600;
}
);
},
{
glyphname = "gha-oriya";
layers = (
{
anchors = (
{
name = am;
pos = (680,659);
},
{
name = below;
pos = (496,-20);
},
{
name = bindu;
pos = (351,-96);
},
{
name = bottom;
pos = (636,17);
},
{
name = bottomtwo;
pos = (715,-146);
},
{
name = chanBin;
pos = (603,730);
},
{
name = hal;
pos = (686,703);
},
{
name = nukta;
pos = (351,-50);
},
{
name = reph2;
pos = (637,4);
},
{
name = reph3;
pos = (611,-258);
},
{
name = ru;
pos = (351,-7);
},
{
name = top;
pos = (351,754);
}
);
layerId = m01;
shapes = (
{
closed = 1;
nodes = (
(672,0,l),
(672,700,l),
(594,700,l),
(594,0,l)
);
},
{
closed = 1;
nodes = (
(244,388,o),
(261,388,o),
(261,388,cs),
(261,388,o),
(309,388,o),
(244,388,cs),
(180,388,o),
(128,440,o),
(128,505,cs),
(128,569,o),
(180,621,o),
(244,621,cs),
(309,621,o),
(327,621,o),
(327,621,c),
(327,699,l),
(327,699,o),
(352,699,o),
(244,699,cs),
(137,699,o),
(50,612,o),
(50,505,cs),
(50,397,o),
(137,310,o),
(244,310,cs),
(252,310,o),
(261,310,o),
(261,310,cs),
(261,310,o),
(244,310,o),
(244,310,c),
(244,388,l)
);
},
{
closed = 1;
nodes = (
(362,194,ls),
(362,194,o),
(362,194,o),
(362,194,cs),
(362,130,o),
(310,78,o),
(245,78,cs),
(181,78,o),
(129,130,o),
(129,194,cs),
(129,259,o),
(181,311,o),
(245,311,c),
(245,389,l),
(138,389,o),
(51,302,o),
(51,194,cs),
(51,87,o),
(138,0,o),
(245,0,cs),
(353,0,o),
(440,87,o),
(440,194,cs),
(440,194,o),
(440,194,o),
(440,194,cs)
);
},
{
closed = 1;
nodes = (
(360,173,l),
(361,77,o),
(413,0,o),
(509,0,cs),
(606,0,o),
(632,78,o),
(632,175,c),
(594,175,l),
(594,121,o),
(563,78,o),
(509,78,cs),
(456,78,o),
(440,120,o),
(439,173,c)
);
},
{
closed = 1;
nodes = (
(440,100,l),
(440,310,l),
(362,310,l),
(362,100,l)
);
},
{
pos = (-113,0);
ref = topright;
}
);
width = 722;
}
);
unicode = 2840;
},
{
glyphname = "gha-oriya.base";
layers = (
{
layerId = m01;
shapes = (
{
closed = 1;
nodes = (
(619,-258,l),
(679,-258,l),
(679,125,l),
(619,125,l)
);
},
{
closed = 1;
nodes = (
(623,-132,o),
(623,-175,o),
(623,-185,cs),
(623,-194,o),
(599,-203,o),
(590,-203,c),
(579,-202,o),
(554,-194,o),
(554,-184,cs),
(553,-175,o),
(554,-158,o),
(554,-144,cs),
(554,-144,o),
(555,-85,o),
(555,-85,c),
(499,-85,l),
(499,-85,o),
(499,-132,o),
(499,-132,cs),
(499,-169,o),
(499,-139,o),
(499,-189,cs),
(499,-227,o),
(551,-258,o),
(589,-258,c),
(627,-258,o),
(677,-227,o),
(677,-189,cs),
(677,-137,o),
(678,-142,o),
(677,-85,c),
(623,-85,l)
);
},
{
closed = 1;
nodes = (
(499,-150,l),
(499,-176,o),
(476,-200,o),
(447,-200,cs),
(420,-200,o),
(397,-176,o),
(397,-149,cs),
(397,-121,o),
(420,-97,o),
(447,-97,cs),
(447,-97,o),
(447,-97,o),
(447,-97,c),
(447,-41,l),
(447,-41,o),
(447,-41,o),
(447,-41,cs),
(388,-41,o),
(339,-88,o),
(339,-149,cs),
(339,-209,o),
(388,-258,o),
(447,-258,cs),
(507,-258,o),
(554,-209,o),
(554,-150,c)
);
},
{
closed = 1;
nodes = (
(505,125,l),
(505,125,o),
(507,125,o),
(507,125,cs),
(507,125,o),
(502,125,o),
(447,125,cs),
(388,125,o),
(339,77,o),
(339,16,cs),
(339,-43,o),
(388,-92,o),
(447,-92,cs),
(508,-92,o),
(448,-92,o),
(448,-92,c),
(448,-48,l),
(448,-48,o),
(450,-42,o),
(449,-42,cs),
(419,-42,o),
(401,-16,o),
(401,14,cs),
(401,46,o),
(425,68,o),
(456,68,cs),
(488,68,o),
(505,68,o),
(505,68,cs),
(505,68,o),
(505,79,o),
(505,79,c)
);
},
{
closed = 1;
nodes = (
(505,68,l),
(571,68,o),
(619,18,o),
(620,-49,c),
(677,-48,l),
(676,46,o),
(599,125,o),
(503,125,c)
);
}
);
width = 600;
}
);
},
{
glyphname = "nga-oriya";
layers = (
{
anchors = (
{
name = am;
pos = (680,659);
},
{
name = below;
pos = (496,-20);
},
{
name = bindu;
pos = (351,-96);
},
{
name = bottom;
pos = (493,17);
},
{
name = bottomtwo;
pos = (715,-146);
},
{
name = chanBin;
pos = (603,730);
},
{
name = hal;
pos = (416,703);
},
{
name = nukta;
pos = (351,-50);
},
{
name = reph2;
pos = (603,4);
},
{
name = reph3;
pos = (611,-258);
},
{
name = ru;
pos = (351,-7);
},
{
name = top;
pos = (351,754);
}
);
hints = (
{
horizontal = 1;
place = (0, 78);
place = (0, 78);
type = Stem;
},
{
horizontal = 1;
origin = (0,16);
target = (0,3);
type = Stem;
},
{
horizontal = 1;
origin = (3,5);
target = (3,11);
type = Stem;
},
{
origin = (0,6);
target = (0,13);
type = Stem;
},
{
place = (124, 71);
place = (124, 71);
type = Stem;
},
{
place = (444, 62);
place = (444, 62);
type = Stem;
},
{
origin = (3,8);
target = (3,2);
type = Stem;
}
);
layerId = m01;
shapes = (
{
closed = 1;
nodes = (
(496,657,l),
(450,684,o),
(397,699,o),
(340,699,cs),
(169,699,o),
(30,559,o),
(30,388,cs),
(30,273,o),
(92,173,o),
(184,119,c),
(197,205,l),
(143,247,o),
(108,314,o),
(108,388,cs),
(108,516,o),
(212,621,o),
(340,621,cs),
(396,621,o),
(447,601,o),
(487,569,c)
);
},
{
closed = 1;
nodes = (
(409,324,l),
(433,313,o),
(454,294,o),
(466,267,cs),
(493,209,o),
(449,116,o),
(390,89,cs),
(332,62,o),
(263,87,o),
(236,145,cs),
(208,203,o),
(233,272,o),
(291,299,c),
(258,370,l),
(161,325,o),
(120,209,o),
(165,112,cs),
(210,15,o),
(326,-27,o),
(423,18,cs),
(521,64,o),
(563,179,o),
(518,276,cs),
(497,320,o),
(463,352,o),
(423,371,c)
);
},
{
closed = 1;
nodes = (
(441,389,l),
(441,389,o),
(441,389,o),
(441,389,cs),
(372,320,o),
(353,300,o),
(318,265,c),
(373,210,l),
(401,238,o),
(458,296,o),
(496,334,cs),
(496,334,o),
(496,334,o),
(496,334,c)
);
},
{
closed = 1;
nodes = (
(605,490,o),
(652,537,o),
(652,595,cs),
(652,653,o),
(605,700,o),
(547,700,cs),
(489,700,o),
(442,653,o),
(442,595,cs),
(442,537,o),
(489,490,o),
(547,490,cs)
);
},
{
closed = 1;
nodes = (
(532,568,o),
(520,580,o),
(520,595,cs),
(520,610,o),
(532,622,o),
(547,622,cs),
(562,622,o),
(574,610,o),
(574,595,cs),
(574,580,o),
(562,568,o),
(547,568,cs)
);
}
);
width = 682;
}
);
unicode = 2841;
},
{
glyphname = "ca-oriya";
layers = (
{
anchors = (
{
name = am;
pos = (680,659);
},
{
name = below;
pos = (496,-20);
},
{
name = bindu;
pos = (351,-96);
},
{
name = bottom;
pos = (493,17);
},
{
name = bottomtwo;
pos = (715,-146);
},
{
name = chanBin;
pos = (548,702);
},
{
name = hal;
pos = (416,703);
},
{
name = nukta;
pos = (351,-50);
},
{
name = reph2;
pos = (613,4);
},
{
name = reph3;
pos = (611,-258);
},
{
name = ru;
pos = (351,-7);
},
{
name = top;
pos = (351,754);
}
);
layerId = m01;
shapes = (
{
closed = 1;
nodes = (
(450,0,o),
(537,87,o),
(537,194,cs),
(537,302,o),
(450,389,o),
(342,389,cs),
(235,389,o),
(148,302,o),
(148,194,cs),
(148,87,o),
(235,0,o),
(342,0,cs)
);
},
{
closed = 1;
nodes = (
(278,78,o),
(226,130,o),
(226,194,cs),
(226,259,o),
(278,311,o),
(342,311,cs),
(407,311,o),
(459,259,o),
(459,194,cs),
(459,130,o),
(407,78,o),
(342,78,cs)
);
},
{
closed = 1;
nodes = (
(197,205,l),
(143,247,o),
(108,314,o),
(108,388,cs),
(108,516,o),
(212,621,o),
(340,621,cs),
(469,621,o),
(573,517,o),
(574,389,c),
(652,389,l),
(651,560,o),
(512,699,o),
(340,699,cs),
(169,699,o),
(30,559,o),
(30,388,cs),
(30,273,o),
(92,173,o),
(184,119,c)
);
}
);
width = 682;
}
);
unicode = 2842;
},
{
glyphname = "ca-oriya.base";
layers = (
{
layerId = m01;
shapes = (
{
closed = 1;
nodes = (
(621,-258,o),
(672,-209,o),
(672,-149,cs),
(672,-88,o),
(621,-41,o),
(561,-41,cs),
(502,-41,o),
(453,-88,o),
(453,-149,cs),
(453,-209,o),
(502,-258,o),
(561,-258,cs)
);
},
{
closed = 1;
nodes = (
(534,-200,o),
(511,-176,o),
(511,-149,cs),
(511,-121,o),
(534,-97,o),
(561,-97,cs),
(590,-97,o),
(612,-121,o),
(612,-149,cs),
(612,-176,o),
(590,-200,o),
(561,-200,cs)
);
},
{
closed = 1;
nodes = (
(491,-126,l),
(465,-106,o),
(449,-75,o),
(449,-41,cs),
(449,21,o),
(499,72,o),
(561,72,c),
(623,72,o),
(672,23,o),
(673,-39,c),
(735,-41,l),
(734,53,o),
(657,132,o),
(561,132,cs),
(465,132,o),
(387,53,o),
(387,-43,cs),
(387,-106,o),
(421,-160,o),
(475,-191,c)
);
},
{
closed = 1;
nodes = (
(621,-258,o),
(672,-209,o),
(672,-149,cs),
(672,-88,o),
(621,-41,o),
(561,-41,cs),
(502,-41,o),
(453,-88,o),
(453,-149,cs),
(453,-209,o),
(502,-258,o),
(561,-258,cs)
);
},
{
closed = 1;
nodes = (
(534,-200,o),
(511,-176,o),
(511,-149,cs),
(511,-121,o),
(534,-97,o),
(561,-97,cs),
(590,-97,o),
(612,-121,o),
(612,-149,cs),
(612,-176,o),
(590,-200,o),
(561,-200,cs)
);
},
{
closed = 1;
nodes = (
(491,-126,l),
(465,-106,o),
(449,-75,o),
(449,-41,cs),
(449,21,o),
(499,72,o),
(561,72,c),
(623,72,o),
(672,23,o),
(673,-39,c),
(735,-41,l),
(734,53,o),
(657,132,o),
(561,132,cs),
(465,132,o),
(387,53,o),
(387,-43,cs),
(387,-106,o),
(421,-160,o),
(475,-191,c)
);
}
);
width = 600;
}
);
},
{
glyphname = "cha-oriya";
layers = (
{
anchors = (
{
name = am;
pos = (680,659);
},
{
name = below;
pos = (496,-20);
},
{
name = bindu;
pos = (351,-96);
},
{
name = bottom;
pos = (383,-3);
},
{
name = bottomtwo;
pos = (715,-146);
},
{
name = chanBin;
pos = (548,702);
},
{
name = hal;
pos = (416,703);
},
{
name = nukta;
pos = (351,-50);
},
{
name = reph2;
pos = (613,4);
},
{
name = reph3;
pos = (611,-258);
},
{
name = ru;
pos = (351,-7);
},
{
name = top;
pos = (351,754);
}
);
layerId = m01;
shapes = (
{
closed = 1;
nodes = (
(470,110,o),
(557,197,o),
(557,304,cs),
(557,412,o),
(470,499,o),
(362,499,cs),
(255,499,o),
(168,412,o),
(168,304,cs),
(168,197,o),
(255,110,o),
(362,110,cs)
);
},
{
closed = 1;
nodes = (
(298,188,o),
(246,240,o),
(246,304,cs),
(246,369,o),
(298,421,o),
(362,421,cs),
(427,421,o),
(479,369,o),
(479,304,cs),
(479,240,o),
(427,188,o),
(362,188,cs)
);
},
{
closed = 1;
nodes = (
(278,222,l),
(224,264,o),
(128,284,o),
(128,388,cs),
(128,516,o),
(232,621,o),
(360,621,cs),
(489,621,o),
(593,517,o),
(594,389,c),
(672,389,l),
(671,560,o),
(532,699,o),
(360,699,cs),
(189,699,o),
(50,559,o),
(50,388,cs),
(50,243,o),
(173,190,o),
(265,136,c)
);
},
{
closed = 1;
nodes = (
(361,87,l),
(384,35,o),
(452,0,o),
(545,0,cs),
(614,0,o),
(670,65,o),
(670,143,c),
(669,222,o),
(609,311,o),
(545,287,cs),
(431,244,o),
(525,235,o),
(458,234,cs),
(458,234,o),
(458,234,o),
(458,234,c),
(458,166,l),
(458,166,o),
(458,166,o),
(458,166,cs),
(495,167,o),
(520,209,o),
(544,209,cs),
(561,209,o),
(592,191,o),
(592,142,c),
(592,97,o),
(560,78,o),
(545,78,cs),
(520,78,o),
(394,88,o),
(361,175,c)
);
},
{
closed = 1;
nodes = (
(328,88,o),
(202,78,o),
(177,78,cs),
(162,78,o),
(130,97,o),
(130,142,c),
(130,191,o),
(161,209,o),
(178,209,cs),
(202,209,o),
(227,167,o),
(264,166,cs),
(264,166,o),
(264,166,o),
(264,166,c),
(264,234,l),
(264,234,o),
(264,234,o),
(264,234,cs),
(197,235,o),
(291,244,o),
(177,287,cs),
(113,311,o),
(53,222,o),
(52,143,c),
(52,65,o),
(108,0,o),
(177,0,cs),
(270,0,o),
(338,35,o),
(361,87,c),
(361,175,l)
);
}
);
width = 722;
}
);
unicode = 2843;
},
{
glyphname = "cha-oriya.base";
layers = (
{
layerId = m01;
shapes = (
{
closed = 1;
nodes = (
(621,-258,o),
(672,-209,o),
(672,-149,cs),
(672,-88,o),
(621,-41,o),
(561,-41,cs),
(502,-41,o),
(453,-88,o),
(453,-149,cs),
(453,-209,o),
(502,-258,o),
(561,-258,cs)
);
},
{
closed = 1;
nodes = (
(534,-200,o),
(511,-176,o),
(511,-149,cs),
(511,-121,o),
(534,-97,o),
(561,-97,cs),
(590,-97,o),
(612,-121,o),
(612,-149,cs),
(612,-176,o),
(590,-200,o),
(561,-200,cs)
);
},
{
closed = 1;
nodes = (
(491,-126,l),
(465,-106,o),
(449,-75,o),
(449,-41,cs),
(449,21,o),
(499,72,o),
(561,72,c),
(623,72,o),
(672,23,o),
(673,-39,c),
(735,-41,l),
(734,53,o),
(657,132,o),
(561,132,cs),
(465,132,o),
(387,53,o),
(387,-43,cs),
(387,-106,o),
(421,-160,o),
(475,-191,c)
);
},
{
closed = 1;
nodes = (
(621,-258,o),
(672,-209,o),
(672,-149,cs),
(672,-88,o),
(621,-41,o),
(561,-41,cs),
(502,-41,o),
(453,-88,o),
(453,-149,cs),
(453,-209,o),
(502,-258,o),
(561,-258,cs)
);
},
{
closed = 1;
nodes = (
(534,-200,o),
(511,-176,o),
(511,-149,cs),
(511,-121,o),
(534,-97,o),
(561,-97,cs),
(590,-97,o),
(612,-121,o),
(612,-149,cs),
(612,-176,o),
(590,-200,o),
(561,-200,cs)
);
},
{
closed = 1;
nodes = (
(491,-126,l),
(465,-106,o),
(449,-75,o),
(449,-41,cs),
(449,21,o),
(499,72,o),
(561,72,c),
(623,72,o),
(672,23,o),
(673,-39,c),
(735,-41,l),
(734,53,o),
(657,132,o),
(561,132,cs),
(465,132,o),
(387,53,o),
(387,-43,cs),
(387,-106,o),
(421,-160,o),
(475,-191,c)
);
},
{
closed = 1;
nodes = (
(542,-336,o),
(574,-306,o),
(574,-269,cs),
(574,-232,o),
(542,-203,o),
(506,-203,cs),
(469,-203,o),
(439,-232,o),
(439,-269,cs),
(439,-306,o),
(469,-336,o),
(506,-336,cs)
);
},
{
closed = 1;
nodes = (
(494,-292,o),
(484,-281,o),
(484,-269,cs),
(484,-257,o),
(494,-246,o),
(506,-246,cs),
(518,-246,o),
(528,-257,o),
(528,-269,cs),
(528,-281,o),
(518,-292,o),
(506,-292,cs)
);
},
{
closed = 1;
nodes = (
(652,-336,o),
(684,-306,o),
(684,-269,cs),
(684,-232,o),
(652,-203,o),
(616,-203,cs),
(579,-203,o),
(549,-232,o),
(549,-269,cs),
(549,-306,o),
(579,-336,o),
(616,-336,cs)
);
},
{
closed = 1;
nodes = (
(604,-292,o),
(594,-281,o),
(594,-269,cs),
(594,-257,o),
(604,-246,o),
(616,-246,cs),
(628,-246,o),
(638,-257,o),
(638,-269,cs),
(638,-281,o),
(628,-292,o),
(616,-292,cs)
);
}
);
width = 600;
}
);
},
{
glyphname = "ja-oriya";
layers = (
{
anchors = (
{
name = am;
pos = (680,659);
},
{
name = below;
pos = (496,-20);
},
{
name = bindu;
pos = (351,-96);
},
{
name = bottom;
pos = (633,17);
},
{
name = bottomtwo;
pos = (715,-146);
},
{
name = chanBin;
pos = (548,702);
},
{
name = hal;
pos = (686,703);
},
{
name = nukta;
pos = (351,-50);
},
{
name = reph2;
pos = (634,4);
},
{
name = reph3;
pos = (611,-258);
},
{
name = ru;
pos = (351,-7);
},
{
name = top;
pos = (351,754);
}
);
layerId = m01;
shapes = (
{
closed = 1;
nodes = (
(414,700,l),
(414,700,o),
(421,700,o),
(421,700,cs),
(421,700,o),
(412,700,o),
(244,700,cs),
(137,700,o),
(50,613,o),
(50,505,cs),
(50,398,o),
(137,311,o),
(244,311,cs),
(352,311,o),
(245,311,o),
(245,311,c),
(245,389,l),
(245,389,o),
(309,389,o),
(244,389,cs),
(180,389,o),
(128,441,o),
(128,505,cs),
(128,570,o),
(180,622,o),
(244,622,cs),
(309,622,o),
(421,622,o),
(421,622,cs),
(421,622,o),
(414,622,o),
(414,622,c)
);
},
{
closed = 1;
nodes = (
(361,190,l),
(439,190,l),
(439,349,l),
(413,349,o),
(387,349,o),
(361,349,c)
);
},
{
closed = 1;
nodes = (
(592,0,l),
(670,0,l),
(670,389,l),
(592,389,l)
);
},
{
closed = 1;
nodes = (
(670,505,l),
(670,505,o),
(670,505,o),
(670,505,cs),
(670,613,o),
(583,700,o),
(476,700,cs),
(328,700,o),
(319,700,o),
(319,700,cs),
(319,700,o),
(296,700,o),
(296,700,c),
(296,622,l),
(296,622,o),
(319,622,o),
(319,622,cs),
(319,622,o),
(411,622,o),
(476,622,cs),
(540,622,o),
(592,570,o),
(592,505,cs),
(592,505,o),
(592,505,o),
(592,505,c)
);
},
{
closed = 1;
nodes = (
(361,194,l),
(361,130,o),
(309,78,o),
(244,78,cs),
(180,78,o),
(128,130,o),
(128,194,cs),
(128,259,o),
(180,311,o),
(244,311,cs),
(244,311,o),
(244,311,o),
(244,311,c),
(244,389,l),
(244,389,o),
(244,389,o),
(244,389,cs),
(137,389,o),
(50,302,o),
(50,194,cs),
(50,87,o),
(137,0,o),
(244,0,cs),
(352,0,o),
(439,87,o),
(439,194,c)
);
},
{
closed = 1;
nodes = (
(592,311,l),
(592,389,l),
(361,349,l),
(361,271,l)
);
}
);
width = 720;
}
);
unicode = 2844;
},
{
glyphname = "ja-oriya.base";
layers = (
{
guides = (
{
angle = 270;
pos = (398,-84);
}
);
layerId = m01;
shapes = (
{
closed = 1;
nodes = (
(498,-141,l),
(558,-141,l),
(558,-61,l),
(544,-61,o),
(512,-61,o),
(498,-61,c)
);
},
{
closed = 1;
nodes = (
(626,-255,l),
(686,-255,l),
(686,-38,l),
(626,-38,l)
);
},
{
closed = 1;
nodes = (
(626,-92,l),
(626,-38,l),
(498,-61,l),
(498,-114,l)
);
},
{
closed = 1;
nodes = (
(498,-140,l),
(497,-167,o),
(476,-190,o),
(447,-190,cs),
(420,-190,o),
(397,-166,o),
(397,-139,cs),
(397,-111,o),
(420,-87,o),
(447,-87,c),
(447,-31,l),
(388,-31,o),
(339,-78,o),
(339,-139,cs),
(339,-199,o),
(388,-248,o),
(447,-248,cs),
(507,-248,o),
(557,-200,o),
(558,-140,c)
);
}
);
width = 600;
}
);
},
{
glyphname = "jha-oriya";
layers = (
{
anchors = (
{
name = am;
pos = (680,659);
},
{
name = below;
pos = (496,-20);
},
{
name = bindu;
pos = (351,-96);
},
{
name = bottom;
pos = (493,17);
},
{
name = bottomtwo;
pos = (715,-146);
},
{
name = chanBin;
pos = (548,702);
},
{
name = hal;
pos = (416,703);
},
{
name = nukta;
pos = (351,-50);
},
{
name = reph2;
pos = (613,4);
},
{
name = reph3;
pos = (611,-258);
},
{
name = ru;
pos = (351,-7);
},
{
name = top;
pos = (351,754);
}
);
layerId = m01;
shapes = (
{
closed = 1;
nodes = (
(409,0,o),
(468,33,o),
(503,84,c),
(601,84,l),
(651,162,l),
(534,162,l),
(536,172,o),
(537,183,o),
(537,194,cs),
(537,302,o),
(450,389,o),
(342,389,cs),
(254,389,o),
(179,330,o),
(156,248,c),
(126,287,o),
(108,336,o),
(108,389,cs),
(108,517,o),
(212,622,o),
(340,622,c),
(340,616,ls),
(340,549,o),
(340,603,o),
(340,514,cs),
(340,446,o),
(415,390,o),
(484,389,cs),
(552,389,o),
(629,445,o),
(629,514,cs),
(629,607,o),
(630,598,o),
(629,700,c),
(552,700,l),
(553,647,o),
(551,539,o),
(551,514,cs),
(551,489,o),
(509,467,o),
(485,467,cs),
(458,468,o),
(418,488,o),
(419,515,c),
(417,539,o),
(420,579,o),
(420,616,cs),
(420,700,l),
(340,700,ls),
(169,700,o),
(30,560,o),
(30,389,cs),
(30,286,o),
(80,195,o),
(156,138,c),
(180,58,o),
(254,0,o),
(342,0,cs)
);
},
{
closed = 1;
nodes = (
(226,259,o),
(278,311,o),
(342,311,cs),
(407,311,o),
(459,259,o),
(459,194,cs),
(459,130,o),
(407,78,o),
(342,78,cs),
(278,78,o),
(226,130,o),
(226,194,cs)
);
}
);
width = 681;
}
);
unicode = 2845;
},
{
glyphname = "jha-oriya.base";
layers = (
{
layerId = m01;
shapes = (
{
closed = 1;
nodes = (
(501,-255,o),
(542,-224,o),
(556,-180,c),
(581,-180,l),
(609,-117,l),
(557,-117,l),
(544,-71,o),
(502,-38,o),
(452,-38,cs),
(413,-38,o),
(379,-59,o),
(360,-90,c),
(348,-75,o),
(341,-55,o),
(341,-34,cs),
(341,17,o),
(382,58,o),
(432,58,cs),
(435,58,o),
(443,58,o),
(451,59,c),
(451,31,ls),
(451,-7,o),
(493,-38,o),
(531,-38,cs),
(569,-38,o),
(612,-7,o),
(612,31,cs),
(612,83,o),
(613,78,o),
(612,135,c),
(558,135,l),
(558,35,ls),
(558,26,o),
(541,17,o),
(532,17,cs),
(521,18,o),
(506,26,o),
(506,36,cs),
(505,45,o),
(506,62,o),
(506,76,cs),
(507,135,l),
(451,135,ls),
(356,135,o),
(279,57,o),
(279,-38,cs),
(279,-95,o),
(306,-146,o),
(348,-178,c),
(362,-223,o),
(403,-255,o),
(452,-255,cs)
);
},
{
closed = 1;
nodes = (
(407,-121,o),
(427,-101,o),
(452,-101,cs),
(479,-101,o),
(499,-121,o),
(499,-147,cs),
(499,-173,o),
(479,-193,o),
(452,-193,cs),
(427,-193,o),
(407,-173,o),
(407,-147,cs)
);
}
);
width = 600;
}
);
},
{
glyphname = "nya-oriya";
layers = (
{
anchors = (
{
name = am;
pos = (680,659);
},
{
name = below;
pos = (496,-20);
},
{
name = bindu;
pos = (351,-96);
},
{
name = bottom;
pos = (643,-3);
},
{
name = bottomtwo;
pos = (715,-146);
},
{
name = chanBin;
pos = (648,702);
},
{
name = hal;
pos = (536,703);
},
{
name = nukta;
pos = (351,-50);
},
{
name = reph2;
pos = (613,4);
},
{
name = reph3;
pos = (611,-258);
},
{
name = ru;
pos = (351,-7);
},
{
name = top;
pos = (351,754);
}
);
guides = (
{
angle = -90;
pos = (695,497);
},
{
pos = (1037,350);
},
{
angle = 270;
pos = (434,564);
}
);
hints = (
{
horizontal = 1;
place = (3, 78);
place = (3, 78);
type = Stem;
},
{
horizontal = 1;
place = (318, 71);
place = (318, 71);
type = Stem;
},
{
horizontal = 1;
place = (620, 80);
place = (620, 80);
type = Stem;
},
{
horizontal = 1;
place = (190, 187);
place = (190, 187);
type = Stem;
},
{
horizontal = 1;
place = (311, 66);
place = (311, 66);
type = Stem;
},
{
horizontal = 1;
place = (618, 81);
place = (618, 81);
type = Stem;
},
{
horizontal = 1;
place = (440, 192);
place = (440, 192);
type = Stem;
},
{
place = (37, 86);
place = (37, 86);
type = Stem;
},
{
place = (225, 80);
place = (225, 80);
type = Stem;
},
{
place = (398, 69);
place = (398, 69);
type = Stem;
},
{
place = (576, 78);
place = (576, 78);
type = Stem;
}
);
layerId = m01;
shapes = (
{
closed = 1;
nodes = (
(54,118,o),
(256,0,o),
(428,0,cs),
(611,0,o),
(776,65,o),
(776,221,cs),
(776,275,ls),
(776,326,o),
(741,369,o),
(691,389,c),
(741,421,o),
(776,469,o),
(776,521,cs),
(776,575,ls),
(776,644,o),
(711,700,o),
(633,700,cs),
(592,699,o),
(554,684,o),
(528,660,c),
(502,684,o),
(464,700,o),
(423,700,cs),
(344,699,o),
(279,643,o),
(279,575,cs),
(279,473,l),
(357,473,l),
(357,574,ls),
(357,591,o),
(375,622,o),
(424,622,cs),
(469,622,o),
(488,590,o),
(488,575,cs),
(488,473,l),
(567,473,l),
(567,574,ls),
(567,591,o),
(585,622,o),
(634,622,cs),
(679,622,o),
(698,590,o),
(698,575,cs),
(698,524,ls),
(698,478,o),
(629,423,o),
(547,420,cs),
(436,416,o),
(312,415,o),
(232,461,cs),
(197,481,o),
(171,507,o),
(158,543,c),
(172,593,o),
(192,645,o),
(221,700,c),
(136,700,l),
(27,459,o),
(53,331,o),
(53,312,cs)
);
},
{
closed = 1;
nodes = (
(131,347,o),
(131,396,o),
(139,452,c),
(154,426,o),
(175,412,o),
(197,394,cs),
(220,376,o),
(262,363,o),
(314,355,c),
(292,334,o),
(279,305,o),
(279,275,cs),
(279,173,l),
(357,173,l),
(357,274,ls),
(357,291,o),
(375,322,o),
(424,322,cs),
(469,322,o),
(488,290,o),
(488,275,cs),
(488,173,l),
(567,173,l),
(567,274,ls),
(567,291,o),
(585,322,o),
(634,322,cs),
(679,322,o),
(698,290,o),
(698,275,cs),
(698,224,ls),
(698,132,o),
(564,81,o),
(431,81,cs),
(302,81,o),
(140,183,o),
(133,310,cs)
);
}
);
width = 827;
}
);
unicode = 2846;
},
{
glyphname = "tta-oriya";
layers = (
{
anchors = (
{
name = am;
pos = (680,659);
},
{
name = below;
pos = (496,-20);
},
{
name = bindu;
pos = (351,-96);
},
{
name = bottom;
pos = (493,17);
},
{
name = bottomtwo;
pos = (715,-146);
},
{
name = chanBin;
pos = (548,702);
},
{
name = hal;
pos = (416,703);
},
{
name = nukta;
pos = (351,-50);
},
{
name = reph2;
pos = (613,4);
},
{
name = reph3;
pos = (611,-258);
},
{
name = ru;
pos = (351,-7);
},
{
name = top;
pos = (351,754);
}
);
layerId = m01;
shapes = (
{
closed = 1;
nodes = (
(450,0,o),
(537,87,o),
(537,194,cs),
(537,302,o),
(450,389,o),
(342,389,cs),
(235,389,o),
(148,302,o),
(148,194,cs),
(148,87,o),
(235,0,o),
(342,0,cs)
);
},
{
closed = 1;
nodes = (
(278,78,o),
(226,130,o),
(226,194,cs),
(226,259,o),
(278,311,o),
(342,311,cs),
(407,311,o),
(459,259,o),
(459,194,cs),
(459,130,o),
(407,78,o),
(342,78,cs)
);
},
{
closed = 1;
nodes = (
(197,205,l),
(143,247,o),
(108,314,o),
(108,388,cs),
(108,516,o),
(212,621,o),
(340,621,cs),
(469,621,o),
(573,517,o),
(574,389,c),
(652,389,l),
(651,560,o),
(512,699,o),
(340,699,cs),
(169,699,o),
(30,559,o),
(30,388,cs),
(30,273,o),
(92,173,o),
(184,119,c)
);
},
{
closed = 1;
nodes = (
(651,389,l),
(651,653,l),
(573,703,l),
(573,389,l)
);
}
);
width = 682;
}
);
unicode = 2847;
},
{
glyphname = "tta-oriya.base";
layers = (
{
layerId = m01;
shapes = (
{
closed = 1;
nodes = (
(621,-258,o),
(672,-209,o),
(672,-149,cs),
(672,-88,o),
(621,-41,o),
(561,-41,cs),
(502,-41,o),
(453,-88,o),
(453,-149,cs),
(453,-209,o),
(502,-258,o),
(561,-258,cs)
);
},
{
closed = 1;
nodes = (
(534,-200,o),
(511,-176,o),
(511,-149,cs),
(511,-121,o),
(534,-97,o),
(561,-97,cs),
(590,-97,o),
(612,-121,o),
(612,-149,cs),
(612,-176,o),
(590,-200,o),
(561,-200,cs)
);
},
{
closed = 1;
nodes = (
(491,-126,l),
(465,-106,o),
(449,-75,o),
(449,-41,cs),
(449,21,o),
(499,72,o),
(561,72,c),
(623,72,o),
(672,23,o),
(673,-39,c),
(735,-41,l),
(734,53,o),
(657,132,o),
(561,132,cs),
(465,132,o),
(387,53,o),
(387,-43,cs),
(387,-106,o),
(421,-160,o),
(475,-191,c)
);
},
{
closed = 1;
nodes = (
(735,-39,l),
(735,109,l),
(672,137,l),
(672,-39,l)
);
}
);
width = 600;
}
);
},
{
glyphname = "ttha-oriya";
layers = (
{
anchors = (
{
name = am;
pos = (680,659);
},
{
name = below;
pos = (496,-20);
},
{
name = bindu;
pos = (351,-96);
},
{
name = bottom;
pos = (343,-3);
},
{
name = bottomtwo;
pos = (715,-146);
},
{
name = chanBin;
pos = (548,702);
},
{
name = hal;
pos = (466,703);
},
{
name = nukta;
pos = (351,-50);
},
{
name = reph2;
pos = (613,4);
},
{
name = reph3;
pos = (611,-258);
},
{
name = ru;
pos = (351,-7);
},
{
name = top;
pos = (351,754);
}
);
layerId = m01;
shapes = (
{
closed = 1;
nodes = (
(573,0,o),
(730,157,o),
(730,350,cs),
(730,543,o),
(573,700,o),
(380,700,c),
(187,700,o),
(30,543,o),
(30,350,cs),
(30,157,o),
(187,0,o),
(380,0,cs)
);
},
{
closed = 1;
nodes = (
(233,78,o),
(111,203,o),
(111,352,cs),
(111,500,o),
(233,622,o),
(382,622,c),
(530,622,o),
(652,500,o),
(652,352,cs),
(652,203,o),
(530,78,o),
(382,78,cs)
);
}
);
width = 760;
}
);
unicode = 2848;
},
{
glyphname = "ttha-oriya.base";
layers = (
{
layerId = m01;
shapes = (
{
closed = 1;
nodes = (
(738,-258,o),
(825,-171,o),
(825,-63,cs),
(825,45,o),
(738,132,o),
(630,132,c),
(522,132,o),
(435,45,o),
(435,-63,cs),
(435,-171,o),
(522,-258,o),
(630,-258,cs)
);
},
{
closed = 1;
nodes = (
(559,-194,o),
(500,-134,o),
(500,-62,cs),
(500,9,o),
(559,68,o),
(631,68,c),
(703,68,o),
(761,9,o),
(761,-62,cs),
(761,-134,o),
(703,-194,o),
(631,-194,cs)
);
}
);
width = 760;
}
);
},
{
glyphname = "dda-oriya";
layers = (
{
anchors = (
{
name = am;
pos = (680,659);
},
{
name = below;
pos = (496,-20);
},
{
name = bindu;
pos = (351,-96);
},
{
name = bottom;
pos = (493,17);
},
{
name = bottomtwo;
pos = (715,-146);
},
{
name = chanBin;
pos = (548,702);
},
{
name = hal;
pos = (416,703);
},
{
name = nukta;
pos = (351,-50);
},
{
name = reph2;
pos = (613,4);
},
{
name = reph3;
pos = (611,-258);
},
{
name = ru;
pos = (351,-7);
},
{
name = top;
pos = (351,754);
}
);
layerId = m01;
shapes = (
{
closed = 1;
nodes = (
(197,205,l),
(143,247,o),
(108,314,o),
(108,388,cs),
(108,516,o),
(212,621,o),
(340,621,cs),
(469,621,o),
(573,517,o),
(574,389,c),
(652,389,l),
(651,560,o),
(512,699,o),
(340,699,cs),
(169,699,o),
(30,559,o),
(30,388,cs),
(30,273,o),
(92,173,o),
(184,119,c)
);
},
{
closed = 1;
nodes = (
(409,324,l),
(433,313,o),
(454,294,o),
(466,267,cs),
(493,209,o),
(449,116,o),
(390,89,cs),
(332,62,o),
(263,87,o),
(236,145,cs),
(208,203,o),
(233,272,o),
(291,299,c),
(258,370,l),
(161,325,o),
(120,209,o),
(165,112,cs),
(210,15,o),
(326,-27,o),
(423,18,cs),
(521,64,o),
(563,179,o),
(518,276,cs),
(497,320,o),
(463,352,o),
(423,371,c)
);
},
{
closed = 1;
nodes = (
(441,389,l),
(441,389,o),
(441,389,o),
(441,389,cs),
(372,320,o),
(353,300,o),
(318,265,c),
(373,210,l),
(401,238,o),
(458,296,o),
(496,334,cs),
(496,334,o),
(496,334,o),
(496,334,c)
);
}
);
width = 682;
}
);
unicode = 2849;
},
{
glyphname = "dda-oriya.base";
layers = (
{
layerId = m01;
shapes = (
{
closed = 1;
nodes = (
(491,-126,l),
(465,-106,o),
(449,-75,o),
(449,-41,cs),
(449,21,o),
(499,72,o),
(561,72,c),
(623,72,o),
(672,23,o),
(673,-39,c),
(735,-41,l),
(734,53,o),
(657,132,o),
(561,132,cs),
(465,132,o),
(387,53,o),
(387,-43,cs),
(387,-106,o),
(421,-160,o),
(475,-191,c)
);
},
{
closed = 1;
nodes = (
(592,-167,l),
(669,-88,l),
(628,-48,l),
(550,-128,l)
);
},
{
closed = 1;
nodes = (
(594,-109,l),
(605,-119,o),
(612,-133,o),
(612,-149,cs),
(612,-176,o),
(590,-200,o),
(561,-200,cs),
(534,-200,o),
(511,-176,o),
(511,-149,cs),
(511,-133,o),
(519,-118,o),
(531,-108,c),
(501,-59,l),
(472,-78,o),
(453,-111,o),
(453,-149,cs),
(453,-209,o),
(502,-258,o),
(561,-258,cs),
(621,-258,o),
(672,-209,o),
(672,-149,cs),
(672,-111,o),
(652,-78,o),
(622,-59,c)
);
}
);
width = 600;
}
);
},
{
glyphname = "ddha-oriya";
layers = (
{
anchors = (
{
name = am;
pos = (680,659);
},
{
name = below;
pos = (496,-20);
},
{
name = bindu;
pos = (351,-96);
},
{
name = bottom;
pos = (493,17);
},
{
name = bottomtwo;
pos = (715,-146);
},
{
name = chanBin;
pos = (548,702);
},
{
name = hal;
pos = (416,703);
},
{
name = nukta;
pos = (351,-50);
},
{
name = reph2;
pos = (613,4);
},
{
name = reph3;
pos = (611,-258);
},
{
name = ru;
pos = (351,-7);
},
{
name = top;
pos = (351,754);
}
);
guides = (
{
angle = 225;
pos = (365,239);
},
{
pos = (719,204);
}
);
hints = (
{
horizontal = 1;
origin = (2,19);
target = (2,6);
type = Stem;
},
{
horizontal = 1;
origin = (1,28);
target = (1,6);
type = Stem;
},
{
horizontal = 1;
origin = (0,6);
target = (0,13);
type = Stem;
},
{
origin = (0,16);
target = (0,3);
type = Stem;
},
{
origin = (1,12);
target = (1,25);
type = Stem;
},
{
origin = (1,31);
target = (2,22);
type = Stem;
}
);
layerId = m01;
shapes = (
{
closed = 1;
nodes = (
(168,205,l),
(114,247,o),
(79,314,o),
(79,388,cs),
(79,516,o),
(183,621,o),
(311,621,cs),
(440,621,o),
(544,517,o),
(545,389,c),
(623,389,l),
(622,560,o),
(483,699,o),
(311,699,cs),
(140,699,o),
(1,559,o),
(1,388,cs),
(1,273,o),
(63,173,o),
(155,119,c)
);
},
{
closed = 1;
nodes = (
(508,204,l),
(508,204,o),
(508,204,o),
(508,204,cs),
(508,274,o),
(452,330,o),
(382,330,cs),
(326,330,o),
(278,294,o),
(262,243,cs),
(258,231,o),
(256,218,o),
(256,204,cs),
(256,134,o),
(312,78,o),
(382,78,cs),
(452,78,o),
(496,78,o),
(542,78,c),
(592,156,l),
(559,156,o),
(409,156,o),
(382,156,cs),
(355,156,o),
(334,177,o),
(334,204,cs),
(334,231,o),
(355,252,o),
(382,252,cs),
(409,252,o),
(430,231,o),
(430,204,cs),
(430,204,o),
(430,204,o),
(430,204,c)
);
},
{
closed = 1;
nodes = (
(430,204,l),
(430,201,o),
(430,197,o),
(430,194,cs),
(430,130,o),
(378,78,o),
(313,78,cs),
(249,78,o),
(197,130,o),
(197,194,cs),
(197,232,o),
(214,265,o),
(241,286,c),
(209,358,l),
(155,324,o),
(119,263,o),
(119,194,cs),
(119,87,o),
(206,0,o),
(313,0,cs),
(421,0,o),
(508,87,o),
(508,194,cs),
(508,197,o),
(508,201,o),
(508,204,c)
);
}
);
width = 600;
}
);
unicode = 2850;
},
{
glyphname = "ddha-oriya.base";
layers = (
{
hints = (
{
horizontal = 1;
origin = (0,13);
place = (132, 43);
type = Stem;
},
{
horizontal = 1;
origin = (1,28);
target = (1,6);
type = Stem;
},
{
horizontal = 1;
place = (501, 44);
place = (501, 44);
type = Stem;
},
{
place = (138, 44);
place = (138, 44);
type = Stem;
},
{
origin = (1,12);
target = (1,25);
type = Stem;
},
{
origin = (1,31);
target = (0,3);
type = Stem;
}
);
layerId = m01;
shapes = (
{
closed = 1;
nodes = (
(491,-126,l),
(465,-106,o),
(449,-75,o),
(449,-41,cs),
(449,21,o),
(499,72,o),
(561,72,c),
(623,72,o),
(672,23,o),
(673,-39,c),
(735,-41,l),
(734,53,o),
(657,132,o),
(561,132,cs),
(465,132,o),
(387,53,o),
(387,-43,cs),
(387,-106,o),
(421,-160,o),
(475,-191,c)
);
},
{
closed = 1;
nodes = (
(672,-150,l),
(672,-150,o),
(672,-150,o),
(672,-150,cs),
(672,-111,o),
(641,-79,o),
(602,-79,cs),
(571,-79,o),
(544,-99,o),
(535,-128,cs),
(533,-135,o),
(532,-142,o),
(532,-150,cs),
(532,-189,o),
(563,-220,o),
(602,-220,cs),
(641,-220,o),
(666,-220,o),
(691,-220,c),
(715,-159,l),
(698,-159,o),
(609,-158,o),
(604,-158,cs),
(599,-158,o),
(596,-154,o),
(596,-150,cs),
(596,-145,o),
(599,-141,o),
(604,-141,cs),
(609,-141,o),
(612,-145,o),
(612,-150,cs),
(612,-150,o),
(612,-150,o),
(612,-150,c)
);
},
{
closed = 1;
nodes = (
(612,-149,ls),
(612,-149,o),
(612,-149,o),
(612,-149,cs),
(612,-176,o),
(590,-200,o),
(561,-200,cs),
(534,-200,o),
(511,-176,o),
(511,-149,cs),
(511,-133,o),
(519,-118,o),
(531,-108,c),
(501,-59,l),
(472,-78,o),
(453,-111,o),
(453,-149,cs),
(453,-209,o),
(502,-258,o),
(561,-258,cs),
(621,-258,o),
(672,-209,o),
(672,-149,cs),
(672,-149,o),
(672,-149,o),
(672,-149,cs)
);
}
);
width = 600;
}
);
},
{
glyphname = "nna-oriya";
layers = (
{
anchors = (
{
name = am;
pos = (680,659);
},
{
name = below;
pos = (496,-20);
},
{
name = bindu;
pos = (351,-96);
},
{
name = bottom;
pos = (635,17);
},
{
name = bottomtwo;
pos = (715,-146);
},
{
name = chanBin;
pos = (548,702);
},
{
name = hal;
pos = (686,703);
},
{
name = nukta;
pos = (351,-50);
},
{
name = reph2;
pos = (636,4);
},
{
name = reph3;
pos = (611,-258);
},
{
name = ru;
pos = (351,-7);
},
{
name = top;
pos = (351,754);
}
);
layerId = m01;
shapes = (
{
closed = 1;
nodes = (
(672,0,l),
(672,700,l),
(594,700,l),
(594,570,l),
(531,648,o),
(436,699,o),
(327,699,cs),
(244,699,ls),
(137,699,o),
(50,612,o),
(50,505,cs),
(50,440,o),
(81,383,o),
(129,348,c),
(83,312,o),
(54,257,o),
(54,194,cs),
(54,87,o),
(140,0,o),
(247,0,cs),
(376,0,ls),
(483,0,o),
(569,87,o),
(569,195,cs),
(569,314,o),
(498,392,o),
(385,379,cs),
(344,374,o),
(305,348,o),
(279,310,cs),
(251,269,o),
(240,213,o),
(261,154,cs),
(278,106,o),
(312,86,o),
(347,78,c),
(248,78,ls),
(184,78,o),
(132,130,o),
(132,194,cs),
(132,254,o),
(167,304,o),
(234,311,c),
(248,311,l),
(248,389,l),
(243,389,o),
(238,389,o),
(234,389,c),
(232,389,o),
(230,389,o),
(229,389,cs),
(172,396,o),
(128,445,o),
(128,505,cs),
(128,569,o),
(180,621,o),
(244,621,cs),
(321,621,ls),
(473,621,o),
(593,501,o),
(593,349,cs),
(593,348,l),
(594,348,l),
(594,0,l)
);
},
{
closed = 1;
nodes = (
(313,214,o),
(331,291,o),
(395,300,cs),
(465,310,o),
(491,259,o),
(491,195,cs),
(491,153,o),
(470,117,o),
(438,96,c),
(396,98,o),
(350,109,o),
(334,154,cs)
);
}
);
width = 722;
}
);
unicode = 2851;
},
{
glyphname = "nna-oriya.base";
layers = (
{
layerId = m01;
shapes = (
{
closed = 1;
nodes = (
(494,-258,ls),
(550,-258,o),
(597,-210,o),
(598,-152,cs),
(598,-150,ls),
(597,-105,o),
(560,-69,o),
(515,-69,cs),
(469,-69,o),
(432,-106,o),
(432,-152,cs),
(432,-177,o),
(443,-196,o),
(462,-208,c),
(447,-208,ls),
(414,-208,o),
(390,-182,o),
(390,-150,cs),
(390,-120,o),
(411,-96,o),
(438,-92,c),
(448,-92,l),
(448,-48,l),
(448,-48,o),
(448,-41,o),
(447,-41,cs),
(416,-41,o),
(398,-15,o),
(398,16,cs),
(398,49,o),
(423,72,o),
(454,72,cs),
(505,72,ls),
(573,72,o),
(623,21,o),
(623,-48,cs),
(623,-258,l),
(683,-258,l),
(683,125,l),
(623,125,l),
(623,76,l),
(592,106,o),
(551,125,o),
(505,125,cs),
(447,125,ls),
(388,125,o),
(339,77,o),
(339,16,cs),
(339,-17,o),
(354,-46,o),
(378,-66,c),
(354,-86,o),
(339,-116,o),
(339,-150,cs),
(339,-210,o),
(387,-258,o),
(447,-258,cs)
);
},
{
closed = 1;
nodes = (
(475,-135,o),
(489,-115,o),
(511,-115,cs),
(530,-115,o),
(547,-132,o),
(547,-151,cs),
(547,-174,o),
(532,-194,o),
(511,-203,c),
(494,-203,o),
(474,-172,o),
(475,-157,cs)
);
}
);
width = 600;
}
);
},
{
glyphname = "ta-oriya";
layers = (
{
anchors = (
{
name = am;
pos = (680,659);
},
{
name = below;
pos = (496,-20);
},
{
name = bindu;
pos = (351,-96);
},
{
name = bottom;
pos = (493,17);
},
{
name = bottomtwo;
pos = (715,-146);
},
{
name = chanBin;
pos = (548,702);
},
{
name = hal;
pos = (416,703);
},
{
name = nukta;
pos = (351,-50);
},
{
name = reph2;
pos = (613,4);
},
{
name = reph3;
pos = (611,-258);
},
{
name = ru;
pos = (351,-7);
},
{
name = top;
pos = (351,754);
}
);
guides = (
{
angle = 90;
pos = (360,234);
}
);
layerId = m01;
shapes = (
{
closed = 1;
nodes = (
(217,205,l),
(163,247,o),
(128,314,o),
(128,388,cs),
(128,516,o),
(232,621,o),
(360,621,cs),
(489,621,o),
(593,517,o),
(594,389,c),
(672,389,l),
(671,560,o),
(532,699,o),
(360,699,cs),
(189,699,o),
(50,559,o),
(50,388,cs),
(50,273,o),
(112,173,o),
(204,119,c)
);
},
{
closed = 1;
nodes = (
(410,300,l),
(434,289,o),
(455,270,o),
(467,243,cs),
(494,185,o),
(469,116,o),
(410,89,cs),
(352,62,o),
(283,87,o),
(256,145,cs),
(228,203,o),
(253,272,o),
(311,299,c),
(278,370,l),
(181,325,o),
(140,209,o),
(185,112,cs),
(230,15,o),
(346,-27,o),
(443,18,cs),
(541,64,o),
(583,179,o),
(538,276,cs),
(517,320,o),
(483,352,o),
(443,371,c)
);
}
);
width = 702;
}
);
unicode = 2852;
},
{
glyphname = "ta-oriya.base";
layers = (
{
layerId = m01;
shapes = (
{
closed = 1;
nodes = (
(491,-126,l),
(465,-106,o),
(449,-75,o),
(449,-41,cs),
(449,21,o),
(499,72,o),
(561,72,c),
(623,72,o),
(672,23,o),
(673,-39,c),
(735,-41,l),
(734,53,o),
(657,132,o),
(561,132,cs),
(465,132,o),
(387,53,o),
(387,-43,cs),
(387,-106,o),
(421,-160,o),
(475,-191,c)
);
},
{
closed = 1;
nodes = (
(594,-109,l),
(605,-119,o),
(612,-133,o),
(612,-149,cs),
(612,-176,o),
(590,-200,o),
(561,-200,cs),
(534,-200,o),
(511,-176,o),
(511,-149,cs),
(511,-133,o),
(519,-118,o),
(531,-108,c),
(501,-59,l),
(472,-78,o),
(453,-111,o),
(453,-149,cs),
(453,-209,o),
(502,-258,o),
(561,-258,cs),
(621,-258,o),
(672,-209,o),
(672,-149,cs),
(672,-111,o),
(652,-78,o),
(622,-59,c)
);
}
);
width = 600;
}
);
},
{
glyphname = "tha-oriya";
layers = (
{
anchors = (
{
name = am;
pos = (730,659);
},
{
name = below;
pos = (546,-20);
},
{
name = bindu;
pos = (401,-96);
},
{
name = bottom;
pos = (636,17);
},
{
name = bottomtwo;
pos = (765,-146);
},
{
name = chanBin;
pos = (548,702);
},
{
name = hal;
pos = (686,703);
},
{
name = nukta;
pos = (401,-50);
},
{
name = reph2;
pos = (636,4);
},
{
name = reph3;
pos = (611,-258);
},
{
name = ru;
pos = (401,-7);
},
{
name = top;
pos = (401,754);
}
);
guides = (
{
angle = 90;
pos = (245,257);
},
{
angle = 90;
pos = (321,257);
}
);
layerId = m01;
shapes = (
{
closed = 1;
nodes = (
(321,78,l),
(321,78,l),
(245,78,ls),
(181,78,o),
(129,130,o),
(129,194,cs),
(129,259,o),
(181,311,o),
(245,311,cs),
(281,311,ls),
(388,311,o),
(475,398,o),
(475,506,cs),
(475,613,o),
(389,700,o),
(282,700,cs),
(243,700,ls),
(136,700,o),
(50,613,o),
(50,506,cs),
(50,439,l),
(128,439,l),
(128,506,ls),
(128,570,o),
(180,622,o),
(244,622,cs),
(281,622,ls),
(345,622,o),
(397,570,o),
(397,506,cs),
(397,441,o),
(345,389,o),
(281,389,cs),
(245,389,ls),
(138,389,o),
(51,302,o),
(51,194,cs),
(51,87,o),
(138,0,o),
(245,0,cs),
(321,0,l)
);
},
{
pos = (-113,700);
ref = topright;
scale = (1,-1);
},
{
pos = (544,0);
ref = "aaMatra-oriya";
}
);
width = 722;
}
);
unicode = 2853;
},
{
glyphname = "tha-oriya.base";
layers = (
{
layerId = m01;
shapes = (
{
closed = 1;
nodes = (
(623,-87,ls),
(623,-156,o),
(573,-199,o),
(505,-199,cs),
(454,-199,ls),
(423,-199,o),
(401,-184,o),
(401,-151,cs),
(401,-120,o),
(440,-100,o),
(454,-95,cs),
(470,-89,o),
(550,-86,o),
(553,21,cs),
(555,84,o),
(505,129,o),
(444,129,cs),
(377,129,o),
(336,84,o),
(336,21,cs),
(336,20,l),
(380,20,l),
(380,20,o),
(395,20,o),
(395,21,cs),
(395,50,o),
(413,68,o),
(442,68,cs),
(475,68,o),
(491,49,o),
(491,18,cs),
(491,-29,o),
(446,-40,o),
(446,-40,c),
(391,-55,o),
(339,-92,o),
(339,-151,cs),
(339,-212,o),
(388,-260,o),
(447,-260,cs),
(505,-260,ls),
(551,-260,o),
(592,-241,o),
(623,-211,c),
(623,-258,l),
(683,-258,l),
(683,125,l),
(623,125,l)
);
}
);
width = 622;
}
);
},
{
glyphname = "da-oriya";
layers = (
{
anchors = (
{
name = am;
pos = (680,659);
},
{
name = below;
pos = (496,-20);
},
{
name = bindu;
pos = (351,-96);
},
{
name = bottom;
pos = (501,18);
},
{
name = bottomtwo;
pos = (715,-146);
},
{
name = chanBin;
pos = (548,702);
},
{
name = hal;
pos = (614,703);
},
{
name = nukta;
pos = (351,-50);
},
{
name = reph2;
pos = (613,4);
},
{
name = reph3;
pos = (611,-258);
},
{
name = ru;
pos = (351,-7);
},
{
name = top;
pos = (351,754);
}
);
layerId = m01;
shapes = (
{
closed = 1;
nodes = (
(197,205,l),
(143,247,o),
(108,314,o),
(108,388,cs),
(108,516,o),
(212,621,o),
(340,621,cs),
(469,621,o),
(573,517,o),
(574,389,c),
(652,389,l),
(651,560,o),
(512,699,o),
(340,699,cs),
(169,699,o),
(30,559,o),
(30,388,cs),
(30,273,o),
(92,173,o),
(184,119,c)
);
},
{
closed = 1;
nodes = (
(459,0,l),
(537,0,l),
(537,314,l),
(459,388,l)
);
},
{
closed = 1;
nodes = (
(459,195,ls),
(459,195,o),
(459,194,o),
(459,194,cs),
(459,130,o),
(407,78,o),
(342,78,cs),
(278,78,o),
(226,130,o),
(226,194,cs),
(226,259,o),
(278,311,o),
(342,311,cs),
(342,311,o),
(342,311,o),
(342,311,c),
(342,389,l),
(342,389,o),
(342,389,o),
(342,389,cs),
(235,389,o),
(148,302,o),
(148,194,cs),
(148,87,o),
(235,0,o),
(342,0,cs),
(450,0,o),
(537,87,o),
(537,194,cs),
(537,194,o),
(537,195,o),
(537,195,cs)
);
}
);
width = 682;
}
);
unicode = 2854;
},
{
glyphname = "da-oriya.base";
layers = (
{
layerId = m01;
shapes = (
{
closed = 1;
nodes = (
(491,-126,l),
(465,-106,o),
(449,-75,o),
(449,-41,cs),
(449,21,o),
(499,72,o),
(561,72,c),
(623,72,o),
(672,23,o),
(673,-39,c),
(735,-41,l),
(734,53,o),
(657,132,o),
(561,132,cs),
(465,132,o),
(387,53,o),
(387,-43,cs),
(387,-106,o),
(421,-160,o),
(475,-191,c)
);
},
{
closed = 1;
nodes = (
(612,-258,l),
(672,-258,l),
(672,-76,l),
(612,-76,l)
);
},
{
closed = 1;
nodes = (
(612,-149,ls),
(612,-149,o),
(612,-149,o),
(612,-149,cs),
(612,-176,o),
(590,-200,o),
(561,-200,cs),
(534,-200,o),
(511,-176,o),
(511,-149,cs),
(511,-133,o),
(519,-118,o),
(531,-108,c),
(501,-59,l),
(472,-78,o),
(453,-111,o),
(453,-149,cs),
(453,-209,o),
(502,-258,o),
(561,-258,cs),
(621,-258,o),
(672,-209,o),
(672,-149,cs),
(672,-149,o),
(672,-149,o),
(672,-149,cs)
);
}
);
width = 600;
}
);
},
{
glyphname = "dha-oriya";
layers = (
{
anchors = (
{
name = am;
pos = (680,659);
},
{
name = below;
pos = (496,-20);
},
{
name = bindu;
pos = (351,-96);
},
{
name = bottom;
pos = (636,19);
},
{
name = bottomtwo;
pos = (715,-146);
},
{
name = chanBin;
pos = (548,702);
},
{
name = hal;
pos = (686,703);
},
{
name = nukta;
pos = (351,-50);
},
{
name = reph2;
pos = (637,4);
},
{
name = reph3;
pos = (611,-258);
},
{
name = ru;
pos = (351,-7);
},
{
name = top;
pos = (351,754);
}
);
guides = (
{
angle = 180;
pos = (653,344);
}
);
layerId = m01;
shapes = (
{
closed = 1;
nodes = (
(595,0,l),
(673,0,l),
(673,700,l),
(595,700,l)
);
},
{
closed = 1;
nodes = (
(362,389,l),
(362,389,o),
(363,389,o),
(363,389,cs),
(363,389,o),
(354,389,o),
(246,389,cs),
(139,389,o),
(52,302,o),
(52,194,cs),
(52,87,o),
(139,0,o),
(246,0,cs),
(354,0,o),
(329,0,o),
(329,0,c),
(329,78,l),
(329,78,o),
(311,78,o),
(246,78,cs),
(182,78,o),
(130,130,o),
(130,194,cs),
(130,259,o),
(182,311,o),
(246,311,cs),
(311,311,o),
(363,311,o),
(363,311,cs),
(363,311,o),
(362,311,o),
(362,311,c)
);
},
{
closed = 1;
nodes = (
(279,371,l),
(120,700,l),
(52,660,l),
(219,316,l)
);
},
{
pos = (-112,700);
ref = topright;
scale = (1,-1);
}
);
width = 723;
}
);
unicode = 2855;
},
{
glyphname = "dha-oriya.base";
layers = (
{
layerId = m01;
shapes = (
{
closed = 1;
nodes = (
(672,-251,l),
(672,132,l),
(610,132,l),
(610,-251,l)
);
},
{
closed = 1;
nodes = (
(578,-59,l),
(385,132,l),
(342,89,l),
(535,-102,l)
);
},
{
closed = 1;
nodes = (
(358,34,o),
(324,-20,o),
(324,-83,cs),
(324,-179,o),
(402,-258,o),
(498,-258,cs),
(594,-258,o),
(671,-179,o),
(672,-85,c),
(610,-87,l),
(609,-149,o),
(560,-198,o),
(498,-198,c),
(436,-198,o),
(386,-147,o),
(386,-85,cs),
(386,-51,o),
(402,-20,o),
(428,0,c),
(412,65,l)
);
}
);
width = 600;
}
);
},
{
glyphname = "na-oriya";
layers = (
{
anchors = (
{
name = am;
pos = (680,659);
},
{
name = below;
pos = (496,-20);
},
{
name = bindu;
pos = (351,-96);
},
{
name = bottom;
pos = (487,17);
},
{
name = bottomtwo;
pos = (715,-146);
},
{
name = chanBin;
pos = (548,702);
},
{
name = hal;
pos = (563,703);
},
{
name = nukta;
pos = (351,-50);
},
{
name = reph2;
pos = (613,4);
},
{
name = reph3;
pos = (611,-258);
},
{
name = ru;
pos = (351,-7);
},
{
name = top;
pos = (351,754);
}
);
guides = (
{
pos = (502,350);
}
);
layerId = m01;
shapes = (
{
closed = 1;
nodes = (
(217,205,l),
(163,247,o),
(128,314,o),
(128,388,cs),
(128,516,o),
(232,621,o),
(360,621,cs),
(489,621,o),
(593,517,o),
(594,389,c),
(672,389,l),
(671,560,o),
(532,699,o),
(360,699,cs),
(189,699,o),
(50,559,o),
(50,388,cs),
(50,273,o),
(112,173,o),
(204,119,c)
);
},
{
closed = 1;
nodes = (
(446,0,l),
(524,0,l),
(524,383,l),
(446,383,l)
);
},
{
closed = 1;
nodes = (
(512,305,l),
(512,383,l),
(283,383,l),
(283,305,l)
);
},
{
closed = 1;
nodes = (
(116,39,l),
(184,-1,l),
(343,328,l),
(283,383,l)
);
}
);
width = 702;
}
);
unicode = 2856;
},
{
glyphname = "na-oriya.base";
layers = (
{
hints = (
{
horizontal = 1;
place = (0, 78);
place = (0, 78);
type = Stem;
},
{
horizontal = 1;
place = (621, 78);
place = (621, 78);
type = Stem;
},
{
place = (-116, 78);
place = (-116, 78);
type = Stem;
},
{
place = (8, 71);
place = (8, 71);
type = Stem;
},
{
place = (328, 62);
place = (328, 62);
type = Stem;
}
);
layerId = m01;
shapes = (
{
closed = 1;
nodes = (
(342,-212,l),
(385,-255,l),
(578,-64,l),
(535,-21,l)
);
},
{
closed = 1;
nodes = (
(535,-21,l),
(535,-258,l),
(595,-258,l),
(595,-21,l)
);
},
{
closed = 1;
nodes = (
(428,-126,l),
(402,-106,o),
(386,-75,o),
(386,-41,cs),
(386,21,o),
(436,72,o),
(498,72,c),
(560,72,o),
(609,23,o),
(610,-39,c),
(672,-41,l),
(671,53,o),
(594,132,o),
(498,132,cs),
(402,132,o),
(324,53,o),
(324,-43,cs),
(324,-106,o),
(358,-160,o),
(412,-191,c)
);
}
);
width = 600;
}
);
},
{
glyphname = "pa-oriya";
layers = (
{
anchors = (
{
name = am;
pos = (680,659);
},
{
name = below;
pos = (496,-20);
},
{
name = bindu;
pos = (351,-96);
},
{
name = bottom;
pos = (634,17);
},
{
name = bottomtwo;
pos = (715,-146);
},
{
name = chanBin;
pos = (548,702);
},
{
name = hal;
pos = (686,703);
},
{
name = nukta;
pos = (351,-50);
},
{
name = reph2;
pos = (634,4);
},
{
name = reph3;
pos = (611,-258);
},
{
name = ru;
pos = (351,-7);
},
{
name = top;
pos = (351,754);
}
);
layerId = m01;
shapes = (
{
closed = 1;
nodes = (
(593,0,l),
(671,0,l),
(671,700,l),
(593,700,l)
);
},
{
closed = 1;
nodes = (
(340,389,l),
(340,389,o),
(334,389,o),
(334,389,cs),
(334,389,o),
(325,389,o),
(244,389,cs),
(137,389,o),
(50,302,o),
(50,194,cs),
(50,87,o),
(137,0,o),
(244,0,cs),
(352,0,o),
(327,0,o),
(327,0,c),
(327,78,l),
(327,78,o),
(309,78,o),
(244,78,cs),
(180,78,o),
(128,130,o),
(128,194,cs),
(128,259,o),
(180,311,o),
(244,311,cs),
(309,311,o),
(334,311,o),
(334,311,cs),
(334,311,o),
(340,311,o),
(340,311,c)
);
},
{
closed = 1;
nodes = (
(340,388,o),
(334,388,o),
(334,388,cs),
(334,388,o),
(309,388,o),
(244,388,cs),
(180,388,o),
(128,440,o),
(128,505,cs),
(128,569,o),
(180,621,o),
(244,621,cs),
(309,621,o),
(327,621,o),
(327,621,c),
(327,699,l),
(327,699,o),
(352,699,o),
(244,699,cs),
(137,699,o),
(50,612,o),
(50,505,cs),
(50,397,o),
(137,310,o),
(244,310,cs),
(325,310,o),
(334,310,o),
(334,310,cs),
(334,310,o),
(340,310,o),
(340,310,c),
(340,388,l)
);
},
{
pos = (-114,-1);
ref = topright;
},
{
pos = (-114,700);
ref = topright;
scale = (1,-1);
}
);
width = 721;
}
);
unicode = 2858;
},
{
glyphname = "pa-oriya.base";
layers = (
{
layerId = m01;
shapes = (
{
closed = 1;
nodes = (
(619,-258,l),
(679,-258,l),
(679,125,l),
(619,125,l)
);
},
{
closed = 1;
nodes = (
(505,125,l),
(505,125,o),
(507,125,o),
(507,125,cs),
(507,125,o),
(502,125,o),
(447,125,cs),
(388,125,o),
(339,77,o),
(339,16,cs),
(339,-43,o),
(388,-92,o),
(447,-92,cs),
(508,-92,o),
(448,-92,o),
(448,-92,c),
(448,-48,l),
(448,-48,o),
(450,-42,o),
(449,-42,cs),
(419,-42,o),
(401,-16,o),
(401,14,cs),
(401,46,o),
(425,68,o),
(456,68,cs),
(488,68,o),
(505,68,o),
(505,68,cs),
(505,68,o),
(505,79,o),
(505,79,c)
);
},
{
closed = 1;
nodes = (
(505,68,l),
(571,68,o),
(619,18,o),
(620,-49,c),
(677,-48,l),
(676,46,o),
(599,125,o),
(503,125,c)
);
},
{
closed = 1;
nodes = (
(505,-214,o),
(505,-203,o),
(505,-203,cs),
(505,-203,o),
(488,-203,o),
(456,-203,cs),
(425,-203,o),
(401,-181,o),
(401,-149,cs),
(401,-119,o),
(419,-93,o),
(449,-93,cs),
(450,-93,o),
(448,-87,o),
(448,-87,c),
(448,-43,l),
(448,-43,o),
(508,-43,o),
(447,-43,cs),
(388,-43,o),
(339,-92,o),
(339,-151,cs),
(339,-212,o),
(388,-260,o),
(447,-260,cs),
(502,-260,o),
(507,-260,o),
(507,-260,cs),
(507,-260,o),
(505,-260,o),
(505,-260,c),
(505,-214,l)
);
},
{
closed = 1;
nodes = (
(599,-260,o),
(676,-181,o),
(677,-87,c),
(620,-86,l),
(619,-153,o),
(571,-203,o),
(505,-203,c),
(503,-260,l)
);
}
);
width = 600;
}
);
},
{
glyphname = "pha-oriya";
layers = (
{
anchors = (
{
name = am;
pos = (680,659);
},
{
name = below;
pos = (496,-20);
},
{
name = bindu;
pos = (351,-96);
},
{
name = bottom;
pos = (634,17);
},
{
name = bottomtwo;
pos = (715,-146);
},
{
name = chanBin;
pos = (548,702);
},
{
name = hal;
pos = (686,703);
},
{
name = nukta;
pos = (351,-50);
},
{
name = reph2;
pos = (635,4);
},
{
name = reph3;
pos = (611,-258);
},
{
name = ru;
pos = (351,-7);
},
{
name = top;
pos = (351,754);
}
);
layerId = m01;
shapes = (
{
ref = "pa-oriya";
},
{
closed = 1;
nodes = (
(812,415,o),
(876,479,o),
(876,557,cs),
(876,635,o),
(812,699,o),
(734,699,cs),
(656,699,o),
(592,635,o),
(592,557,cs),
(592,479,o),
(656,415,o),
(734,415,cs)
);
},
{
closed = 1;
nodes = (
(699,493,o),
(670,522,o),
(670,557,cs),
(670,592,o),
(699,621,o),
(734,621,cs),
(769,621,o),
(798,592,o),
(798,557,cs),
(798,522,o),
(769,493,o),
(734,493,cs)
);
}
);
width = 906;
}
);
unicode = 2859;
},
{
glyphname = "pha-oriya.base";
layers = (
{
layerId = m01;
shapes = (
{
closed = 1;
nodes = (
(623,-258,l),
(683,-258,l),
(683,125,l),
(623,125,l)
);
},
{
closed = 1;
nodes = (
(505,125,l),
(505,125,o),
(507,125,o),
(507,125,cs),
(507,125,o),
(502,125,o),
(447,125,cs),
(388,125,o),
(339,77,o),
(339,16,cs),
(339,-43,o),
(388,-92,o),
(447,-92,cs),
(508,-92,o),
(448,-92,o),
(448,-92,c),
(448,-48,l),
(448,-48,o),
(448,-41,o),
(447,-41,cs),
(416,-41,o),
(398,-15,o),
(398,16,cs),
(398,49,o),
(423,72,o),
(454,72,cs),
(487,72,o),
(505,72,o),
(505,72,cs),
(505,72,o),
(505,79,o),
(505,79,c)
);
},
{
closed = 1;
nodes = (
(505,72,l),
(573,72,o),
(622,21,o),
(623,-48,c),
(677,-48,l),
(676,46,o),
(599,125,o),
(503,125,c)
);
},
{
closed = 1;
nodes = (
(505,-214,o),
(505,-207,o),
(505,-207,cs),
(505,-207,o),
(487,-207,o),
(454,-207,cs),
(423,-207,o),
(398,-184,o),
(398,-151,cs),
(398,-120,o),
(416,-94,o),
(447,-94,cs),
(448,-94,o),
(448,-87,o),
(448,-87,c),
(448,-43,l),
(448,-43,o),
(508,-43,o),
(447,-43,cs),
(388,-43,o),
(339,-92,o),
(339,-151,cs),
(339,-212,o),
(388,-260,o),
(447,-260,cs),
(502,-260,o),
(507,-260,o),
(507,-260,cs),
(507,-260,o),
(505,-260,o),
(505,-260,c),
(505,-214,l)
);
},
{
closed = 1;
nodes = (
(599,-260,o),
(676,-181,o),
(677,-87,c),
(623,-87,l),
(622,-156,o),
(573,-207,o),
(505,-207,c),
(503,-260,l)
);
},
{
closed = 1;
nodes = (
(741,-7,o),
(773,23,o),
(773,60,cs),
(773,97,o),
(741,126,o),
(705,126,cs),
(668,126,o),
(638,97,o),
(638,60,cs),
(638,23,o),
(668,-7,o),
(705,-7,cs)
);
},
{
closed = 1;
nodes = (
(693,37,o),
(683,48,o),
(683,60,cs),
(683,72,o),
(693,83,o),
(705,83,cs),
(717,83,o),
(727,72,o),
(727,60,cs),
(727,48,o),
(717,37,o),
(705,37,cs)
);
}
);
width = 721;
}
);
},
{
glyphname = "ba-oriya";
layers = (
{
anchors = (
{
name = am;
pos = (680,659);
},
{
name = below;
pos = (496,-20);
},
{
name = bindu;
pos = (351,-96);
},
{
name = bottom;
pos = (500,18);
},
{
name = bottomtwo;
pos = (715,-146);
},
{
name = chanBin;
pos = (548,702);
},
{
name = hal;
pos = (576,703);
},
{
name = nukta;
pos = (351,-50);
},
{
name = reph2;
pos = (605,4);
},
{
name = reph3;
pos = (611,-258);
},
{
name = ru;
pos = (351,-7);
},
{
name = top;
pos = (351,754);
}
);
layerId = m01;
shapes = (
{
closed = 1;
nodes = (
(537,194,l),
(537,194,o),
(537,194,o),
(537,194,cs),
(537,302,o),
(450,389,o),
(342,389,cs),
(235,389,o),
(148,302,o),
(148,194,cs),
(148,87,o),
(235,0,o),
(342,0,cs),
(450,0,o),
(506,87,o),
(507,194,c),
(459,194,l),
(458,130,o),
(407,78,o),
(342,78,cs),
(278,78,o),
(226,130,o),
(226,194,cs),
(226,259,o),
(278,311,o),
(342,311,cs),
(407,311,o),
(459,259,o),
(459,194,cs),
(459,194,o),
(459,194,o),
(459,194,c)
);
},
{
closed = 1;
nodes = (
(197,205,l),
(143,247,o),
(108,314,o),
(108,388,cs),
(108,516,o),
(212,621,o),
(340,621,cs),
(469,621,o),
(573,517,o),
(574,389,c),
(652,389,l),
(651,560,o),
(512,699,o),
(340,699,cs),
(169,699,o),
(30,559,o),
(30,388,cs),
(30,273,o),
(92,173,o),
(184,119,c)
);
},
{
closed = 1;
nodes = (
(459,0,l),
(537,0,l),
(537,194,l),
(459,194,l)
);
}
);
width = 682;
}
);
unicode = 2860;
},
{
glyphname = "ba-oriya.base";
layers = (
{
layerId = m01;
shapes = (
{
closed = 1;
nodes = (
(621,-258,o),
(672,-209,o),
(672,-149,cs),
(672,-88,o),
(621,-41,o),
(561,-41,cs),
(502,-41,o),
(453,-88,o),
(453,-149,cs),
(453,-209,o),
(502,-258,o),
(561,-258,cs)
);
},
{
closed = 1;
nodes = (
(534,-200,o),
(511,-176,o),
(511,-149,cs),
(511,-121,o),
(534,-97,o),
(561,-97,cs),
(590,-97,o),
(612,-121,o),
(612,-149,cs),
(612,-176,o),
(590,-200,o),
(561,-200,cs)
);
},
{
closed = 1;
nodes = (
(491,-126,l),
(465,-106,o),
(449,-75,o),
(449,-41,cs),
(449,21,o),
(499,72,o),
(561,72,c),
(623,72,o),
(672,23,o),
(673,-39,c),
(735,-41,l),
(734,53,o),
(657,132,o),
(561,132,cs),
(465,132,o),
(387,53,o),
(387,-43,cs),
(387,-106,o),
(421,-160,o),
(475,-191,c)
);
},
{
closed = 1;
nodes = (
(621,-258,o),
(672,-209,o),
(672,-149,cs),
(672,-88,o),
(621,-41,o),
(561,-41,cs),
(502,-41,o),
(453,-88,o),
(453,-149,cs),
(453,-209,o),
(502,-258,o),
(561,-258,cs)
);
},
{
closed = 1;
nodes = (
(534,-200,o),
(511,-176,o),
(511,-149,cs),
(511,-121,o),
(534,-97,o),
(561,-97,cs),
(590,-97,o),
(612,-121,o),
(612,-149,cs),
(612,-176,o),
(590,-200,o),
(561,-200,cs)
);
},
{
closed = 1;
nodes = (
(491,-126,l),
(465,-106,o),
(449,-75,o),
(449,-41,cs),
(449,21,o),
(499,72,o),
(561,72,c),
(623,72,o),
(672,23,o),
(673,-39,c),
(735,-41,l),
(734,53,o),
(657,132,o),
(561,132,cs),
(465,132,o),
(387,53,o),
(387,-43,cs),
(387,-106,o),
(421,-160,o),
(475,-191,c)
);
},
{
closed = 1;
nodes = (
(610,-258,l),
(668,-258,l),
(672,-149,l),
(614,-149,l)
);
}
);
width = 600;
}
);
},
{
glyphname = "bha-oriya";
layers = (
{
anchors = (
{
name = am;
pos = (680,659);
},
{
name = below;
pos = (496,-20);
},
{
name = bindu;
pos = (351,-96);
},
{
name = bottom;
pos = (613,17);
},
{
name = bottomtwo;
pos = (715,-146);
},
{
name = chanBin;
pos = (548,702);
},
{
name = hal;
pos = (436,703);
},
{
name = nukta;
pos = (351,-50);
},
{
name = reph2;
pos = (635,4);
},
{
name = reph3;
pos = (611,-258);
},
{
name = ru;
pos = (351,-7);
},
{
name = top;
pos = (351,754);
}
);
layerId = m01;
shapes = (
{
closed = 1;
nodes = (
(57,88,o),
(144,8,o),
(252,1,cs),
(399,-9,o),
(487,80,o),
(519,187,cs),
(526,210,o),
(529,244,o),
(531,275,c),
(532,279,o),
(532,283,o),
(532,287,cs),
(532,291,ls),
(532,326,o),
(533,354,o),
(533,354,c),
(532,354,l),
(532,389,l),
(455,389,l),
(455,344,l),
(455,344,o),
(454,318,o),
(454,284,c),
(450,260,o),
(411,240,o),
(388,240,cs),
(361,241,o),
(322,261,o),
(322,288,cs),
(322,312,o),
(323,352,o),
(323,389,c),
(244,390,l),
(243,390,ls),
(179,390,o),
(128,441,o),
(128,505,cs),
(128,541,o),
(144,574,o),
(170,595,cs),
(190,612,o),
(216,622,o),
(244,622,cs),
(392,622,l),
(392,700,l),
(244,700,ls),
(194,700,o),
(148,681,o),
(113,649,cs),
(74,613,o),
(50,562,o),
(50,505,cs),
(50,441,o),
(81,385,o),
(128,350,c),
(84,314,o),
(57,258,o),
(57,195,cs)
);
},
{
closed = 1;
nodes = (
(135,257,o),
(183,312,o),
(244,312,c),
(244,287,ls),
(244,219,o),
(318,163,o),
(387,162,cs),
(407,162,o),
(429,167,o),
(448,176,c),
(430,119,o),
(355,70,o),
(252,79,cs),
(187,84,o),
(135,131,o),
(135,195,cs)
);
},
{
pos = (-45,0);
ref = right;
}
);
width = 790;
}
);
unicode = 2861;
},
{
glyphname = "bha-oriya.base";
layers = (
{
layerId = m01;
shapes = (
{
closed = 1;
nodes = (
(447,-42,l),
(447,-42,o),
(447,-42,o),
(447,-42,cs),
(387,-42,o),
(339,-90,o),
(339,-149,cs),
(339,-208,o),
(387,-252,o),
(447,-256,cs),
(527,-261,o),
(576,-213,o),
(593,-154,cs),
(602,-124,o),
(601,-62,o),
(601,-62,cs),
(546,-77,l),
(546,-77,o),
(545,-113,o),
(545,-144,cs),
(545,-176,o),
(506,-208,o),
(450,-203,cs),
(419,-201,o),
(394,-178,o),
(394,-148,cs),
(394,-117,o),
(416,-92,o),
(447,-92,cs),
(447,-92,o),
(447,-85,o),
(447,-85,c)
);
},
{
closed = 1;
nodes = (
(624,-261,l),
(718,-261,l),
(707,-207,l),
(613,-207,l)
);
},
{
closed = 1;
nodes = (
(539,82,o),
(539,71,o),
(539,71,cs),
(617,71,o),
(684,10,o),
(684,-68,c),
(732,-67,l),
(732,40,o),
(647,125,o),
(540,125,cs),
(540,125,o),
(539,125,o),
(539,125,cs),
(539,82,ls)
);
},
{
closed = 1;
nodes = (
(687,-34,o),
(682,-37,o),
(682,-37,cs),
(695,-114,o),
(652,-192,o),
(615,-207,c),
(624,-252,l),
(687,-235,o),
(748,-142,o),
(729,-34,cs),
(729,-34,o),
(729,-34,o),
(729,-34,cs),
(687,-34,ls)
);
},
{
closed = 1;
nodes = (
(542,125,l),
(542,125,o),
(546,125,o),
(546,125,cs),
(546,125,o),
(541,125,o),
(447,125,cs),
(388,125,o),
(339,77,o),
(339,16,cs),
(339,-43,o),
(388,-92,o),
(447,-92,cs),
(508,-92,o),
(448,-92,o),
(448,-92,c),
(448,-48,l),
(448,-48,o),
(448,-41,o),
(447,-41,cs),
(416,-41,o),
(398,-15,o),
(398,16,cs),
(398,49,o),
(423,71,o),
(454,71,cs),
(487,71,o),
(542,71,o),
(542,71,cs),
(542,71,o),
(542,82,o),
(542,82,c)
);
},
{
closed = 1;
nodes = (
(546,-88,o),
(547,-91,o),
(547,-101,cs),
(547,-110,o),
(530,-119,o),
(521,-119,c),
(510,-118,o),
(495,-110,o),
(494,-100,cs),
(494,-91,o),
(495,-74,o),
(495,-60,cs),
(495,-60,o),
(496,-41,o),
(496,-41,c),
(440,-41,l),
(440,-41,o),
(440,-48,o),
(440,-48,cs),
(440,-85,o),
(440,-55,o),
(440,-105,cs),
(440,-143,o),
(482,-174,o),
(520,-174,c),
(558,-174,o),
(601,-143,o),
(601,-105,cs),
(601,-53,o),
(602,-98,o),
(601,-41,c),
(546,-41,l)
);
}
);
width = 726;
}
);
},
{
glyphname = "ma-oriya";
layers = (
{
anchors = (
{
name = am;
pos = (680,659);
},
{
name = below;
pos = (496,-20);
},
{
name = bindu;
pos = (351,-96);
},
{
name = bottom;
pos = (636,17);
},
{
name = bottomtwo;
pos = (715,-146);
},
{
name = chanBin;
pos = (548,702);
},
{
name = hal;
pos = (686,703);
},
{
name = nukta;
pos = (351,-50);
},
{
name = reph2;
pos = (636,4);
},
{
name = reph3;
pos = (611,-258);
},
{
name = ru;
pos = (351,-7);
},
{
name = top;
pos = (351,754);
}
);
guides = (
{
angle = 65;
pos = (340,427);
}
);
layerId = m01;
shapes = (
{
closed = 1;
nodes = (
(673,-1,l),
(673,699,l),
(595,699,l),
(595,-1,l)
);
},
{
closed = 1;
nodes = (
(362,388,o),
(363,388,o),
(363,388,cs),
(363,388,o),
(311,388,o),
(246,388,cs),
(182,388,o),
(130,440,o),
(130,505,cs),
(130,569,o),
(182,621,o),
(246,621,cs),
(311,621,o),
(329,621,o),
(329,621,c),
(329,699,l),
(329,699,o),
(354,699,o),
(246,699,cs),
(139,699,o),
(52,612,o),
(52,505,cs),
(52,397,o),
(139,310,o),
(246,310,cs),
(354,310,o),
(363,310,o),
(363,310,cs),
(363,310,o),
(362,310,o),
(362,310,c),
(362,388,l)
);
},
{
closed = 1;
nodes = (
(52,39,l),
(120,-1,l),
(279,328,l),
(219,383,l)
);
},
{
pos = (-112,-1);
ref = topright;
}
);
width = 723;
}
);
unicode = 2862;
},
{
glyphname = "ma-oriya.base";
layers = (
{
layerId = m01;
shapes = (
{
closed = 1;
nodes = (
(610,-258,l),
(672,-258,l),
(672,125,l),
(610,125,l)
);
},
{
closed = 1;
nodes = (
(342,-215,l),
(385,-258,l),
(578,-67,l),
(535,-24,l)
);
},
{
closed = 1;
nodes = (
(428,-126,l),
(402,-106,o),
(386,-75,o),
(386,-41,cs),
(386,21,o),
(436,72,o),
(498,72,c),
(560,72,o),
(609,23,o),
(610,-39,c),
(672,-41,l),
(671,53,o),
(594,132,o),
(498,132,cs),
(402,132,o),
(324,53,o),
(324,-43,cs),
(324,-106,o),
(358,-160,o),
(412,-191,c)
);
}
);
width = 600;
}
);
},
{
glyphname = "ya-oriya";
layers = (
{
anchors = (
{
name = am;
pos = (760,659);
},
{
name = below;
pos = (576,-20);
},
{
name = bindu;
pos = (431,-96);
},
{
name = bottom;
pos = (714,17);
},
{
name = bottomtwo;
pos = (795,-146);
},
{
name = chanBin;
pos = (628,702);
},
{
name = hal;
pos = (766,703);
},
{
name = nukta;
pos = (431,-50);
},
{
name = reph2;
pos = (715,4);
},
{
name = reph3;
pos = (691,-258);
},
{
name = ru;
pos = (431,-7);
},
{
name = top;
pos = (431,754);
}
);
layerId = m01;
shapes = (
{
pos = (80,0);
ref = "pa-oriya";
},
{
closed = 1;
nodes = (
(410,311,l),
(410,389,l),
(40,389,l),
(40,311,l)
);
}
);
width = 801;
}
);
unicode = 2863;
},
{
glyphname = "ya-oriya.base";
layers = (
{
layerId = m01;
shapes = (
{
closed = 1;
nodes = (
(623,-258,l),
(683,-258,l),
(683,125,l),
(623,125,l)
);
},
{
closed = 1;
nodes = (
(317,-41,l),
(317,-102,l),
(519,-103,l),
(519,-42,l)
);
},
{
closed = 1;
nodes = (
(619,-258,l),
(679,-258,l),
(679,125,l),
(619,125,l)
);
},
{
closed = 1;
nodes = (
(505,125,l),
(505,125,o),
(507,125,o),
(507,125,cs),
(507,125,o),
(502,125,o),
(447,125,cs),
(388,125,o),
(339,77,o),
(339,16,cs),
(339,-43,o),
(388,-92,o),
(447,-92,cs),
(508,-92,o),
(448,-92,o),
(448,-92,c),
(448,-48,l),
(448,-48,o),
(450,-42,o),
(449,-42,cs),
(419,-42,o),
(401,-16,o),
(401,14,cs),
(401,46,o),
(425,68,o),
(456,68,cs),
(488,68,o),
(505,68,o),
(505,68,cs),
(505,68,o),
(505,79,o),
(505,79,c)
);
},
{
closed = 1;
nodes = (
(505,68,l),
(571,68,o),
(619,18,o),
(620,-49,c),
(677,-48,l),
(676,46,o),
(599,125,o),
(503,125,c)
);
},
{
closed = 1;
nodes = (
(505,-214,o),
(505,-203,o),
(505,-203,cs),
(505,-203,o),
(488,-203,o),
(456,-203,cs),
(425,-203,o),
(401,-181,o),
(401,-149,cs),
(401,-119,o),
(419,-93,o),
(449,-93,cs),
(450,-93,o),
(448,-87,o),
(448,-87,c),
(448,-43,l),
(448,-43,o),
(508,-43,o),
(447,-43,cs),
(388,-43,o),
(339,-92,o),
(339,-151,cs),
(339,-212,o),
(388,-260,o),
(447,-260,cs),
(502,-260,o),
(507,-260,o),
(507,-260,cs),
(507,-260,o),
(505,-260,o),
(505,-260,c),
(505,-214,l)
);
},
{
closed = 1;
nodes = (
(599,-260,o),
(676,-181,o),
(677,-87,c),
(620,-86,l),
(619,-153,o),
(571,-203,o),
(505,-203,c),
(503,-260,l)
);
}
);
width = 600;
}
);
},
{
glyphname = "ra-oriya";
layers = (
{
anchors = (
{
name = am;
pos = (680,659);
},
{
name = below;
pos = (496,-20);
},
{
name = bindu;
pos = (351,-96);
},
{
name = bottom;
pos = (613,17);
},
{
name = bottomtwo;
pos = (715,-146);
},
{
name = chanBin;
pos = (548,702);
},
{
name = hal;
pos = (416,703);
},
{
name = nukta;
pos = (351,-50);
},
{
name = reph2;
pos = (575,4);
},
{
name = reph3;
pos = (611,-258);
},
{
name = ru;
pos = (351,-7);
},
{
name = top;
pos = (351,754);
}
);
layerId = m01;
shapes = (
{
closed = 1;
nodes = (
(352,0,o),
(439,87,o),
(439,194,cs),
(439,302,o),
(352,389,o),
(244,389,cs),
(137,389,o),
(50,302,o),
(50,194,cs),
(50,87,o),
(137,0,o),
(244,0,cs)
);
},
{
closed = 1;
nodes = (
(180,78,o),
(128,130,o),
(128,194,cs),
(128,259,o),
(180,311,o),
(244,311,cs),
(309,311,o),
(361,259,o),
(361,194,cs),
(361,130,o),
(309,78,o),
(244,78,cs)
);
},
{
closed = 1;
nodes = (
(327,700,l),
(327,700,o),
(277,700,o),
(277,700,cs),
(277,700,o),
(268,700,o),
(244,700,cs),
(137,700,o),
(50,613,o),
(50,505,cs),
(50,398,o),
(137,311,o),
(244,311,cs),
(352,311,o),
(245,311,o),
(245,311,c),
(245,389,l),
(245,389,o),
(309,389,o),
(244,389,cs),
(180,389,o),
(128,441,o),
(128,505,cs),
(128,570,o),
(180,622,o),
(244,622,cs),
(309,622,o),
(277,622,o),
(277,622,cs),
(277,622,o),
(327,622,o),
(327,622,c)
);
},
{
pos = (-110,0);
ref = right;
}
);
width = 726;
}
);
unicode = 2864;
},
{
glyphname = "la-oriya";
layers = (
{
anchors = (
{
name = am;
pos = (680,659);
},
{
name = below;
pos = (496,-20);
},
{
name = bindu;
pos = (351,-96);
},
{
name = bottom;
pos = (509,19);
},
{
name = bottomtwo;
pos = (715,-146);
},
{
name = chanBin;
pos = (548,702);
},
{
name = hal;
pos = (416,703);
},
{
name = nukta;
pos = (351,-50);
},
{
name = reph2;
pos = (685,4);
},
{
name = reph3;
pos = (611,-258);
},
{
name = ru;
pos = (351,-7);
},
{
name = top;
pos = (351,754);
}
);
guides = (
{
pos = (1053,350);
}
);
hints = (
{
horizontal = 1;
place = (-700, 78);
place = (-700, 78);
type = Stem;
},
{
horizontal = 1;
place = (-389, 78);
place = (-389, 78);
type = Stem;
},
{
horizontal = 1;
place = (622, 78);
place = (622, 78);
type = Stem;
},
{
place = (-16, 46);
place = (-16, 46);
type = Stem;
},
{
place = (447, 50);
place = (447, 50);
type = Stem;
}
);
layerId = m01;
shapes = (
{
closed = 1;
nodes = (
(477,700,l),
(477,700,o),
(277,700,o),
(277,700,cs),
(277,700,o),
(268,700,o),
(244,700,cs),
(137,700,o),
(50,613,o),
(50,505,cs),
(50,398,o),
(137,311,o),
(244,311,cs),
(352,311,o),
(245,311,o),
(245,311,c),
(243,382,l),
(176,403,o),
(128,441,o),
(128,505,cs),
(128,570,o),
(180,622,o),
(244,622,cs),
(309,622,o),
(277,622,o),
(277,622,cs),
(277,622,o),
(477,622,o),
(477,622,c)
);
},
{
closed = 1;
nodes = (
(337,2,l),
(337,104,o),
(337,11,o),
(337,268,cs),
(337,337,o),
(272,393,o),
(194,393,c),
(115,392,o),
(50,336,o),
(50,268,cs),
(50,15,o),
(50,69,o),
(50,2,cs),
(50,2,o),
(50,2,o),
(50,2,c),
(128,2,l),
(128,2,o),
(128,2,o),
(128,2,cs),
(128,39,o),
(128,243,o),
(128,267,cs),
(128,284,o),
(146,315,o),
(195,315,c),
(240,315,o),
(259,283,o),
(259,268,cs),
(259,243,o),
(259,55,o),
(259,2,c)
);
},
{
closed = 1;
nodes = (
(546,2,l),
(546,104,o),
(546,11,o),
(546,268,cs),
(546,337,o),
(481,393,o),
(403,393,c),
(324,392,o),
(259,336,o),
(259,268,cs),
(259,15,o),
(259,69,o),
(259,2,cs),
(259,2,o),
(259,2,o),
(259,2,c),
(337,2,l),
(337,2,o),
(337,2,o),
(337,2,cs),
(337,39,o),
(337,243,o),
(337,267,cs),
(337,284,o),
(355,315,o),
(404,315,c),
(449,315,o),
(468,283,o),
(468,268,cs),
(468,243,o),
(468,55,o),
(468,2,c)
);
},
{
pos = (40,0);
ref = right;
}
);
width = 835;
}
);
unicode = 2866;
},
{
glyphname = "la-oriya.base";
layers = (
{
layerId = m01;
shapes = (
{
closed = 1;
nodes = (
(601,-257,l),
(602,-200,o),
(601,-245,o),
(601,-110,cs),
(601,-72,o),
(558,-41,o),
(520,-41,c),
(482,-41,o),
(440,-72,o),
(440,-110,cs),
(440,-243,o),
(440,-213,o),
(440,-250,cs),
(440,-250,o),
(440,-257,o),
(440,-257,c),
(494,-257,l),
(494,-257,o),
(494,-155,o),
(494,-155,cs),
(494,-141,o),
(494,-124,o),
(494,-115,cs),
(495,-105,o),
(510,-97,o),
(521,-96,c),
(530,-96,o),
(547,-105,o),
(547,-114,cs),
(547,-124,o),
(547,-210,o),
(547,-257,c)
);
},
{
closed = 1;
nodes = (
(494,-257,l),
(495,-200,o),
(494,-245,o),
(494,-110,cs),
(494,-72,o),
(451,-41,o),
(413,-41,c),
(375,-41,o),
(333,-72,o),
(333,-110,cs),
(333,-243,o),
(333,-213,o),
(333,-250,cs),
(333,-250,o),
(333,-257,o),
(333,-257,c),
(387,-257,l),
(387,-257,o),
(387,-155,o),
(387,-155,cs),
(387,-141,o),
(387,-124,o),
(387,-115,cs),
(388,-105,o),
(403,-97,o),
(414,-96,c),
(423,-96,o),
(440,-105,o),
(440,-114,cs),
(440,-124,o),
(440,-210,o),
(440,-257,c)
);
},
{
closed = 1;
nodes = (
(599,125,l),
(599,125,o),
(603,125,o),
(603,125,cs),
(603,125,o),
(598,125,o),
(418,125,cs),
(359,125,o),
(310,77,o),
(310,16,cs),
(310,-43,o),
(359,-92,o),
(418,-92,cs),
(479,-92,o),
(419,-92,o),
(419,-92,c),
(419,-48,l),
(419,-48,o),
(419,-41,o),
(418,-41,cs),
(387,-41,o),
(369,-15,o),
(369,16,cs),
(369,49,o),
(394,71,o),
(425,71,cs),
(458,71,o),
(599,71,o),
(599,71,cs),
(599,71,o),
(599,82,o),
(599,82,c)
);
}
);
width = 600;
}
);
},
{
glyphname = "lla-oriya";
layers = (
{
anchors = (
{
name = am;
pos = (680,659);
},
{
name = below;
pos = (496,-20);
},
{
name = bindu;
pos = (351,-96);
},
{
name = bottom;
pos = (573,19);
},
{
name = bottomtwo;
pos = (715,-146);
},
{
name = chanBin;
pos = (548,702);
},
{
name = hal;
pos = (416,703);
},
{
name = nukta;
pos = (351,-50);
},
{
name = reph2;
pos = (575,4);
},
{
name = reph3;
pos = (611,-258);
},
{
name = ru;
pos = (351,-7);
},
{
name = top;
pos = (351,754);
}
);
layerId = m01;
shapes = (
{
closed = 1;
nodes = (
(182,239,l),
(148,280,o),
(128,332,o),
(128,388,cs),
(128,516,o),
(232,621,o),
(360,621,cs),
(489,621,o),
(593,517,o),
(594,389,c),
(672,389,l),
(671,560,o),
(532,699,o),
(360,699,cs),
(189,699,o),
(50,559,o),
(50,388,cs),
(50,285,o),
(99,195,o),
(176,138,c)
);
},
{
closed = 1;
nodes = (
(402,2,l),
(403,104,o),
(402,11,o),
(402,264,cs),
(402,333,o),
(325,389,o),
(257,389,c),
(188,388,o),
(113,332,o),
(113,264,cs),
(113,15,o),
(112,69,o),
(113,2,cs),
(113,2,o),
(113,2,o),
(113,2,c),
(193,2,l),
(193,2,o),
(193,2,o),
(193,2,cs),
(194,39,o),
(190,239,o),
(192,263,cs),
(191,290,o),
(231,310,o),
(258,311,cs),
(282,311,o),
(324,289,o),
(324,264,cs),
(324,239,o),
(326,55,o),
(325,2,c)
);
},
{
closed = 1;
nodes = (
(609,2,l),
(610,104,o),
(609,11,o),
(609,264,cs),
(609,333,o),
(532,389,o),
(464,389,c),
(395,388,o),
(320,332,o),
(320,264,cs),
(320,15,o),
(319,69,o),
(320,2,cs),
(320,2,o),
(320,2,o),
(320,2,c),
(400,2,l),
(400,2,o),
(400,2,o),
(400,2,cs),
(401,39,o),
(397,239,o),
(399,263,cs),
(398,290,o),
(438,310,o),
(465,311,cs),
(489,311,o),
(531,289,o),
(531,264,cs),
(531,239,o),
(533,55,o),
(532,2,c)
);
}
);
width = 722;
}
);
unicode = 2867;
},
{
glyphname = "lla-oriya.base";
layers = (
{
layerId = m01;
shapes = (
{
closed = 1;
nodes = (
(601,-257,l),
(602,-200,o),
(601,-245,o),
(601,-110,cs),
(601,-72,o),
(558,-41,o),
(520,-41,c),
(482,-41,o),
(440,-72,o),
(440,-110,cs),
(440,-243,o),
(440,-213,o),
(440,-250,cs),
(440,-250,o),
(440,-257,o),
(440,-257,c),
(494,-257,l),
(494,-257,o),
(494,-155,o),
(494,-155,cs),
(494,-141,o),
(494,-124,o),
(494,-115,cs),
(495,-105,o),
(510,-97,o),
(521,-96,c),
(530,-96,o),
(547,-105,o),
(547,-114,cs),
(547,-124,o),
(547,-210,o),
(547,-257,c)
);
},
{
closed = 1;
nodes = (
(494,-257,l),
(495,-200,o),
(494,-245,o),
(494,-110,cs),
(494,-72,o),
(451,-41,o),
(413,-41,c),
(375,-41,o),
(333,-72,o),
(333,-110,cs),
(333,-243,o),
(333,-213,o),
(333,-250,cs),
(333,-250,o),
(333,-257,o),
(333,-257,c),
(387,-257,l),
(387,-257,o),
(387,-155,o),
(387,-155,cs),
(387,-141,o),
(387,-124,o),
(387,-115,cs),
(388,-105,o),
(403,-97,o),
(414,-96,c),
(423,-96,o),
(440,-105,o),
(440,-114,cs),
(440,-124,o),
(440,-210,o),
(440,-257,c)
);
},
{
closed = 1;
nodes = (
(599,125,l),
(599,125,o),
(603,125,o),
(603,125,cs),
(603,125,o),
(598,125,o),
(418,125,cs),
(359,125,o),
(310,77,o),
(310,16,cs),
(310,-43,o),
(359,-92,o),
(418,-92,cs),
(479,-92,o),
(419,-92,o),
(419,-92,c),
(419,-48,l),
(419,-48,o),
(419,-41,o),
(418,-41,cs),
(387,-41,o),
(369,-15,o),
(369,16,cs),
(369,49,o),
(394,71,o),
(425,71,cs),
(458,71,o),
(599,71,o),
(599,71,cs),
(599,71,o),
(599,82,o),
(599,82,c)
);
}
);
width = 600;
}
);
},
{
glyphname = "va-oriya";
layers = (
{
anchors = (
{
name = am;
pos = (680,659);
},
{
name = below;
pos = (496,-20);
},
{
name = bindu;
pos = (351,-96);
},
{
name = bottom;
pos = (502,18);
},
{
name = bottomtwo;
pos = (715,-146);
},
{
name = chanBin;
pos = (548,702);
},
{
name = hal;
pos = (566,703);
},
{
name = nukta;
pos = (351,-50);
},
{
name = reph2;
pos = (635,4);
},
{
name = reph3;
pos = (611,-258);
},
{
name = ru;
pos = (351,-7);
},
{
name = top;
pos = (351,754);
}
);
layerId = m01;
shapes = (
{
ref = "ba-oriya";
},
{
closed = 1;
nodes = (
(304,130,o),
(275,159,o),
(275,194,cs),
(275,230,o),
(304,259,o),
(339,259,cs),
(375,259,o),
(404,230,o),
(404,194,cs),
(404,159,o),
(375,130,o),
(339,130,cs)
);
}
);
width = 682;
}
);
unicode = 2869;
},
{
glyphname = "va-oriya.base";
layers = (
{
layerId = m01;
shapes = (
{
closed = 1;
nodes = (
(621,-258,o),
(672,-209,o),
(672,-149,cs),
(672,-88,o),
(621,-41,o),
(561,-41,cs),
(502,-41,o),
(453,-88,o),
(453,-149,cs),
(453,-209,o),
(502,-258,o),
(561,-258,cs)
);
},
{
closed = 1;
nodes = (
(534,-200,o),
(511,-176,o),
(511,-149,cs),
(511,-121,o),
(534,-97,o),
(561,-97,cs),
(590,-97,o),
(612,-121,o),
(612,-149,cs),
(612,-176,o),
(590,-200,o),
(561,-200,cs)
);
},
{
closed = 1;
nodes = (
(491,-126,l),
(465,-106,o),
(449,-75,o),
(449,-41,cs),
(449,21,o),
(499,72,o),
(561,72,c),
(623,72,o),
(672,23,o),
(673,-39,c),
(735,-41,l),
(734,53,o),
(657,132,o),
(561,132,cs),
(465,132,o),
(387,53,o),
(387,-43,cs),
(387,-106,o),
(421,-160,o),
(475,-191,c)
);
},
{
closed = 1;
nodes = (
(621,-258,o),
(672,-209,o),
(672,-149,cs),
(672,-88,o),
(621,-41,o),
(561,-41,cs),
(502,-41,o),
(453,-88,o),
(453,-149,cs),
(453,-209,o),
(502,-258,o),
(561,-258,cs)
);
},
{
closed = 1;
nodes = (
(534,-200,o),
(511,-176,o),
(511,-149,cs),
(511,-121,o),
(534,-97,o),
(561,-97,cs),
(590,-97,o),
(612,-121,o),
(612,-149,cs),
(612,-176,o),
(590,-200,o),
(561,-200,cs)
);
},
{
closed = 1;
nodes = (
(491,-126,l),
(465,-106,o),
(449,-75,o),
(449,-41,cs),
(449,21,o),
(499,72,o),
(561,72,c),
(623,72,o),
(672,23,o),
(673,-39,c),
(735,-41,l),
(734,53,o),
(657,132,o),
(561,132,cs),
(465,132,o),
(387,53,o),
(387,-43,cs),
(387,-106,o),
(421,-160,o),
(475,-191,c)
);
},
{
closed = 1;
nodes = (
(610,-258,l),
(668,-258,l),
(672,-149,l),
(614,-149,l)
);
}
);
width = 600;
}
);
},
{
glyphname = "sha-oriya";
layers = (
{
anchors = (
{
name = am;
pos = (680,659);
},
{
name = below;
pos = (496,-20);
},
{
name = bindu;
pos = (351,-96);
},
{
name = bottom;
pos = (625,17);
},
{
name = bottomtwo;
pos = (715,-146);
},
{
name = chanBin;
pos = (548,702);
},
{
name = hal;
pos = (686,703);
},
{
name = nukta;
pos = (351,-50);
},
{
name = reph2;
pos = (625,4);
},
{
name = reph3;
pos = (611,-258);
},
{
name = ru;
pos = (351,-7);
},
{
name = top;
pos = (351,754);
}
);
layerId = m01;
shapes = (
{
closed = 1;
nodes = (
(409,0,o),
(496,87,o),
(496,194,cs),
(496,302,o),
(409,389,o),
(301,389,cs),
(194,389,o),
(107,302,o),
(107,194,cs),
(107,87,o),
(194,0,o),
(301,0,cs)
);
},
{
closed = 1;
nodes = (
(237,78,o),
(185,130,o),
(185,194,cs),
(185,259,o),
(237,311,o),
(301,311,cs),
(366,311,o),
(418,259,o),
(418,194,cs),
(418,130,o),
(366,78,o),
(301,78,cs)
);
},
{
closed = 1;
nodes = (
(322,699,l),
(208,699,o),
(157,607,o),
(121,514,c),
(171,508,l),
(198,558,o),
(251,621,o),
(322,621,c)
);
},
{
closed = 1;
nodes = (
(584,0,l),
(662,0,l),
(662,694,l),
(584,694,l)
);
},
{
closed = 1;
nodes = (
(321,557,l),
(292,573,o),
(259,582,o),
(224,582,cs),
(117,582,o),
(30,495,o),
(30,387,cs),
(30,294,o),
(96,216,o),
(183,197,c),
(198,274,l),
(147,286,o),
(108,332,o),
(108,387,cs),
(108,452,o),
(160,504,o),
(224,504,cs),
(249,504,o),
(267,497,o),
(286,484,c)
);
},
{
pos = (-123,0);
ref = topright;
}
);
width = 693;
}
);
unicode = 2870;
},
{
glyphname = "sha-oriya.base";
layers = (
{
layerId = m01;
shapes = (
{
closed = 1;
nodes = (
(507,-258,o),
(558,-209,o),
(558,-149,cs),
(558,-88,o),
(507,-41,o),
(447,-41,cs),
(388,-41,o),
(339,-88,o),
(339,-149,cs),
(339,-209,o),
(388,-258,o),
(447,-258,cs)
);
},
{
closed = 1;
nodes = (
(420,-200,o),
(397,-176,o),
(397,-149,cs),
(397,-121,o),
(420,-97,o),
(447,-97,cs),
(476,-97,o),
(498,-121,o),
(498,-149,cs),
(498,-176,o),
(476,-200,o),
(447,-200,cs)
);
},
{
closed = 1;
nodes = (
(623,-258,l),
(683,-258,l),
(683,125,l),
(623,125,l)
);
},
{
closed = 1;
nodes = (
(447,41,l),
(459,59,o),
(475,72,o),
(505,72,c),
(503,125,l),
(453,125,o),
(425,93,o),
(405,54,c)
);
},
{
closed = 1;
nodes = (
(404,-76,l),
(387,-68,o),
(374,-50,o),
(374,-30,cs),
(374,0,o),
(396,22,o),
(425,22,cs),
(436,22,o),
(444,19,o),
(452,14,c),
(482,65,l),
(466,74,o),
(447,79,o),
(428,79,cs),
(368,79,o),
(320,31,o),
(320,-30,cs),
(320,-67,o),
(340,-101,o),
(370,-121,c)
);
},
{
closed = 1;
nodes = (
(505,72,l),
(573,72,o),
(622,21,o),
(623,-48,c),
(677,-48,l),
(676,46,o),
(599,125,o),
(503,125,c)
);
}
);
width = 600;
}
);
},
{
glyphname = "ssa-oriya";
layers = (
{
anchors = (
{
name = am;
pos = (680,659);
},
{
name = below;
pos = (496,-20);
},
{
name = bindu;
pos = (351,-96);
},
{
name = bottom;
pos = (634,17);
},
{
name = bottomtwo;
pos = (715,-146);
},
{
name = chanBin;
pos = (548,702);
},
{
name = hal;
pos = (686,703);
},
{
name = nukta;
pos = (351,-50);
},
{
name = reph2;
pos = (635,4);
},
{
name = reph3;
pos = (611,-258);
},
{
name = ru;
pos = (351,-7);
},
{
name = top;
pos = (351,754);
}
);
layerId = m01;
shapes = (
{
ref = "pa-oriya";
},
{
closed = 1;
nodes = (
(448,48,l),
(521,74,l),
(263,676,l),
(190,650,l)
);
}
);
width = 721;
}
);
unicode = 2871;
},
{
glyphname = "ssa-oriya.base";
layers = (
{
layerId = m01;
shapes = (
{
closed = 1;
nodes = (
(623,-258,l),
(683,-258,l),
(683,125,l),
(623,125,l)
);
},
{
closed = 1;
nodes = (
(505,125,l),
(505,125,o),
(507,125,o),
(507,125,cs),
(507,125,o),
(502,125,o),
(447,125,cs),
(388,125,o),
(339,77,o),
(339,16,cs),
(339,-43,o),
(388,-92,o),
(447,-92,cs),
(508,-92,o),
(448,-92,o),
(448,-92,c),
(448,-48,l),
(448,-48,o),
(448,-41,o),
(447,-41,cs),
(416,-41,o),
(398,-15,o),
(398,16,cs),
(398,49,o),
(423,72,o),
(454,72,cs),
(487,72,o),
(505,72,o),
(505,72,cs),
(505,72,o),
(505,79,o),
(505,79,c)
);
},
{
closed = 1;
nodes = (
(505,72,l),
(573,72,o),
(622,21,o),
(623,-48,c),
(677,-48,l),
(676,46,o),
(599,125,o),
(503,125,c)
);
},
{
closed = 1;
nodes = (
(505,-214,o),
(505,-207,o),
(505,-207,cs),
(505,-207,o),
(487,-207,o),
(454,-207,cs),
(423,-207,o),
(398,-184,o),
(398,-151,cs),
(398,-120,o),
(416,-94,o),
(447,-94,cs),
(448,-94,o),
(448,-87,o),
(448,-87,c),
(448,-43,l),
(448,-43,o),
(508,-43,o),
(447,-43,cs),
(388,-43,o),
(339,-92,o),
(339,-151,cs),
(339,-212,o),
(388,-260,o),
(447,-260,cs),
(502,-260,o),
(507,-260,o),
(507,-260,cs),
(507,-260,o),
(505,-260,o),
(505,-260,c),
(505,-214,l)
);
},
{
closed = 1;
nodes = (
(599,-260,o),
(676,-181,o),
(677,-87,c),
(623,-87,l),
(622,-156,o),
(573,-207,o),
(505,-207,c),
(503,-260,l)
);
},
{
closed = 1;
nodes = (
(628,-210,l),
(670,-167,l),
(399,103,l),
(357,61,l)
);
}
);
width = 600;
}
);
},
{
glyphname = "sa-oriya";
layers = (
{
anchors = (
{
name = am;
pos = (680,659);
},
{
name = below;
pos = (496,-20);
},
{
name = bindu;
pos = (351,-96);
},
{
name = bottom;
pos = (605,17);
},
{
name = bottomtwo;
pos = (715,-146);
},
{
name = chanBin;
pos = (548,702);
},
{
name = hal;
pos = (686,703);
},
{
name = nukta;
pos = (351,-50);
},
{
name = reph2;
pos = (606,4);
},
{
name = reph3;
pos = (611,-258);
},
{
name = ru;
pos = (351,-7);
},
{
name = top;
pos = (351,754);
}
);
guides = (
{
angle = 65;
pos = (198,427);
}
);
layerId = m01;
shapes = (
{
closed = 1;
nodes = (
(641,0,l),
(641,699,l),
(563,699,l),
(563,0,l)
);
},
{
closed = 1;
nodes = (
(67,136,l),
(119,71,l),
(245,335,l),
(188,390,l)
);
},
{
closed = 1;
nodes = (
(564,0,l),
(564,78,l),
(67,134,l),
(67,53,l)
);
},
{
closed = 1;
nodes = (
(360,388,o),
(361,388,o),
(361,388,cs),
(361,388,o),
(309,388,o),
(244,388,cs),
(180,388,o),
(128,440,o),
(128,505,cs),
(128,569,o),
(180,621,o),
(244,621,cs),
(309,621,o),
(297,621,o),
(297,621,c),
(297,699,l),
(297,699,o),
(352,699,o),
(244,699,cs),
(137,699,o),
(50,612,o),
(50,505,cs),
(50,397,o),
(137,310,o),
(244,310,cs),
(352,310,o),
(361,310,o),
(361,310,cs),
(361,310,o),
(360,310,o),
(360,310,c),
(360,388,l)
);
},
{
pos = (-143,0);
ref = topright;
}
);
width = 691;
}
);
unicode = 2872;
},
{
glyphname = "sa-oriya.base";
layers = (
{
layerId = m01;
shapes = (
{
closed = 1;
nodes = (
(620,-258,l),
(682,-258,l),
(682,125,l),
(620,125,l)
);
},
{
closed = 1;
nodes = (
(412,-205,l),
(490,-77,l),
(445,-34,l),
(366,-162,l)
);
},
{
closed = 1;
nodes = (
(346,-191,l),
(624,-258,l),
(655,-205,l),
(383,-137,l)
);
},
{
closed = 1;
nodes = (
(505,125,l),
(505,125,o),
(507,125,o),
(507,125,cs),
(507,125,o),
(502,125,o),
(447,125,cs),
(388,125,o),
(339,77,o),
(339,16,cs),
(339,-43,o),
(388,-92,o),
(447,-92,cs),
(508,-92,o),
(448,-92,o),
(448,-92,c),
(448,-48,l),
(448,-48,o),
(450,-42,o),
(449,-42,cs),
(419,-42,o),
(401,-16,o),
(401,14,cs),
(401,46,o),
(425,68,o),
(456,68,cs),
(488,68,o),
(505,68,o),
(505,68,cs),
(505,68,o),
(505,79,o),
(505,79,c)
);
},
{
closed = 1;
nodes = (
(505,68,l),
(571,68,o),
(619,18,o),
(620,-49,c),
(677,-48,l),
(676,46,o),
(599,125,o),
(503,125,c)
);
}
);
width = 600;
}
);
},
{
glyphname = "ha-oriya";
layers = (
{
anchors = (
{
name = am;
pos = (700,659);
},
{
name = below;
pos = (186,-37);
},
{
name = bindu;
pos = (321,-216);
},
{
name = bottom;
pos = (521,-59);
},
{
name = bottomtwo;
pos = (735,-146);
},
{
name = chanBin;
pos = (568,702);
},
{
name = hal;
pos = (376,553);
},
{
name = nukta;
pos = (323,-100);
},
{
name = reph2;
pos = (625,4);
},
{
name = reph3;
pos = (631,-258);
},
{
name = ru;
pos = (132,-120);
},
{
name = top;
pos = (371,754);
}
);
layerId = m01;
shapes = (
{
closed = 1;
nodes = (
(217,205,l),
(163,247,o),
(128,314,o),
(128,388,cs),
(128,516,o),
(232,621,o),
(360,621,cs),
(489,621,o),
(593,517,o),
(594,389,c),
(672,389,l),
(671,560,o),
(532,699,o),
(360,699,cs),
(189,699,o),
(50,559,o),
(50,388,cs),
(50,273,o),
(112,173,o),
(204,119,c)
);
},
{
closed = 1;
nodes = (
(479,0,l),
(557,0,l),
(557,314,l),
(479,388,l)
);
},
{
closed = 1;
nodes = (
(479,195,ls),
(479,195,o),
(479,194,o),
(479,194,cs),
(479,130,o),
(427,78,o),
(362,78,cs),
(298,78,o),
(246,130,o),
(246,194,cs),
(246,259,o),
(298,311,o),
(362,311,cs),
(362,311,o),
(362,311,o),
(362,311,c),
(362,389,l),
(362,389,o),
(362,389,o),
(362,389,cs),
(255,389,o),
(168,302,o),
(168,194,cs),
(168,87,o),
(255,0,o),
(362,0,cs),
(470,0,o),
(557,87,o),
(557,194,cs),
(557,194,o),
(557,195,o),
(557,195,cs)
);
},
{
closed = 1;
nodes = (
(181,-36,l),
(98,-80,l),
(373,-195,l),
(406,-122,l)
);
},
{
closed = 1;
nodes = (
(488,123,l),
(97,-78,l),
(191,-120,l),
(510,50,l)
);
}
);
width = 702;
}
);
unicode = 2873;
},
{
glyphname = "ha-oriya.base";
layers = (
{
layerId = m01;
shapes = (
{
closed = 1;
nodes = (
(491,-126,l),
(465,-106,o),
(449,-75,o),
(449,-41,cs),
(449,21,o),
(499,72,o),
(561,72,c),
(623,72,o),
(672,23,o),
(673,-39,c),
(735,-41,l),
(734,53,o),
(657,132,o),
(561,132,cs),
(465,132,o),
(387,53,o),
(387,-43,cs),
(387,-106,o),
(421,-160,o),
(475,-191,c)
);
},
{
closed = 1;
nodes = (
(612,-258,l),
(672,-258,l),
(672,-76,l),
(612,-76,l)
);
},
{
closed = 1;
nodes = (
(612,-149,ls),
(612,-149,o),
(612,-149,o),
(612,-149,cs),
(612,-176,o),
(590,-200,o),
(561,-200,cs),
(534,-200,o),
(511,-176,o),
(511,-149,cs),
(511,-133,o),
(519,-118,o),
(531,-108,c),
(501,-59,l),
(472,-78,o),
(453,-111,o),
(453,-149,cs),
(453,-209,o),
(502,-258,o),
(561,-258,cs),
(621,-258,o),
(672,-209,o),
(672,-149,cs),
(672,-149,o),
(672,-149,o),
(672,-149,cs)
);
},
{
closed = 1;
nodes = (
(419,-286,l),
(498,-157,l),
(455,-114,l),
(376,-242,l)
);
},
{
closed = 1;
nodes = (
(356,-271,l),
(634,-338,l),
(677,-295,l),
(389,-222,l)
);
}
);
width = 600;
}
);
},
{
glyphname = "rra-oriya";
layers = (
{
anchors = (
{
name = am;
pos = (680,659);
},
{
name = below;
pos = (496,-20);
},
{
name = bindu;
pos = (351,-96);
},
{
name = bottom;
pos = (495,17);
},
{
name = bottomtwo;
pos = (715,-146);
},
{
name = chanBin;
pos = (548,702);
},
{
name = hal;
pos = (416,703);
},
{
name = nukta;
pos = (351,-50);
},
{
name = reph2;
pos = (595,4);
},
{
name = reph3;
pos = (611,-258);
},
{
name = ru;
pos = (351,-7);
},
{
name = top;
pos = (351,754);
}
);
layerId = m01;
shapes = (
{
closed = 1;
nodes = (
(197,205,l),
(143,247,o),
(108,314,o),
(108,388,cs),
(108,516,o),
(212,621,o),
(340,621,cs),
(469,621,o),
(573,517,o),
(574,389,c),
(652,389,l),
(651,560,o),
(512,699,o),
(340,699,cs),
(169,699,o),
(30,559,o),
(30,388,cs),
(30,273,o),
(92,173,o),
(184,119,c)
);
},
{
closed = 1;
nodes = (
(409,324,l),
(433,313,o),
(454,294,o),
(466,267,cs),
(493,209,o),
(449,116,o),
(390,89,cs),
(332,62,o),
(263,87,o),
(236,145,cs),
(208,203,o),
(233,272,o),
(291,299,c),
(258,370,l),
(161,325,o),
(120,209,o),
(165,112,cs),
(210,15,o),
(326,-27,o),
(423,18,cs),
(521,64,o),
(563,179,o),
(518,276,cs),
(497,320,o),
(463,352,o),
(423,371,c)
);
},
{
closed = 1;
nodes = (
(441,389,l),
(441,389,o),
(441,389,o),
(441,389,cs),
(372,320,o),
(353,300,o),
(318,265,c),
(373,210,l),
(401,238,o),
(458,296,o),
(496,334,cs),
(496,334,o),
(496,334,o),
(496,334,c)
);
},
{
closed = 1;
nodes = (
(295,-160,o),
(266,-131,o),
(266,-96,cs),
(266,-60,o),
(295,-31,o),
(330,-31,cs),
(366,-31,o),
(395,-60,o),
(395,-96,cs),
(395,-131,o),
(366,-160,o),
(330,-160,c)
);
}
);
width = 682;
}
);
unicode = 2908;
},
{
glyphname = "wa-oriya";
layers = (
{
anchors = (
{
name = am;
pos = (680,659);
},
{
name = below;
pos = (496,-20);
},
{
name = bindu;
pos = (351,-96);
},
{
name = bottom;
pos = (531,17);
},
{
name = bottomtwo;
pos = (715,-146);
},
{
name = chanBin;
pos = (548,702);
},
{
name = hal;
pos = (416,703);
},
{
name = nukta;
pos = (351,-50);
},
{
name = reph2;
pos = (534,4);
},
{
name = reph3;
pos = (611,-258);
},
{
name = ru;
pos = (351,-7);
},
{
name = top;
pos = (351,754);
}
);
guides = (
{
pos = (719,350);
}
);
layerId = m01;
shapes = (
{
closed = 1;
nodes = (
(568,0,l),
(568,243,ls),
(568,287,o),
(567,302,o),
(567,322,c),
(654,355,o),
(715,416,o),
(715,510,cs),
(715,574,ls),
(715,643,o),
(650,699,o),
(572,699,cs),
(531,698,o),
(493,683,o),
(467,659,c),
(441,683,o),
(403,699,o),
(362,699,cs),
(283,698,o),
(218,642,o),
(218,574,cs),
(218,514,l),
(296,514,l),
(296,573,ls),
(296,590,o),
(314,621,o),
(363,621,cs),
(408,621,o),
(427,589,o),
(427,574,cs),
(427,514,l),
(506,514,l),
(506,573,ls),
(506,590,o),
(524,621,o),
(573,621,cs),
(618,621,o),
(637,589,o),
(637,574,cs),
(637,513,ls),
(637,421,o),
(503,370,o),
(370,370,cs),
(344,370,o),
(319,372,o),
(295,376,cs),
(197,392,o),
(119,443,o),
(113,545,cs),
(111,572,o),
(111,657,o),
(114,696,c),
(32,697,l),
(27,640,o),
(33,556,o),
(33,547,cs),
(34,412,o),
(112,340,o),
(217,309,c),
(218,284,o),
(218,254,o),
(218,207,cs),
(218,110,o),
(296,32,o),
(393,32,cs),
(429,32,o),
(462,43,o),
(490,61,c),
(490,0,l)
);
},
{
closed = 1;
nodes = (
(296,293,l),
(319,290,o),
(343,289,o),
(367,289,cs),
(409,289,o),
(451,293,o),
(489,300,c),
(490,271,o),
(490,240,o),
(490,207,cs),
(490,153,o),
(447,110,o),
(393,110,cs),
(339,110,o),
(296,153,o),
(296,207,cs)
);
}
);
width = 745;
}
);
unicode = 2929;
},
{
glyphname = "rha-oriya";
layers = (
{
anchors = (
{
name = am;
pos = (709,659);
},
{
name = below;
pos = (525,-20);
},
{
name = bindu;
pos = (380,-96);
},
{
name = bottom;
pos = (522,17);
},
{
name = bottomtwo;
pos = (744,-146);
},
{
name = chanBin;
pos = (577,702);
},
{
name = hal;
pos = (416,703);
},
{
name = nukta;
pos = (380,-50);
},
{
name = reph2;
pos = (642,4);
},
{
name = reph3;
pos = (611,-258);
},
{
name = ru;
pos = (380,-7);
},
{
name = top;
pos = (380,754);
}
);
layerId = m01;
shapes = (
{
closed = 1;
nodes = (
(197,205,l),
(143,247,o),
(108,314,o),
(108,388,cs),
(108,516,o),
(212,621,o),
(340,621,cs),
(469,621,o),
(573,517,o),
(574,389,c),
(652,389,l),
(651,560,o),
(512,699,o),
(340,699,cs),
(169,699,o),
(30,559,o),
(30,388,cs),
(30,273,o),
(92,173,o),
(184,119,c)
);
},
{
closed = 1;
nodes = (
(537,204,l),
(537,204,o),
(537,204,o),
(537,204,cs),
(537,274,o),
(481,330,o),
(411,330,cs),
(355,330,o),
(307,294,o),
(291,243,cs),
(287,231,o),
(285,218,o),
(285,204,cs),
(285,134,o),
(341,78,o),
(411,78,cs),
(481,78,o),
(525,78,o),
(571,78,c),
(621,156,l),
(588,156,o),
(438,156,o),
(411,156,cs),
(384,156,o),
(363,177,o),
(363,204,cs),
(363,231,o),
(384,252,o),
(411,252,cs),
(438,252,o),
(459,231,o),
(459,204,cs),
(459,204,o),
(459,204,o),
(459,204,c)
);
},
{
closed = 1;
nodes = (
(459,204,l),
(459,201,o),
(459,197,o),
(459,194,cs),
(459,130,o),
(407,78,o),
(342,78,cs),
(278,78,o),
(226,130,o),
(226,194,cs),
(226,232,o),
(243,265,o),
(270,286,c),
(238,358,l),
(184,324,o),
(148,263,o),
(148,194,cs),
(148,87,o),
(235,0,o),
(342,0,cs),
(450,0,o),
(537,87,o),
(537,194,cs),
(537,197,o),
(537,201,o),
(537,204,c)
);
},
{
closed = 1;
nodes = (
(324,-160,o),
(295,-131,o),
(295,-96,cs),
(295,-60,o),
(324,-31,o),
(359,-31,cs),
(395,-31,o),
(424,-60,o),
(424,-96,cs),
(424,-131,o),
(395,-160,o),
(359,-160,c)
);
}
);
width = 702;
}
);
unicode = 2909;
},
{
glyphname = "yya-oriya";
layers = (
{
anchors = (
{
name = am;
pos = (680,659);
},
{
name = below;
pos = (496,-20);
},
{
name = bindu;
pos = (351,-96);
},
{
name = bottom;
pos = (413,17);
},
{
name = bottomtwo;
pos = (715,-146);
},
{
name = chanBin;
pos = (548,702);
},
{
name = hal;
pos = (686,543);
},
{
name = nukta;
pos = (351,-50);
},
{
name = reph2;
pos = (618,4);
},
{
name = reph3;
pos = (611,-258);
},
{
name = ru;
pos = (351,-7);
},
{
name = top;
pos = (351,754);
}
);
layerId = m01;
shapes = (
{
closed = 1;
nodes = (
(573,80,l),
(651,80,l),
(651,700,l),
(573,700,l)
);
},
{
closed = 1;
nodes = (
(573,351,o),
(573,350,o),
(573,350,cs),
(573,198,o),
(453,78,o),
(301,78,c),
(302,0,l),
(497,0,o),
(651,155,o),
(651,350,cs),
(651,350,o),
(651,351,o),
(651,351,cs),
(573,351,ls)
);
},
{
closed = 1;
nodes = (
(320,389,l),
(320,389,o),
(311,389,o),
(311,389,cs),
(311,389,o),
(302,389,o),
(224,389,cs),
(117,389,o),
(30,302,o),
(30,194,cs),
(30,87,o),
(117,0,o),
(224,0,cs),
(332,0,o),
(307,0,o),
(307,0,c),
(307,78,l),
(307,78,o),
(289,78,o),
(224,78,cs),
(160,78,o),
(108,130,o),
(108,194,cs),
(108,259,o),
(160,311,o),
(224,311,cs),
(289,311,o),
(311,311,o),
(311,311,cs),
(311,311,o),
(320,311,o),
(320,311,c)
);
},
{
closed = 1;
nodes = (
(651,348,ls),
(651,348,o),
(651,349,o),
(651,349,cs),
(651,544,o),
(497,699,o),
(302,699,c),
(301,621,l),
(453,621,o),
(573,501,o),
(573,349,cs),
(573,349,o),
(573,348,o),
(573,348,cs)
);
},
{
closed = 1;
nodes = (
(320,388,o),
(311,388,o),
(311,388,cs),
(311,388,o),
(289,388,o),
(224,388,cs),
(160,388,o),
(108,440,o),
(108,505,cs),
(108,569,o),
(160,621,o),
(224,621,cs),
(289,621,o),
(307,621,o),
(307,621,c),
(307,699,l),
(307,699,o),
(332,699,o),
(224,699,cs),
(117,699,o),
(30,612,o),
(30,505,cs),
(30,397,o),
(117,310,o),
(224,310,cs),
(302,310,o),
(311,310,o),
(311,310,cs),
(311,310,o),
(320,310,o),
(320,310,c),
(320,388,l)
);
},
{
closed = 1;
nodes = (
(573,16,o),
(573,16,o),
(573,16,cs),
(573,16,o),
(525,16,o),
(590,16,cs),
(654,16,o),
(706,5,o),
(706,-30,cs),
(706,-85,o),
(654,-87,o),
(590,-87,cs),
(525,-87,o),
(573,-87,o),
(573,-87,c),
(573,-165,l),
(573,-165,o),
(582,-165,o),
(590,-165,cs),
(697,-165,o),
(784,-137,o),
(784,-30,cs),
(784,78,o),
(697,94,o),
(590,94,cs),
(582,94,o),
(573,94,o),
(573,94,cs),
(573,94,o),
(573,94,o),
(573,94,c),
(573,16,l)
);
},
{
closed = 1;
nodes = (
(802,-164,l),
(802,-86,l),
(572,-86,l),
(572,-164,l)
);
}
);
width = 722;
}
);
unicode = 2911;
},
{
glyphname = "yya-oriya.post";
layers = (
{
layerId = m01;
shapes = (
{
closed = 1;
nodes = (
(372,0,l),
(372,700,l),
(294,700,l),
(294,0,l)
);
},
{
closed = 1;
nodes = (
(293,700,l),
(293,661,o),
(294,580,o),
(294,526,cs),
(294,472,o),
(251,429,o),
(197,429,cs),
(143,429,o),
(100,472,o),
(100,526,cs),
(100,580,o),
(99,652,o),
(99,703,cs),
(99,703,o),
(99,700,o),
(99,700,c),
(20,700,l),
(20,700,o),
(20,703,o),
(20,703,cs),
(20,646,o),
(22,623,o),
(22,526,cs),
(22,429,o),
(100,351,o),
(197,351,cs),
(294,351,o),
(372,429,o),
(372,526,cs),
(372,623,o),
(371,651,o),
(371,700,c)
);
}
);
width = 422;
}
);
},
{
glyphname = "nya-oriya.base";
layers = (
{
hints = (
{
horizontal = 1;
place = (3, 78);
place = (3, 78);
type = Stem;
},
{
horizontal = 1;
place = (318, 71);
place = (318, 71);
type = Stem;
},
{
horizontal = 1;
place = (620, 80);
place = (620, 80);
type = Stem;
},
{
horizontal = 1;
place = (190, 187);
place = (190, 187);
type = Stem;
},
{
horizontal = 1;
place = (311, 66);
place = (311, 66);
type = Stem;
},
{
horizontal = 1;
place = (618, 81);
place = (618, 81);
type = Stem;
},
{
horizontal = 1;
place = (440, 192);
place = (440, 192);
type = Stem;
},
{
place = (37, 86);
place = (37, 86);
type = Stem;
},
{
place = (225, 80);
place = (225, 80);
type = Stem;
},
{
place = (398, 69);
place = (398, 69);
type = Stem;
},
{
place = (576, 78);
place = (576, 78);
type = Stem;
}
);
layerId = m01;
shapes = (
{
closed = 1;
nodes = (
(648,-137,l),
(649,-89,o),
(648,-129,o),
(648,-92,cs),
(649,-82,o),
(660,-74,o),
(671,-73,cs),
(680,-73,o),
(691,-79,o),
(691,-88,cs),
(691,-127,ls),
(691,-174,o),
(631,-195,o),
(562,-195,cs),
(495,-195,o),
(418,-147,o),
(414,-81,cs),
(412,-39,o),
(414,29,o),
(458,112,c),
(399,131,l),
(338,-3,o),
(352,-75,o),
(352,-85,cs),
(353,-193,o),
(465,-259,o),
(561,-259,cs),
(663,-259,o),
(753,-223,o),
(755,-137,cs),
(756,-80,o),
(755,-125,o),
(755,-80,cs),
(755,-66,o),
(749,-53,o),
(740,-42,c),
(749,-29,o),
(754,-13,o),
(755,6,cs),
(756,63,o),
(755,18,o),
(755,63,cs),
(755,101,o),
(712,132,o),
(674,132,cs),
(655,132,o),
(636,125,o),
(621,113,c),
(605,125,o),
(586,132,o),
(567,132,cs),
(529,132,o),
(487,101,o),
(487,63,cs),
(487,20,o),
(487,50,o),
(487,13,cs),
(487,6,l),
(542,6,l),
(542,51,l),
(543,61,o),
(557,69,o),
(568,70,cs),
(577,70,o),
(594,61,o),
(594,52,cs),
(594,6,l),
(648,6,l),
(649,55,o),
(648,15,o),
(648,52,cs),
(649,62,o),
(664,70,o),
(675,71,cs),
(684,71,o),
(701,62,o),
(701,53,cs),
(701,14,l),
(700,4,o),
(698,-5,o),
(693,-13,c),
(686,-12,o),
(680,-11,o),
(674,-11,cs),
(655,-11,o),
(636,-18,o),
(621,-30,c),
(605,-18,o),
(586,-11,o),
(567,-11,cs),
(529,-11,o),
(487,-42,o),
(487,-80,cs),
(487,-123,o),
(487,-93,o),
(487,-130,cs),
(487,-137,l),
(541,-137,l),
(541,-94,l),
(542,-84,o),
(557,-76,o),
(568,-75,cs),
(577,-75,o),
(594,-84,o),
(594,-93,cs),
(594,-137,l)
);
}
);
width = 600;
}
);
},
{
glyphname = "sa-oriya.001";
layers = (
{
anchors = (
{
name = am;
pos = (680,659);
},
{
name = below;
pos = (496,-20);
},
{
name = bindu;
pos = (351,-96);
},
{
name = bottom;
pos = (604,17);
},
{
name = bottomtwo;
pos = (715,-146);
},
{
name = chanBin;
pos = (548,702);
},
{
name = hal;
pos = (686,703);
},
{
name = nukta;
pos = (351,-50);
},
{
name = reph2;
pos = (604,12);
},
{
name = reph3;
pos = (608,-258);
},
{
name = ru;
pos = (351,-7);
},
{
name = top;
pos = (351,754);
}
);
guides = (
{
angle = 65;
pos = (198,427);
}
);
layerId = m01;
shapes = (
{
closed = 1;
nodes = (
(641,0,l),
(641,699,l),
(563,699,l),
(563,0,l)
);
},
{
closed = 1;
nodes = (
(67,136,l),
(119,71,l),
(245,335,l),
(188,390,l)
);
},
{
closed = 1;
nodes = (
(564,0,l),
(564,78,l),
(67,134,l),
(67,53,l)
);
},
{
closed = 1;
nodes = (
(360,388,o),
(361,388,o),
(361,388,cs),
(361,388,o),
(309,388,o),
(244,388,cs),
(180,388,o),
(128,440,o),
(128,505,cs),
(128,569,o),
(180,621,o),
(244,621,cs),
(309,621,o),
(297,621,o),
(297,621,c),
(297,699,l),
(297,699,o),
(352,699,o),
(244,699,cs),
(137,699,o),
(50,612,o),
(50,505,cs),
(50,397,o),
(137,310,o),
(244,310,cs),
(352,310,o),
(361,310,o),
(361,310,cs),
(361,310,o),
(360,310,o),
(360,310,c),
(360,388,l)
);
},
{
pos = (-143,0);
ref = topright;
}
);
width = 691;
}
);
},
{
glyphname = "ka_ka-oriya";
layers = (
{
anchors = (
{
name = am;
pos = (700,659);
},
{
name = bindu;
pos = (362,-331);
},
{
name = bottom;
pos = (734,-146);
},
{
name = chanBin;
pos = (568,702);
},
{
name = nukta;
pos = (362,-285);
},
{
name = reph2;
pos = (736,-164);
},
{
name = ru;
pos = (362,-245);
},
{
name = top;
pos = (363,754);
}
);
layerId = m01;
shapes = (
{
closed = 1;
nodes = (
(352,0,o),
(408,87,o),
(408,194,cs),
(408,302,o),
(352,389,o),
(244,389,cs),
(137,389,o),
(50,302,o),
(50,194,cs),
(50,87,o),
(137,0,o),
(244,0,cs)
);
},
{
closed = 1;
nodes = (
(180,78,o),
(128,130,o),
(128,194,cs),
(128,259,o),
(180,311,o),
(244,311,cs),
(309,311,o),
(361,259,o),
(361,194,cs),
(361,130,o),
(309,78,o),
(244,78,cs)
);
},
{
closed = 1;
nodes = (
(414,700,l),
(414,700,o),
(421,700,o),
(421,700,cs),
(421,700,o),
(412,700,o),
(244,700,cs),
(137,700,o),
(50,613,o),
(50,505,cs),
(50,398,o),
(137,311,o),
(244,311,cs),
(352,311,o),
(245,311,o),
(245,311,c),
(245,389,l),
(245,389,o),
(309,389,o),
(244,389,cs),
(180,389,o),
(128,441,o),
(128,505,cs),
(128,570,o),
(180,622,o),
(244,622,cs),
(309,622,o),
(421,622,o),
(421,622,cs),
(421,622,o),
(414,622,o),
(414,622,c)
);
},
{
closed = 1;
nodes = (
(361,0,l),
(439,0,l),
(439,389,l),
(413,389,o),
(387,389,o),
(361,389,c)
);
},
{
closed = 1;
nodes = (
(592,0,l),
(670,0,l),
(670,389,l),
(592,389,l)
);
},
{
closed = 1;
nodes = (
(593,311,l),
(593,389,l),
(404,389,l),
(404,311,l)
);
},
{
closed = 1;
nodes = (
(670,505,l),
(670,505,o),
(670,505,o),
(670,505,cs),
(670,613,o),
(583,700,o),
(476,700,cs),
(168,700,o),
(159,700,o),
(159,700,cs),
(159,700,o),
(296,700,o),
(296,700,c),
(296,622,l),
(296,622,o),
(159,622,o),
(159,622,cs),
(159,622,o),
(411,622,o),
(476,622,cs),
(540,622,o),
(592,570,o),
(592,505,cs),
(592,505,o),
(592,505,o),
(592,505,c)
);
},
{
closed = 1;
nodes = (
(608,-258,l),
(670,-258,l),
(670,-17,l),
(608,-17,l)
);
},
{
closed = 1;
nodes = (
(624,-86,l),
(624,-17,l),
(506,-17,l),
(506,-86,l)
);
},
{
closed = 1;
nodes = (
(506,-258,l),
(568,-258,l),
(568,-17,l),
(506,-17,l)
);
},
{
closed = 1;
nodes = (
(510,-257,o),
(565,-204,o),
(565,-139,cs),
(565,-73,o),
(510,-22,o),
(445,-22,cs),
(381,-22,o),
(328,-73,o),
(328,-139,cs),
(328,-204,o),
(381,-257,o),
(445,-257,cs)
);
},
{
closed = 1;
nodes = (
(416,-194,o),
(391,-168,o),
(391,-139,cs),
(391,-109,o),
(416,-83,o),
(445,-83,cs),
(476,-83,o),
(500,-109,o),
(500,-139,cs),
(500,-168,o),
(476,-194,o),
(445,-194,cs)
);
}
);
width = 720;
}
);
metricRight = "ka-oriya";
},
{
glyphname = "ka_tta-oriya";
layers = (
{
anchors = (
{
name = bindu;
pos = (296,-81);
},
{
name = bottom;
pos = (734,-146);
},
{
name = chanBin;
pos = (568,702);
},
{
name = nukta;
pos = (292,-35);
},
{
name = reph2;
pos = (736,-164);
},
{
name = ru;
pos = (292,5);
},
{
name = top;
pos = (371,754);
}
);
layerId = m01;
shapes = (
{
closed = 1;
nodes = (
(352,0,o),
(408,87,o),
(408,194,cs),
(408,302,o),
(352,389,o),
(244,389,cs),
(137,389,o),
(50,302,o),
(50,194,cs),
(50,87,o),
(137,0,o),
(244,0,cs)
);
},
{
closed = 1;
nodes = (
(180,78,o),
(128,130,o),
(128,194,cs),
(128,259,o),
(180,311,o),
(244,311,cs),
(309,311,o),
(361,259,o),
(361,194,cs),
(361,130,o),
(309,78,o),
(244,78,cs)
);
},
{
closed = 1;
nodes = (
(414,700,l),
(414,700,o),
(421,700,o),
(421,700,cs),
(421,700,o),
(412,700,o),
(244,700,cs),
(137,700,o),
(50,613,o),
(50,505,cs),
(50,398,o),
(137,311,o),
(244,311,cs),
(352,311,o),
(245,311,o),
(245,311,c),
(245,389,l),
(245,389,o),
(309,389,o),
(244,389,cs),
(180,389,o),
(128,441,o),
(128,505,cs),
(128,570,o),
(180,622,o),
(244,622,cs),
(309,622,o),
(421,622,o),
(421,622,cs),
(421,622,o),
(414,622,o),
(414,622,c)
);
},
{
closed = 1;
nodes = (
(361,0,l),
(439,0,l),
(439,389,l),
(413,389,o),
(387,389,o),
(361,389,c)
);
},
{
closed = 1;
nodes = (
(592,90,l),
(670,90,l),
(670,389,l),
(592,389,l)
);
},
{
closed = 1;
nodes = (
(593,311,l),
(593,389,l),
(404,389,l),
(404,311,l)
);
},
{
closed = 1;
nodes = (
(670,505,l),
(670,505,o),
(670,505,o),
(670,505,cs),
(670,613,o),
(583,700,o),
(476,700,cs),
(168,700,o),
(159,700,o),
(159,700,cs),
(159,700,o),
(296,700,o),
(296,700,c),
(296,622,l),
(296,622,o),
(159,622,o),
(159,622,cs),
(159,622,o),
(411,622,o),
(476,622,cs),
(540,622,o),
(592,570,o),
(592,505,cs),
(592,505,o),
(592,505,o),
(592,505,c)
);
},
{
closed = 1;
nodes = (
(641,-258,o),
(692,-209,o),
(692,-149,cs),
(692,-88,o),
(641,-41,o),
(581,-41,cs),
(522,-41,o),
(473,-88,o),
(473,-149,cs),
(473,-209,o),
(522,-258,o),
(581,-258,cs)
);
},
{
closed = 1;
nodes = (
(554,-200,o),
(531,-176,o),
(531,-149,cs),
(531,-121,o),
(554,-97,o),
(581,-97,cs),
(610,-97,o),
(632,-121,o),
(632,-149,cs),
(632,-176,o),
(610,-200,o),
(581,-200,cs)
);
},
{
closed = 1;
nodes = (
(511,-126,l),
(485,-106,o),
(469,-75,o),
(469,-41,cs),
(469,21,o),
(519,72,o),
(581,72,c),
(643,72,o),
(692,23,o),
(693,-39,c),
(755,-41,l),
(754,53,o),
(677,132,o),
(581,132,cs),
(485,132,o),
(407,53,o),
(407,-43,cs),
(407,-106,o),
(441,-160,o),
(495,-191,c)
);
},
{
closed = 1;
nodes = (
(755,-39,l),
(755,109,l),
(692,137,l),
(692,-39,l)
);
}
);
width = 785;
}
);
metricRight = "tta-oriya";
},
{
glyphname = "ka_ta-oriya";
layers = (
{
anchors = (
{
name = bindu;
pos = (342,-331);
},
{
name = bottom;
pos = (714,-146);
},
{
name = chanBin;
pos = (548,702);
},
{
name = nukta;
pos = (342,-285);
},
{
name = reph2;
pos = (716,-164);
},
{
name = ru;
pos = (139,-117);
},
{
name = top;
pos = (351,754);
}
);
layerId = m01;
shapes = (
{
closed = 1;
nodes = (
(352,0,o),
(408,87,o),
(408,194,cs),
(408,302,o),
(352,389,o),
(244,389,cs),
(137,389,o),
(50,302,o),
(50,194,cs),
(50,87,o),
(137,0,o),
(244,0,cs)
);
},
{
closed = 1;
nodes = (
(180,78,o),
(128,130,o),
(128,194,cs),
(128,259,o),
(180,311,o),
(244,311,cs),
(309,311,o),
(361,259,o),
(361,194,cs),
(361,130,o),
(309,78,o),
(244,78,cs)
);
},
{
closed = 1;
nodes = (
(414,700,l),
(414,700,o),
(421,700,o),
(421,700,cs),
(421,700,o),
(412,700,o),
(244,700,cs),
(137,700,o),
(50,613,o),
(50,505,cs),
(50,398,o),
(137,311,o),
(244,311,cs),
(352,311,o),
(245,311,o),
(245,311,c),
(245,389,l),
(245,389,o),
(309,389,o),
(244,389,cs),
(180,389,o),
(128,441,o),
(128,505,cs),
(128,570,o),
(180,622,o),
(244,622,cs),
(309,622,o),
(421,622,o),
(421,622,cs),
(421,622,o),
(414,622,o),
(414,622,c)
);
},
{
closed = 1;
nodes = (
(361,0,l),
(439,0,l),
(439,389,l),
(413,389,o),
(387,389,o),
(361,389,c)
);
},
{
closed = 1;
nodes = (
(592,0,l),
(670,0,l),
(670,389,l),
(592,389,l)
);
},
{
closed = 1;
nodes = (
(593,311,l),
(593,389,l),
(404,389,l),
(404,311,l)
);
},
{
closed = 1;
nodes = (
(670,505,l),
(670,505,o),
(670,505,o),
(670,505,cs),
(670,613,o),
(583,700,o),
(476,700,cs),
(168,700,o),
(159,700,o),
(159,700,cs),
(159,700,o),
(296,700,o),
(296,700,c),
(296,622,l),
(296,622,o),
(159,622,o),
(159,622,cs),
(159,622,o),
(411,622,o),
(476,622,cs),
(540,622,o),
(592,570,o),
(592,505,cs),
(592,505,o),
(592,505,o),
(592,505,c)
);
},
{
pos = (106,20);
ref = "ta-oriya.below";
}
);
width = 720;
}
);
},
{
glyphname = "ka_ssa-oriya";
layers = (
{
anchors = (
{
name = bindu;
pos = (401,-96);
},
{
name = bottom;
pos = (707,17);
},
{
name = chanBin;
pos = (598,702);
},
{
name = nukta;
pos = (401,-50);
},
{
name = reph2;
pos = (401,-23);
},
{
name = top;
pos = (401,754);
}
);
layerId = m01;
shapes = (
{
closed = 1;
nodes = (
(666,0,l),
(744,0,l),
(744,700,l),
(666,700,l)
);
},
{
closed = 1;
nodes = (
(666,351,o),
(666,350,o),
(666,350,cs),
(666,198,o),
(546,78,o),
(394,78,c),
(395,0,l),
(590,0,o),
(744,155,o),
(744,350,cs),
(744,350,o),
(744,351,o),
(744,351,cs),
(666,351,ls)
);
},
{
closed = 1;
nodes = (
(413,389,l),
(413,389,o),
(434,389,o),
(434,389,cs),
(434,389,o),
(425,389,o),
(317,389,cs),
(210,389,o),
(123,302,o),
(123,194,cs),
(123,87,o),
(210,0,o),
(317,0,cs),
(425,0,o),
(400,0,o),
(400,0,c),
(400,78,l),
(400,78,o),
(382,78,o),
(317,78,cs),
(253,78,o),
(201,130,o),
(201,194,cs),
(201,259,o),
(253,311,o),
(317,311,cs),
(382,311,o),
(434,311,o),
(434,311,cs),
(434,311,o),
(413,311,o),
(413,311,c)
);
},
{
closed = 1;
nodes = (
(744,348,ls),
(744,348,o),
(744,349,o),
(744,349,cs),
(744,544,o),
(590,699,o),
(395,699,c),
(394,621,l),
(546,621,o),
(666,501,o),
(666,349,cs),
(666,349,o),
(666,348,o),
(666,348,cs)
);
},
{
closed = 1;
nodes = (
(413,388,o),
(434,388,o),
(434,388,cs),
(434,388,o),
(382,388,o),
(317,388,cs),
(253,388,o),
(201,440,o),
(201,505,cs),
(201,569,o),
(253,621,o),
(317,621,cs),
(382,621,o),
(400,621,o),
(400,621,c),
(400,699,l),
(400,699,o),
(425,699,o),
(317,699,cs),
(210,699,o),
(123,612,o),
(123,505,cs),
(123,397,o),
(210,310,o),
(317,310,cs),
(425,310,o),
(434,310,o),
(434,310,cs),
(434,310,o),
(413,310,o),
(413,310,c),
(413,388,l)
);
},
{
closed = 1;
nodes = (
(505,78,l),
(578,102,l),
(339,682,l),
(266,658,l)
);
},
{
closed = 1;
nodes = (
(410,311,l),
(410,389,l),
(40,389,l),
(40,311,l)
);
}
);
width = 794;
}
);
},
{
glyphname = "ka_sa-oriya";
layers = (
{
anchors = (
{
name = bindu;
pos = (351,-96);
},
{
name = bottom;
pos = (714,-146);
},
{
name = chanBin;
pos = (548,702);
},
{
name = nukta;
pos = (351,-50);
},
{
name = reph2;
pos = (716,-164);
},
{
name = top;
pos = (351,754);
}
);
layerId = m01;
shapes = (
{
closed = 1;
nodes = (
(352,0,o),
(408,87,o),
(408,194,cs),
(408,302,o),
(352,389,o),
(244,389,cs),
(137,389,o),
(50,302,o),
(50,194,cs),
(50,87,o),
(137,0,o),
(244,0,cs)
);
},
{
closed = 1;
nodes = (
(180,78,o),
(128,130,o),
(128,194,cs),
(128,259,o),
(180,311,o),
(244,311,cs),
(309,311,o),
(361,259,o),
(361,194,cs),
(361,130,o),
(309,78,o),
(244,78,cs)
);
},
{
closed = 1;
nodes = (
(414,700,l),
(414,700,o),
(421,700,o),
(421,700,cs),
(421,700,o),
(412,700,o),
(244,700,cs),
(137,700,o),
(50,613,o),
(50,505,cs),
(50,398,o),
(137,311,o),
(244,311,cs),
(352,311,o),
(245,311,o),
(245,311,c),
(245,389,l),
(245,389,o),
(309,389,o),
(244,389,cs),
(180,389,o),
(128,441,o),
(128,505,cs),
(128,570,o),
(180,622,o),
(244,622,cs),
(309,622,o),
(421,622,o),
(421,622,cs),
(421,622,o),
(414,622,o),
(414,622,c)
);
},
{
closed = 1;
nodes = (
(361,0,l),
(439,0,l),
(439,389,l),
(413,389,o),
(387,389,o),
(361,389,c)
);
},
{
closed = 1;
nodes = (
(592,85,l),
(670,85,l),
(670,389,l),
(592,389,l)
);
},
{
closed = 1;
nodes = (
(593,311,l),
(593,389,l),
(404,389,l),
(404,311,l)
);
},
{
closed = 1;
nodes = (
(670,505,l),
(670,505,o),
(670,505,o),
(670,505,cs),
(670,613,o),
(583,700,o),
(476,700,cs),
(168,700,o),
(159,700,o),
(159,700,cs),
(159,700,o),
(296,700,o),
(296,700,c),
(296,622,l),
(296,622,o),
(159,622,o),
(159,622,cs),
(159,622,o),
(411,622,o),
(476,622,cs),
(540,622,o),
(592,570,o),
(592,505,cs),
(592,505,o),
(592,505,o),
(592,505,c)
);
},
{
closed = 1;
nodes = (
(742,-248,l),
(742,147,l),
(679,147,l),
(679,-248,l)
);
},
{
closed = 1;
nodes = (
(409,-158,l),
(456,-205,l),
(529,-59,l),
(478,-28,l)
);
},
{
closed = 1;
nodes = (
(691,-248,l),
(690,-190,l),
(409,-158,l),
(410,-218,l)
);
},
{
closed = 1;
nodes = (
(576,-29,o),
(575,-18,o),
(575,-18,cs),
(575,-18,o),
(550,-18,o),
(520,-18,cs),
(490,-18,o),
(466,7,o),
(466,37,cs),
(466,67,o),
(490,91,o),
(520,91,cs),
(557,91,o),
(540,91,o),
(540,91,c),
(540,147,l),
(540,147,o),
(571,147,o),
(510,147,cs),
(450,147,o),
(401,98,o),
(401,37,cs),
(401,-24,o),
(450,-73,o),
(510,-73,cs),
(571,-73,o),
(576,-73,o),
(576,-73,cs),
(576,-73,o),
(576,-73,o),
(576,-73,c),
(576,-29,l)
);
},
{
closed = 1;
nodes = (
(713,76,o),
(645,147,o),
(537,147,c),
(536,91,l),
(536,91,o),
(542,91,o),
(542,91,cs),
(611,91,o),
(679,48,o),
(679,-22,c),
(713,-33,l)
);
}
);
width = 792;
}
);
},
{
glyphname = "ga_ga-oriya";
layers = (
{
anchors = (
{
name = bindu;
pos = (351,-96);
},
{
name = bottom;
pos = (714,-146);
},
{
name = chanBin;
pos = (548,702);
},
{
name = nukta;
pos = (351,-50);
},
{
name = reph2;
pos = (716,-164);
},
{
name = top;
pos = (351,754);
}
);
layerId = m01;
shapes = (
{
closed = 1;
nodes = (
(353,0,o),
(440,87,o),
(440,194,cs),
(440,302,o),
(353,389,o),
(245,389,cs),
(138,389,o),
(51,302,o),
(51,194,cs),
(51,87,o),
(138,0,o),
(245,0,cs)
);
},
{
closed = 1;
nodes = (
(181,78,o),
(129,130,o),
(129,194,cs),
(129,259,o),
(181,311,o),
(245,311,cs),
(310,311,o),
(362,259,o),
(362,194,cs),
(362,130,o),
(310,78,o),
(245,78,cs)
);
},
{
closed = 1;
nodes = (
(672,73,l),
(672,700,l),
(594,700,l),
(594,73,l)
);
},
{
closed = 1;
nodes = (
(244,388,o),
(361,388,o),
(361,388,cs),
(361,388,o),
(309,388,o),
(244,388,cs),
(180,388,o),
(128,440,o),
(128,505,cs),
(128,569,o),
(180,621,o),
(244,621,cs),
(309,621,o),
(327,621,o),
(327,621,c),
(327,699,l),
(327,699,o),
(352,699,o),
(244,699,cs),
(137,699,o),
(50,612,o),
(50,505,cs),
(50,397,o),
(137,310,o),
(244,310,cs),
(352,310,o),
(361,310,o),
(361,310,cs),
(361,310,o),
(244,310,o),
(244,310,c),
(244,388,l)
);
},
{
closed = 1;
nodes = (
(320,622,o),
(321,622,o),
(321,622,cs),
(473,622,o),
(593,502,o),
(593,350,c),
(671,351,l),
(671,546,o),
(516,700,o),
(321,700,cs),
(321,700,o),
(320,700,o),
(320,700,cs),
(320,622,ls)
);
},
{
pos = (30,0);
ref = "ga-oriya.base";
}
);
width = 759;
}
);
metricLeft = "ga-oriya";
metricRight = "ga-oriya";
},
{
glyphname = "ga_da-oriya";
layers = (
{
anchors = (
{
name = bindu;
pos = (351,-96);
},
{
name = bottom;
pos = (714,-146);
},
{
name = chanBin;
pos = (548,702);
},
{
name = nukta;
pos = (351,-50);
},
{
name = reph2;
pos = (716,-164);
},
{
name = top;
pos = (351,754);
}
);
layerId = m01;
shapes = (
{
closed = 1;
nodes = (
(353,0,o),
(440,87,o),
(440,194,cs),
(440,302,o),
(353,389,o),
(245,389,cs),
(138,389,o),
(51,302,o),
(51,194,cs),
(51,87,o),
(138,0,o),
(245,0,cs)
);
},
{
closed = 1;
nodes = (
(181,78,o),
(129,130,o),
(129,194,cs),
(129,259,o),
(181,311,o),
(245,311,cs),
(310,311,o),
(362,259,o),
(362,194,cs),
(362,130,o),
(310,78,o),
(245,78,cs)
);
},
{
closed = 1;
nodes = (
(672,90,l),
(672,700,l),
(594,700,l),
(594,90,l)
);
},
{
closed = 1;
nodes = (
(244,388,o),
(361,388,o),
(361,388,cs),
(361,388,o),
(309,388,o),
(244,388,cs),
(180,388,o),
(128,440,o),
(128,505,cs),
(128,569,o),
(180,621,o),
(244,621,cs),
(309,621,o),
(327,621,o),
(327,621,c),
(327,699,l),
(327,699,o),
(352,699,o),
(244,699,cs),
(137,699,o),
(50,612,o),
(50,505,cs),
(50,397,o),
(137,310,o),
(244,310,cs),
(352,310,o),
(361,310,o),
(361,310,cs),
(361,310,o),
(244,310,o),
(244,310,c),
(244,388,l)
);
},
{
closed = 1;
nodes = (
(320,622,o),
(321,622,o),
(321,622,cs),
(473,622,o),
(593,502,o),
(593,350,c),
(671,351,l),
(671,546,o),
(516,700,o),
(321,700,cs),
(321,700,o),
(320,700,o),
(320,700,cs),
(320,622,ls)
);
},
{
pos = (30,0);
ref = "da-oriya.base";
}
);
width = 815;
}
);
metricLeft = "ga-oriya";
},
{
glyphname = "ga_dha-oriya";
layers = (
{
anchors = (
{
name = bindu;
pos = (351,-96);
},
{
name = bottom;
pos = (714,-146);
},
{
name = chanBin;
pos = (548,702);
},
{
name = nukta;
pos = (351,-50);
},
{
name = reph2;
pos = (716,-164);
},
{
name = top;
pos = (351,754);
}
);
layerId = m01;
shapes = (
{
closed = 1;
nodes = (
(353,0,o),
(440,87,o),
(440,194,cs),
(440,302,o),
(353,389,o),
(245,389,cs),
(138,389,o),
(51,302,o),
(51,194,cs),
(51,87,o),
(138,0,o),
(245,0,cs)
);
},
{
closed = 1;
nodes = (
(181,78,o),
(129,130,o),
(129,194,cs),
(129,259,o),
(181,311,o),
(245,311,cs),
(310,311,o),
(362,259,o),
(362,194,cs),
(362,130,o),
(310,78,o),
(245,78,cs)
);
},
{
closed = 1;
nodes = (
(672,0,l),
(672,700,l),
(594,700,l),
(594,0,l)
);
},
{
closed = 1;
nodes = (
(244,388,o),
(361,388,o),
(361,388,cs),
(361,388,o),
(309,388,o),
(244,388,cs),
(180,388,o),
(128,440,o),
(128,505,cs),
(128,569,o),
(180,621,o),
(244,621,cs),
(309,621,o),
(327,621,o),
(327,621,c),
(327,699,l),
(327,699,o),
(352,699,o),
(244,699,cs),
(137,699,o),
(50,612,o),
(50,505,cs),
(50,397,o),
(137,310,o),
(244,310,cs),
(352,310,o),
(361,310,o),
(361,310,cs),
(361,310,o),
(244,310,o),
(244,310,c),
(244,388,l)
);
},
{
closed = 1;
nodes = (
(320,622,o),
(321,622,o),
(321,622,cs),
(473,622,o),
(593,502,o),
(593,350,c),
(671,351,l),
(671,546,o),
(516,700,o),
(321,700,cs),
(321,700,o),
(320,700,o),
(320,700,cs),
(320,622,ls)
);
},
{
pos = (-1,-3);
ref = "dha-oriya.base";
}
);
width = 722;
}
);
metricLeft = "ga-oriya";
metricRight = "dha-oriya";
},
